<svg width="20" height="20" viewBox="0 0 20 20" fill="none" xmlns="http://www.w3.org/2000/svg">
<g clip-path="url(#clip0_396_5793)">
<path d="M6.27477 7.89172C6.15629 7.78132 5.99959 7.72121 5.83767 7.72407C5.67575 7.72693 5.52126 7.79252 5.40675 7.90703C5.29224 8.02154 5.22665 8.17603 5.22379 8.33795C5.22093 8.49987 5.28104 8.65657 5.39144 8.77505L9.5581 12.9417C9.61615 12.9998 9.68506 13.0459 9.76092 13.0773C9.83677 13.1087 9.91808 13.1249 10.0002 13.1249C10.0823 13.1249 10.1636 13.1087 10.2395 13.0773C10.3153 13.0459 10.3842 12.9998 10.4423 12.9417L14.6089 8.77505C14.7227 8.65712 14.7857 8.49921 14.7842 8.33534C14.7827 8.17147 14.7168 8.01474 14.6009 7.89891C14.485 7.78309 14.3282 7.71743 14.1643 7.71609C14.0004 7.71474 13.8426 7.77781 13.7248 7.89172L9.99977 11.6167L6.27477 7.89172Z" />
</g>
<defs>
<clipPath id="clip0_396_5793">
<rect width="20" height="20" fill="white" transform="translate(0 20) rotate(-90)"/>
</clipPath>
</defs>
</svg>
