<svg width="17" height="17" viewBox="0 0 17 17" fill="none" xmlns="http://www.w3.org/2000/svg">
<path d="M16.6617 16.4067V4.74612C16.6617 4.72878 16.6617 4.70796 16.6583 4.69061C16.6583 4.68367 16.6583 4.67673 16.6548 4.6698C16.6548 4.65939 16.6513 4.64898 16.6513 4.6351C16.6513 4.62816 16.6478 4.61775 16.6444 4.61082C16.6409 4.60041 16.6409 4.59347 16.6374 4.58306C16.634 4.57612 16.634 4.56571 16.6305 4.55878C16.627 4.55184 16.6236 4.54143 16.6201 4.53449C16.6166 4.52755 16.6132 4.51714 16.6097 4.5102C16.6062 4.4998 16.6027 4.49286 16.5958 4.48245C16.5923 4.47204 16.5854 4.4651 16.5819 4.45469C16.575 4.44082 16.5681 4.43041 16.5576 4.41653C16.5542 4.40959 16.5507 4.40612 16.5438 4.39918C16.5403 4.39225 16.5334 4.38531 16.5299 4.37837L13.2652 0.22551C13.1507 0.0832653 12.9807 0 12.7968 0H4.20662C4.02275 0 3.85275 0.0832653 3.73826 0.22551L0.470094 4.3749C0.463155 4.38184 0.459685 4.38878 0.456216 4.39571C0.452747 4.40265 0.449277 4.40612 0.442338 4.41306C0.4354 4.42694 0.424992 4.43735 0.418053 4.45122C0.414583 4.46163 0.407645 4.46857 0.404175 4.47898C0.400706 4.48939 0.393767 4.49633 0.390298 4.50673C0.386828 4.51367 0.383359 4.52408 0.379889 4.53102C0.37642 4.53796 0.372951 4.54837 0.369481 4.55531C0.366012 4.56224 0.362543 4.57265 0.362543 4.57959C0.359073 4.59 0.359073 4.59694 0.355604 4.60735C0.352134 4.61429 0.352134 4.62469 0.348665 4.63163C0.345196 4.64204 0.345196 4.65245 0.345196 4.66633C0.345196 4.67327 0.341726 4.6802 0.341726 4.68714C0.341726 4.70449 0.338257 4.72531 0.338257 4.74265V16.4033C0.338257 16.7329 0.6054 17 0.931522 17H16.0615C16.3946 17 16.6617 16.7329 16.6617 16.4067ZM14.8403 4.14939H9.09499V1.19H12.5054L14.8403 4.14939ZM4.49458 1.19H7.90499V4.14939H2.16315L4.49458 1.19ZM1.53173 15.81V5.33939H15.4717V15.81H1.53173Z" fill="#272727"/>
</svg>
