<svg width="13" height="13" viewBox="0 0 13 13" fill="none" xmlns="http://www.w3.org/2000/svg">
<g clip-path="url(#clip0_819_1137)">
<path d="M11.7305 8.96658C10.7358 8.96658 9.9266 7.82216 9.9266 6.41544C9.9266 5.00871 10.7358 3.86425 11.7305 3.86425C11.889 3.86425 12.0351 3.77863 12.1125 3.64036C12.1899 3.50209 12.1865 3.33283 12.1037 3.19776L10.9188 1.26561C10.8487 1.15137 10.7301 1.07548 10.597 1.05976C10.4639 1.04392 10.331 1.09014 10.2361 1.1849C9.82409 1.59695 9.15371 1.59687 8.7417 1.1849C8.54211 0.985354 8.4322 0.719932 8.43216 0.437658C8.43211 0.195959 8.23615 0 7.99446 0H5.00557C4.76387 0 4.56791 0.195959 4.56786 0.437658C4.56782 0.719932 4.45787 0.985354 4.25832 1.1849C3.84636 1.59695 3.17589 1.59687 2.76388 1.1849C2.66903 1.09014 2.53588 1.04392 2.40299 1.05976C2.26989 1.07548 2.15131 1.15137 2.08124 1.26561L0.89638 3.19776C0.813523 3.33283 0.810153 3.50209 0.887582 3.64036C0.964968 3.77863 1.11103 3.86425 1.26952 3.86425C2.26424 3.86425 3.07346 5.00871 3.07346 6.41544C3.07346 7.82216 2.26424 8.96658 1.26952 8.96658C1.12026 8.96658 0.981294 9.04265 0.900845 9.16836C0.820351 9.29407 0.80954 9.45217 0.872088 9.58768L1.61929 11.2068C1.70074 11.3833 1.88882 11.4852 2.08102 11.4564C2.11205 11.4518 5.20214 11.0148 6.08257 12.7594C6.15633 12.9056 6.30545 12.9984 6.46911 13C6.47051 13 6.47191 13 6.47336 13C6.63539 13 6.78439 12.9104 6.86024 12.767C7.80668 10.9783 10.8993 11.3295 10.9304 11.3332C11.1142 11.3557 11.2921 11.26 11.3749 11.0945L12.1221 9.59998C12.1899 9.46429 12.1826 9.30317 12.1029 9.17414C12.0231 9.04515 11.8823 8.96658 11.7305 8.96658ZM6.8064 10.1516C6.8064 10.3208 6.66923 10.458 6.50001 10.458C6.3308 10.458 6.19362 10.3208 6.19362 10.1516V9.9546C6.19362 9.78539 6.3308 9.64821 6.50001 9.64821C6.66923 9.64821 6.8064 9.78539 6.8064 9.9546V10.1516ZM6.8064 8.68448C6.8064 8.8537 6.66923 8.99087 6.50001 8.99087C6.3308 8.99087 6.19362 8.8537 6.19362 8.68448V8.31572C6.19362 8.1465 6.3308 8.00933 6.50001 8.00933C6.66923 8.00933 6.8064 8.1465 6.8064 8.31572V8.68448ZM6.8064 7.04564C6.8064 7.21485 6.66923 7.35203 6.50001 7.35203C6.3308 7.35203 6.19362 7.21485 6.19362 7.04564V6.67688C6.19362 6.50766 6.3308 6.37048 6.50001 6.37048C6.66923 6.37048 6.8064 6.50766 6.8064 6.67688V7.04564ZM6.8064 5.40675C6.8064 5.57597 6.66923 5.71314 6.50001 5.71314C6.3308 5.71314 6.19362 5.57597 6.19362 5.40675V5.03803C6.19362 4.86882 6.3308 4.73164 6.50001 4.73164C6.66923 4.73164 6.8064 4.86882 6.8064 5.03803V5.40675ZM6.8064 3.76795C6.8064 3.93717 6.66923 4.07435 6.50001 4.07435C6.3308 4.07435 6.19362 3.93717 6.19362 3.76795V3.39919C6.19362 3.22998 6.3308 3.0928 6.50001 3.0928C6.66923 3.0928 6.8064 3.22998 6.8064 3.39919V3.76795ZM6.8064 2.12911C6.8064 2.29833 6.66923 2.4355 6.50001 2.4355C6.3308 2.4355 6.19362 2.29833 6.19362 2.12911V1.93215C6.19362 1.76293 6.3308 1.62575 6.50001 1.62575C6.66923 1.62575 6.8064 1.76293 6.8064 1.93215V2.12911Z" fill="#272727"/>
</g>
<defs>
<clipPath id="clip0_819_1137">
<rect width="13" height="13" fill="white"/>
</clipPath>
</defs>
</svg>
