<svg width="168" height="49" viewBox="0 0 168 49" fill="none" xmlns="http://www.w3.org/2000/svg">
<g clip-path="url(#clip0_967_3193)">
<path d="M37.3333 35.5161V11H42.3111V30.6129H52.2666L54.7555 35.5161H37.3333Z" fill="white"/>
<path d="M69.6889 11H79.6445C82.2848 11 84.8171 12.0332 86.6841 13.8722C88.5511 15.7113 89.6 18.2056 89.6 20.8065C89.6 23.4073 88.5511 25.9016 86.6841 27.7407C84.8171 29.5797 82.2848 30.6129 79.6445 30.6129H74.6667V35.5161H69.6889V15.9032H67.2L64.7111 11H69.6889ZM74.6667 15.9032V25.7097H79.6445C80.9646 25.7097 82.2308 25.1931 83.1643 24.2736C84.0978 23.354 84.6222 22.1069 84.6222 20.8065C84.6222 19.506 84.0978 18.2589 83.1643 17.3393C82.2308 16.4198 80.9646 15.9032 79.6445 15.9032H74.6667Z" fill="white"/>
<path d="M89.6 11H104.533C107.174 11 109.706 12.0332 111.573 13.8722C113.44 15.7113 114.489 18.2056 114.489 20.8065C114.489 23.4073 113.44 25.9016 111.573 27.7407C109.706 29.5797 107.174 30.6129 104.533 30.6129H99.5555V35.5161H94.5778V15.9032H92.0889L89.6 11ZM99.5555 15.9032V25.7097H104.533C105.853 25.7097 107.12 25.1931 108.053 24.2736C108.987 23.354 109.511 22.1069 109.511 20.8065C109.511 19.506 108.987 18.2589 108.053 17.3393C107.12 16.4198 105.853 15.9032 104.533 15.9032H99.5555Z" fill="white"/>
<path d="M156.8 28.5842L163.022 22.4552V11H168V24.4839L156.8 35.5161L145.6 24.4839V11H150.578V22.4552L156.8 28.5842Z" fill="white"/>
<path d="M130.044 11C132.506 11 134.912 11.7189 136.958 13.0659C139.005 14.4128 140.6 16.3272 141.542 18.5671C142.483 20.807 142.73 23.2717 142.25 25.6495C141.77 28.0273 140.584 30.2115 138.844 31.9258C137.104 33.6401 134.886 34.8076 132.472 35.2806C130.058 35.7536 127.556 35.5108 125.282 34.583C123.008 33.6553 121.065 32.0841 119.697 30.0683C118.33 28.0525 117.6 25.6825 117.6 23.2581C117.6 20.007 118.911 16.8891 121.245 14.5903C123.579 12.2915 126.744 11 130.044 11V11ZM130.044 15.9032C128.568 15.9032 127.124 16.3346 125.896 17.1427C124.668 17.9509 123.711 19.0996 123.146 20.4435C122.581 21.7874 122.433 23.2662 122.721 24.6929C123.009 26.1196 123.72 27.4301 124.765 28.4587C125.809 29.4873 127.139 30.1878 128.588 30.4716C130.036 30.7554 131.537 30.6097 132.902 30.053C134.266 29.4964 135.432 28.5537 136.253 27.3442C137.073 26.1347 137.511 24.7127 137.511 23.2581C137.511 21.3074 136.724 19.4367 135.324 18.0574C133.924 16.6781 132.025 15.9032 130.044 15.9032Z" fill="white"/>
<path d="M27.3778 15.9032L29.8667 11H32.3556V35.5161H27.3778V15.9032Z" fill="white"/>
<path d="M9.95555 20.8065H19.9111L17.4222 25.7097H9.95555V35.5161H4.97778V15.9032H2.48889L0 11H24.8889L22.4 15.9032H9.95555V20.8065Z" fill="white"/>
<path d="M57.2444 30.6129L59.7333 35.5161H62.2222V15.9032L59.7333 11H57.2444V30.6129Z" fill="white"/>
<path d="M42.9333 44.0967V47.7741H44.1778C44.6729 47.7741 45.1477 47.5804 45.4977 47.2355C45.8478 46.8907 46.0445 46.423 46.0445 45.9354C46.0445 45.4477 45.8478 44.98 45.4977 44.6352C45.1477 44.2904 44.6729 44.0967 44.1778 44.0967H42.9333ZM41.6889 42.8708H44.1778C45.0029 42.8708 45.7942 43.1937 46.3777 43.7684C46.9611 44.3431 47.2889 45.1226 47.2889 45.9354C47.2889 46.7481 46.9611 47.5276 46.3777 48.1023C45.7942 48.677 45.0029 48.9999 44.1778 48.9999H41.6889V42.8708Z" fill="white"/>
<path d="M69.6889 42.8708L72.1778 46.7076V42.8708H73.4222V48.9999H72.1778L69.6889 45.1631V48.9999H68.4445V42.8708H69.6889Z" fill="white"/>
<path d="M83.3778 46.2418H84.6845L84 44.6421L83.3778 46.2418ZM85.1822 47.4676H82.88L82.2578 48.9999H80.8889L83.3778 42.8708H84.6222L87.1111 48.9999H85.7734L85.1822 47.4676Z" fill="white"/>
<path d="M96.4444 45.3225H98.3111C98.8062 45.3225 99.281 45.5162 99.631 45.861C99.9811 46.2058 100.178 46.6735 100.178 47.1612C100.178 47.6488 99.9811 48.1165 99.631 48.4613C99.281 48.8062 98.8062 48.9999 98.3111 48.9999H94.8889L95.5111 47.7741H98.3111C98.4761 47.7741 98.6344 47.7095 98.7511 47.5946C98.8678 47.4796 98.9333 47.3237 98.9333 47.1612C98.9333 46.9986 98.8678 46.8427 98.7511 46.7278C98.6344 46.6128 98.4761 46.5483 98.3111 46.5483H96.4444C95.9494 46.5483 95.4746 46.3545 95.1245 46.0097C94.7744 45.6649 94.5778 45.1972 94.5778 44.7096C94.5778 44.2219 94.7744 43.7542 95.1245 43.4094C95.4746 43.0646 95.9494 42.8708 96.4444 42.8708H99.5555V44.0967H96.4444C96.2794 44.0967 96.1211 44.1612 96.0044 44.2762C95.8878 44.3911 95.8222 44.547 95.8222 44.7096C95.8222 44.8721 95.8878 45.028 96.0044 45.1429C96.1211 45.2579 96.2794 45.3225 96.4444 45.3225Z" fill="white"/>
<path d="M111.067 44.0967V48.9999H109.822V44.0967H107.644V42.8708H113.244V44.0967H111.067Z" fill="white"/>
<path d="M58.4889 46.7934V48.9999H57.2444V46.7934L54.7556 42.8708H56.2364L57.8667 45.4757L59.5031 42.8708H60.9778L58.4889 46.7934Z" fill="white"/>
<path d="M124.444 46.7934V48.9999H123.2V46.7934L120.711 42.8708H122.192L123.822 45.4757L125.459 42.8708H126.933L124.444 46.7934Z" fill="white"/>
<path d="M76.91 0.0999994H76.33L75.34 0.86V1.51L76.33 0.8V7H76.91V0.0999994ZM80.3623 4.12C80.7023 4.12 80.9823 4.05 81.2223 3.88L79.8523 7H80.5023L81.9323 3.66C82.1423 3.16 82.3923 2.61 82.3923 2.07C82.3923 0.87 81.5823 0.0399996 80.4523 0.0399996C79.3023 0.0399996 78.5123 0.88 78.5123 2.1C78.5123 3.27 79.2523 4.12 80.3623 4.12ZM81.8123 2.1C81.8123 3.01 81.2723 3.6 80.4523 3.6C79.6423 3.6 79.0923 3.01 79.0923 2.1C79.0923 1.18 79.6423 0.58 80.4523 0.58C81.2723 0.58 81.8123 1.18 81.8123 2.1ZM85.4647 4.12C85.8047 4.12 86.0847 4.05 86.3247 3.88L84.9547 7H85.6047L87.0347 3.66C87.2447 3.16 87.4947 2.61 87.4947 2.07C87.4947 0.87 86.6847 0.0399996 85.5547 0.0399996C84.4047 0.0399996 83.6147 0.88 83.6147 2.1C83.6147 3.27 84.3547 4.12 85.4647 4.12ZM86.9147 2.1C86.9147 3.01 86.3747 3.6 85.5547 3.6C84.7447 3.6 84.1947 3.01 84.1947 2.1C84.1947 1.18 84.7447 0.58 85.5547 0.58C86.3747 0.58 86.9147 1.18 86.9147 2.1ZM90.737 2.9C91.717 2.9 92.127 3.58 92.127 4.84C92.127 6.06 91.587 6.52 90.737 6.52C90.067 6.52 89.527 6.07 89.427 5.36H88.857C88.927 6.31 89.697 7.06 90.737 7.06C92.017 7.06 92.707 6.2 92.707 4.84C92.707 3.29 92.147 2.32 90.827 2.32C90.247 2.32 89.827 2.58 89.577 2.92V0.68H92.417V0.0999994H89.017V3.69H89.537C89.767 3.27 90.147 2.9 90.737 2.9Z" fill="white"/>
</g>
<defs>
<clipPath id="clip0_967_3193">
<rect width="168" height="49" fill="white"/>
</clipPath>
</defs>
</svg>
