<svg width="227" height="69" viewBox="0 0 227 69" fill="none" xmlns="http://www.w3.org/2000/svg">
<path d="M34.1931 16.3614C34.1931 12.7052 32.4275 9.84216 27.2554 9.84216H9.49023V31.8388H14.4184V24.1001H25.7961C28.3511 24.1001 29.0209 24.8188 29.0209 27.3896V31.8388H33.949V26.599C33.949 23.9851 33.0232 22.4517 30.9682 21.9294C33.107 21.2058 34.1931 19.1334 34.1931 16.3614ZM26.588 19.476H14.4184V14.4734H26.588C28.4133 14.4734 29.2649 15.4485 29.2649 16.91C29.2649 18.3715 28.5353 19.4688 26.588 19.4688V19.476ZM224.809 36.7264H226.634V58.711H221.706V43.1114L211.546 58.711H205.888V36.7144H210.816V51.7677L218.232 40.2483C220.125 37.323 221.766 36.7144 224.809 36.7144V36.7264ZM128.619 31.8388V27.1476C130.626 27.1476 131.114 25.9281 131.54 21.8455L132.878 9.84216H150.523V31.8388H145.595V14.4734H137.095L136.224 22.8806C135.495 30.1329 133.547 32.0832 128.619 31.8388ZM0 68.2754H43.4417V0.275391H0V68.2754ZM4.74631 5.02403H38.6954V63.5267H4.74631V5.02403ZM29.0209 36.7144H33.949V58.711H18.1814C11.8538 58.711 9.48066 56.3343 9.48066 49.9972V36.7144H14.4088V50.1098C14.4088 52.913 15.5045 54.0702 18.0594 54.0702H29.0113L29.0209 36.7144ZM160.073 24.4738H170.965V31.846H175.893V9.84216H163.238C157.033 9.84216 155.145 11.548 155.145 17.945V31.8412H160.073V24.4738ZM163.238 14.4806H170.965V19.8953H160.073V17.945C160.073 15.4485 160.379 14.4734 163.238 14.4734V14.4806ZM104.464 23.7335V17.945C104.464 11.6079 106.23 9.84216 112.557 9.84216H125.454V14.4734H112.313C109.758 14.4734 109.392 14.8999 109.392 17.7031V18.4338H121.866V23.0028H109.392V23.9779C109.392 26.7811 109.758 27.2075 112.313 27.2075H125.639V31.8388H112.557C106.23 31.8388 104.464 30.0107 104.464 23.7335ZM218.907 9.83737H213.493C207.225 9.83737 205.402 11.6031 205.402 17.9402V23.7335C205.402 30.0107 207.835 31.8388 214.101 31.8388H218.299C224.627 31.8388 227 30.0107 227 23.7335V17.945C227 11.6079 225.234 9.84216 218.907 9.84216V9.83737ZM222.072 23.7335C222.072 26.5367 221.464 27.2075 218.907 27.2075H213.493C210.938 27.2075 210.331 26.5367 210.331 23.7335V17.945C210.331 15.1419 210.938 14.4734 213.493 14.4734H218.907C221.464 14.4734 222.072 15.1419 222.072 17.945V23.7335ZM137.684 36.7144H151.193V39.4553C151.193 41.6499 151.011 43.478 150.526 45.1216H146.325V41.3433H137.684C135.129 41.3433 134.521 42.0141 134.521 44.8173V50.6057C134.521 53.4089 135.129 54.0798 137.684 54.0798H151.193V58.711H137.684C131.418 58.711 129.593 56.883 129.593 50.6057V44.8173C129.593 38.4802 131.418 36.7144 137.684 36.7144ZM98.9285 9.84216H80.9863L79.8931 20.9926C79.3452 26.2947 78.5534 27.1476 77.0941 27.1476H76.7926V33.9112H81.4767L81.6586 31.108H96.1391L96.3209 33.9112H101.007V27.0853H98.9381L98.9285 9.84216ZM85.3116 14.4734H94.0004V26.5367H83.46C84.1322 25.3579 84.4169 23.7143 84.6298 21.6012L85.3116 14.4734ZM118.033 36.7144H112.199C105.933 36.7144 104.108 38.4802 104.108 44.8173V50.6057C104.108 56.883 105.933 58.711 112.199 58.711H118.041C124.368 58.711 126.131 56.883 126.131 50.6057V44.8173C126.124 38.4802 124.361 36.7144 118.033 36.7144ZM121.196 50.6105C121.196 53.4137 120.588 54.0846 118.033 54.0846H112.199C109.644 54.0846 109.036 53.4137 109.036 50.6105V44.8173C109.036 42.0141 109.644 41.3433 112.199 41.3433H118.041C120.596 41.3433 121.203 42.0141 121.203 44.8173L121.196 50.6105ZM162.75 36.7144H176.312V39.4553C176.312 41.6499 176.13 43.478 175.642 45.1216H171.451V41.3433H162.75C160.195 41.3433 159.588 42.0141 159.588 44.8173V50.6057C159.588 53.4089 160.195 54.0798 162.75 54.0798H176.312V58.711H162.75C156.485 58.711 154.659 56.883 154.659 50.6057V44.8173C154.659 38.4802 156.485 36.7144 162.75 36.7144ZM70.5296 47.0862C71.6851 46.3794 72.6444 44.8796 72.6444 42.5628C72.6444 39.5775 70.9411 36.7144 65.891 36.7144H52.9941V58.711H66.3909C71.2569 58.711 73.63 56.2121 73.63 52.1295C73.6181 49.391 72.0439 47.7666 70.5296 47.0862ZM67.7163 43.2935C67.7163 44.6352 67.0464 45.3659 65.3431 45.3659H57.927V41.4055H65.3431C67.0464 41.4055 67.7163 42.0141 67.7163 43.2935V43.2935ZM66.4388 54.075H57.9222V49.8127H66.4388C68.0823 49.8127 68.6899 50.6057 68.6899 51.8851C68.6899 53.1645 68.0823 54.0798 66.4388 54.0798V54.075ZM196.34 9.83737H201.268V31.834H196.336V23.0028H185.446V31.8388H180.518V9.84216H185.446V18.3715H196.336L196.34 9.83737ZM60.36 9.83737H73.8047V12.5831C73.8047 14.7777 73.6229 16.6057 73.1372 18.2517H68.934V14.4734H60.3552C57.8002 14.4734 57.1902 15.1419 57.1902 17.945V23.7335C57.1902 26.5367 57.8002 27.2075 60.3552 27.2075H73.7999V31.8388H60.3552C54.0874 31.8388 52.2621 30.0107 52.2621 23.7335V17.945C52.2621 11.6079 54.0874 9.84216 60.3552 9.84216L60.36 9.83737ZM199.438 36.7144H201.264V58.711H196.336V43.1114L186.175 58.711H180.518V36.7144H185.446V51.7677L192.862 40.2483C194.754 37.323 196.407 36.7144 199.438 36.7144ZM93.3928 36.7144H79.039V41.027L81.594 41.3936V58.711H86.5221V53.0424H93.3976C99.0553 53.0424 101.003 50.1673 101.003 45.7325V44.0242C100.998 39.8219 99.1726 36.7144 93.3928 36.7144ZM96.1296 45.5576C96.1296 47.6301 95.3377 48.4327 93.3928 48.4327H86.5173V41.3433H93.3928C95.3377 41.3433 96.1296 42.3184 96.1296 44.2183V45.5576Z" fill="white"/>
</svg>
