<svg width="20" height="20" viewBox="0 0 20 20" fill="none" xmlns="http://www.w3.org/2000/svg">
<path fill-rule="evenodd" clip-rule="evenodd" d="M15.2163 4.78335C15.52 5.08709 15.52 5.57955 15.2163 5.88329L5.88293 15.2166C5.57918 15.5204 5.08672 15.5204 4.78298 15.2166C4.47924 14.9129 4.47924 14.4204 4.78298 14.1167L14.1163 4.78335C14.4201 4.47961 14.9125 4.47961 15.2163 4.78335Z" fill="white"/>
<path d="M13.8888 15.4444C14.7479 15.4444 15.4444 14.7479 15.4444 13.8888C15.4444 13.0297 14.7479 12.3333 13.8888 12.3333C13.0297 12.3333 12.3333 13.0297 12.3333 13.8888C12.3333 14.7479 13.0297 15.4444 13.8888 15.4444Z" fill="white"/>
<path fill-rule="evenodd" clip-rule="evenodd" d="M13.8885 13.1111C13.459 13.1111 13.1107 13.4593 13.1107 13.8889C13.1107 14.3184 13.459 14.6667 13.8885 14.6667C14.3181 14.6667 14.6663 14.3184 14.6663 13.8889C14.6663 13.4593 14.3181 13.1111 13.8885 13.1111ZM11.5552 13.8889C11.5552 12.6002 12.5998 11.5555 13.8885 11.5555C15.1772 11.5555 16.2218 12.6002 16.2218 13.8889C16.2218 15.1775 15.1772 16.2222 13.8885 16.2222C12.5998 16.2222 11.5552 15.1775 11.5552 13.8889Z" fill="white"/>
<path d="M6.11073 7.66665C6.96984 7.66665 7.66629 6.97021 7.66629 6.1111C7.66629 5.25199 6.96984 4.55554 6.11073 4.55554C5.25162 4.55554 4.55518 5.25199 4.55518 6.1111C4.55518 6.97021 5.25162 7.66665 6.11073 7.66665Z" fill="white"/>
<path fill-rule="evenodd" clip-rule="evenodd" d="M6.11117 5.33327C5.68161 5.33327 5.33339 5.68149 5.33339 6.11104C5.33339 6.5406 5.68161 6.88882 6.11117 6.88882C6.54072 6.88882 6.88894 6.5406 6.88894 6.11104C6.88894 5.68149 6.54072 5.33327 6.11117 5.33327ZM3.77783 6.11104C3.77783 4.82238 4.8225 3.77771 6.11117 3.77771C7.39983 3.77771 8.4445 4.82238 8.4445 6.11104C8.4445 7.39971 7.39983 8.44438 6.11117 8.44438C4.8225 8.44438 3.77783 7.39971 3.77783 6.11104Z" fill="white"/>
</svg>
