<svg width="148" height="148" viewBox="0 0 148 148" fill="none" xmlns="http://www.w3.org/2000/svg">
<path d="M22.3183 62.0353L22.4554 62.3095C22.3183 62.3095 22.0783 62.5495 21.7355 63.0295C21.9069 63.0638 22.0097 63.1666 22.0097 63.3038C21.9412 63.3038 21.6669 63.578 21.1527 64.1608L21.2898 64.4351V64.5722L20.4327 65.5664L20.8441 65.875C21.3241 65.5664 21.8383 65.4293 22.284 65.4293V65.5664C22.284 65.8064 21.6669 66.4921 20.3984 67.5891L20.5356 67.8634C18.6157 69.8518 17.4158 71.1203 16.9701 71.7374C17.2444 71.7374 17.3815 71.7717 17.3815 71.8745C18.4443 71.6003 19.5071 71.4631 20.5356 71.4631H21.6669C22.7297 71.4631 23.3811 72.2174 23.6896 73.7601C23.0725 75.3714 20.947 77.3941 17.2444 79.7939C15.5988 80.8567 11.382 84.6621 4.59393 91.2445C2.29697 92.9586 0.822797 93.9185 0.137135 94.1242L0 93.85C2.94834 91.9301 4.4568 90.3188 4.4568 88.9475C5.58814 88.0218 6.23952 87.0619 6.4795 86.0677C6.78805 85.8963 7.0966 85.3478 7.47371 84.3536C8.5022 83.5651 10.7992 81.3709 14.3646 77.7712L16.833 76.0571V75.7828L16.5244 75.9199H15.6674C13.8846 76.297 12.0334 76.6399 10.0449 76.9141C8.84503 76.9141 8.09081 76.1942 7.74798 74.7543C7.74798 74.5143 7.64513 74.2058 7.47371 73.8972C7.71369 73.0402 9.1193 71.9088 11.622 70.4689C17.7243 65.155 21.2898 62.3095 22.3183 62.0353Z" fill="#787878"/>
<path d="M41.5187 61.7954L41.6901 62.104C41.6901 62.2411 41.2787 62.4125 40.4902 62.7211C40.4902 63.0639 39.9074 63.8524 38.7075 65.1209H37.8162C35.1764 65.6351 33.7022 66.0465 33.4622 66.3208C33.4622 66.8693 31.4738 70.6404 27.4627 77.5656C25.8856 80.7882 24.5143 83.188 23.2801 84.7651L22.9716 84.9022H22.8002L22.4916 84.7651L22.663 84.4565V83.8394C22.663 83.7366 22.5602 83.3595 22.3545 82.6395C22.3888 82.4338 22.4916 82.331 22.663 82.331L22.3545 80.0683C23.1087 79.2798 24.3772 76.4343 26.0913 71.5318L28.6626 66.8693H27.017C25.6114 66.8008 24.9257 66.5608 24.9257 66.1151L25.8171 64.9152C25.8171 64.8123 25.7142 64.4352 25.5428 63.7153C26.297 62.9268 27.497 62.5154 29.1083 62.5154L34.8335 62.0697V62.2068L35.1421 62.0697H36.342C37.5076 62.104 39.256 62.0011 41.5187 61.7954Z" fill="#787878"/>
<path d="M40.6611 64.4005L40.9354 64.5376L40.7982 64.8119C41.3468 65.5319 41.621 65.9432 41.621 66.0461C41.8267 66.0461 41.9981 66.0118 42.1695 65.909C43.8494 65.9775 45.255 66.0461 46.4206 66.0461H46.832C47.2092 66.0461 47.7234 66.0118 48.3405 65.909C48.4434 65.9775 48.7862 66.0461 49.4376 66.0461L49.7118 65.909L49.9861 66.0461L50.6718 65.909V66.0461C50.8432 65.9775 50.9803 65.909 51.0831 65.909C51.6317 65.9775 51.8717 66.1147 51.8717 66.3204V66.4575C51.3231 66.4575 50.946 66.8689 50.7746 67.6917C50.6032 67.6917 50.2604 68.0688 49.6775 68.7887C49.2661 68.7887 47.8605 69.0973 45.4264 69.7487L44.1923 69.8858C44.1237 69.8858 43.8494 69.8515 43.3695 69.7487C42.5809 69.8515 42.0667 69.9201 41.8953 70.0229L42.0324 70.2972C40.4897 73.2455 39.7355 74.8911 39.7355 75.1997C37.1299 80.205 35.6215 82.9134 35.2444 83.2562L34.9701 83.1191L35.1072 82.8448V82.4334C34.6616 81.9534 34.4216 81.6792 34.4216 81.6449C34.5244 81.4735 34.5587 81.3021 34.5587 81.2335C34.4559 81.2335 34.2159 80.9249 33.873 80.2736C34.1816 80.0336 34.5587 78.6623 34.9701 76.1596C35.2787 75.234 35.69 74.5483 36.2043 74.1026L36.0672 73.8284C36.65 72.2856 37.1985 71.2914 37.7128 70.8457L37.5756 70.5715C38.6384 68.5488 39.564 66.5261 40.4554 64.5719L40.6611 64.4005Z" fill="#787878"/>
<path d="M59.1728 75.5768C61.2984 75.5768 62.3611 75.7482 62.3611 76.1253V76.2624H61.8126C61.2984 76.2624 60.8184 76.6396 60.407 77.3938C60.0299 77.3938 59.6185 77.7709 59.1728 78.4908C58.6586 78.4223 58.2815 78.3537 58.0415 78.3537C54.6817 79.2794 52.3162 79.725 50.9106 79.725H50.3621L49.6764 79.5879C49.6764 79.7593 49.5736 79.8622 49.4021 79.8622H46.8995C46.2481 79.8622 45.9053 79.6222 45.9053 79.1422L46.3167 78.4223C46.2138 78.4223 46.1795 78.388 46.1795 78.2852C46.351 78.1823 46.4881 78.148 46.5909 78.148C46.5909 78.0109 46.4195 77.7023 46.0424 77.1538C46.8995 76.5367 47.3109 76.1596 47.3109 76.0225C48.168 75.851 48.8879 75.7482 49.4021 75.7482H52.3505L53.0704 75.6111V75.7482C53.1733 75.7482 53.2076 75.7139 53.2076 75.6111C56.0188 75.6454 58.0415 75.5768 59.1728 75.5768ZM51.322 70.1258L51.5963 70.2629C51.6991 70.2629 51.7334 70.2286 51.7334 70.1258L52.7276 70.2629H56.6359C57.4244 70.2629 58.6929 70.2972 60.407 70.4001L60.5441 70.6743C60.407 70.6743 59.6185 71.4971 58.1786 73.177L57.6301 73.0399C55.4702 73.7941 53.8589 74.1712 52.7276 74.1712C52.6248 74.1712 52.4876 74.1369 52.3162 74.034C51.802 74.1369 51.3906 74.1712 51.0477 74.1712H49.9507C49.8135 74.1712 49.6078 73.9998 49.4021 73.6226C49.6764 72.7656 49.8135 72.2513 49.8135 72.0799C49.6078 72.0799 49.4707 71.8399 49.4021 71.36C50.0878 70.5372 50.7392 70.1258 51.322 70.1258ZM53.6875 64.949C55.4017 65.0519 56.8759 65.0862 58.0415 65.0862H58.4529C58.83 65.0862 59.3442 65.0519 59.9956 64.949C60.0985 65.0519 60.4756 65.0862 61.127 65.0862L61.4012 64.949L61.6755 65.0862L62.3611 64.949V65.0862C62.5326 64.9833 62.704 64.949 62.7725 64.949C63.3211 65.0519 63.6296 65.189 63.6296 65.3604V65.4976C63.0468 65.4976 62.6697 65.909 62.4983 66.7318C62.3269 66.7318 61.984 67.1089 61.4012 67.8631C60.9555 67.8631 59.5157 68.2059 57.0473 68.8573L55.8131 68.9944C55.7445 68.9944 55.436 68.9602 54.956 68.8573C54.8874 68.8573 54.6132 68.8916 54.0989 68.9944C52.5219 68.8916 51.7334 68.6173 51.7334 68.1374C51.8362 68.1374 52.0762 67.7602 52.4533 67.006V66.7318L52.1791 66.3204V66.0461C52.5562 65.8061 52.7276 65.5661 52.7276 65.3262C52.7962 65.3947 53.139 65.2576 53.6875 64.949Z" fill="#787878"/>
<path d="M75.0791 75.5767C77.2046 75.5767 78.2674 75.7482 78.2674 76.1253V76.2624H77.7189C77.2046 76.2624 76.7247 76.6395 76.3133 77.3937C75.9361 77.3937 75.5247 77.7708 75.0791 78.4908C74.5648 78.4222 74.1877 78.3537 73.9477 78.3537C70.588 79.2793 68.2225 79.725 66.8169 79.725H66.2683L65.5827 79.5878C65.5827 79.7593 65.4798 79.8621 65.3084 79.8621H62.8057C62.1544 79.8621 61.8115 79.6221 61.8115 79.1422L62.2229 78.4222C62.1201 78.4222 62.0858 78.3879 62.0858 78.2851C62.2572 78.1822 62.3943 78.148 62.4972 78.148C62.4972 78.0108 62.3258 77.7023 61.9487 77.1538C62.8057 76.5367 63.2171 76.1595 63.2171 76.0224C64.0742 75.851 64.7942 75.7481 65.3084 75.7481H68.2567L68.9767 75.611V75.7481C69.0795 75.7481 69.1138 75.7139 69.1138 75.611C71.9593 75.6453 73.9477 75.5767 75.0791 75.5767ZM67.2282 70.1257L67.5025 70.2628C67.6054 70.2628 67.6396 70.2286 67.6396 70.1257L68.6339 70.2628H72.5421C73.3306 70.2628 74.5991 70.2971 76.3133 70.4L76.4504 70.6743C76.3133 70.6743 75.5248 71.497 74.0849 73.1769L73.5363 73.0398C71.3765 73.794 69.7652 74.1711 68.6339 74.1711C68.531 74.1711 68.3939 74.1368 68.2225 74.034C67.7082 74.1368 67.2968 74.1711 66.954 74.1711H65.8569C65.7198 74.1711 65.5141 73.9997 65.3084 73.6226C65.5827 72.7655 65.7198 72.2513 65.7198 72.0798C65.5141 72.0798 65.377 71.8399 65.3084 71.3599C65.9941 70.5371 66.6454 70.1257 67.2282 70.1257ZM69.6281 64.949C71.3422 65.0518 72.8164 65.0861 73.982 65.0861H74.3934C74.7705 65.0861 75.2848 65.0518 75.9361 64.949C76.039 65.0518 76.4161 65.0861 77.0675 65.0861L77.3418 64.949L77.616 65.0861L78.3017 64.949V65.0861C78.4731 64.9833 78.6445 64.949 78.7131 64.949C79.2616 65.0518 79.5702 65.189 79.5702 65.3604V65.4975C78.9873 65.4975 78.6102 65.9089 78.4388 66.7317C78.2674 66.7317 77.9246 67.1088 77.3418 67.863C76.8961 67.863 75.4562 68.2059 72.9878 68.8573L71.7536 68.9944C71.685 68.9944 71.3765 68.9601 70.8965 68.8573C70.828 68.8573 70.5537 68.8915 70.0395 68.9944C68.4624 68.8915 67.6739 68.6173 67.6739 68.1373C67.7768 68.1373 68.0168 67.7602 68.3939 67.006V66.7317L68.1196 66.3203V66.046C68.4967 65.8061 68.6681 65.5661 68.6681 65.3261C68.7367 65.3947 69.0452 65.2575 69.6281 64.949Z" fill="#787878"/>
<path d="M96.5414 61.7955L96.7128 62.104C96.7128 62.2412 96.3014 62.4126 95.5129 62.7211C95.5129 63.0639 94.9301 63.8525 93.7302 65.1209H92.8388C90.199 65.6352 88.7249 66.0466 88.4849 66.3208C88.4849 66.8694 86.4965 70.6405 82.4853 77.5657C80.9083 80.7883 79.537 83.1881 78.3028 84.7651L77.9257 84.9023H77.7543L77.4457 84.7651L77.6171 84.4566V83.8395C77.6171 83.7367 77.5143 83.3595 77.3086 82.6396C77.3429 82.4339 77.4457 82.331 77.6171 82.331L77.3086 80.0684C78.0628 79.2799 79.3313 76.4344 81.0454 71.5319L83.6167 66.8694H81.9711C80.5655 66.8008 79.8798 66.5608 79.8798 66.1152L80.7712 64.9152C80.7712 64.8124 80.6683 64.4353 80.4969 63.7153C81.2511 62.9268 82.4511 62.5154 84.0624 62.5154L89.7876 62.0698V62.2069L90.0962 62.0698H91.2961C92.496 62.104 94.2444 62.0012 96.5414 61.7955Z" fill="#787878"/>
<path d="M108.883 53.8758H109.192C109.192 54.1501 109.5 54.4929 110.083 54.9386V55.2471H110.255C110.597 55.2471 110.94 55.11 111.317 54.8014C111.523 54.8357 111.626 54.9386 111.626 55.11C111.42 55.9328 111.317 56.4813 111.317 56.7899H111.489C111.489 58.1612 109.672 61.7266 106.003 67.4862V67.6576C108.506 66.1149 110.117 65.3606 110.872 65.3606C111.077 65.4635 111.214 65.532 111.317 65.532V65.8406H111.009L111.146 66.1491C110.872 66.8691 110.666 67.2119 110.529 67.2119C110.632 67.6233 110.94 67.829 111.454 67.829V68.309C111.009 68.7204 110.769 69.1318 110.7 69.5432C108.677 71.2916 106.895 72.4572 105.352 73.04C106.072 74.2399 107.135 78.0111 108.575 84.3534V84.4906L108.266 84.662H108.129C107.923 83.2564 107.306 82.5364 106.312 82.5364C106.312 82.0222 105.763 81.4737 104.632 80.8566C104.358 79.2453 103.466 77.2226 101.889 74.7542H101.718C96.3356 84.6963 93.3187 89.9416 92.7359 90.4558H92.5645V90.2844C92.5645 90.113 92.6673 89.5645 92.873 88.6045C92.6673 87.9532 92.5645 87.5418 92.5645 87.3703L93.0101 86.479C93.0101 86.3761 92.9416 86.2047 92.8387 86.0333C92.8387 84.3191 93.2844 82.9821 94.21 82.0565C97.4326 74.2399 100.45 68.2404 103.226 64.0579C103.569 63.0979 105.455 59.7382 108.883 53.8758Z" fill="#787878"/>
<path d="M112.62 69.8516C112.791 69.8516 113.306 70.263 114.197 71.1201H114.985C114.985 71.3601 115.157 71.8058 115.465 72.4228C115.191 73.3828 113.751 76.1254 111.18 80.6851C111.18 80.8222 110.871 81.5079 110.22 82.7421H109.74V82.2621C109.74 82.0221 109.329 81.0965 108.472 79.4166C108.78 78.6624 109.26 76.8111 109.912 73.8285C111.146 71.6001 112.071 70.263 112.62 69.8516ZM116.46 61.1094C116.46 61.5894 116.974 62.4465 118.037 63.6807L117.865 64.4692V64.6406C117.865 64.9492 117.934 65.1206 118.037 65.1206C118.037 67.7946 117.282 69.5774 115.808 70.5373C115.328 70.0916 114.471 69.4402 113.237 68.6174C113.237 68.0689 113.134 67.8289 112.928 67.8289L116.117 61.1437H116.46V61.1094Z" fill="#787878"/>
<path d="M126.06 64.4693C128.734 64.4693 130.38 65.5663 130.997 67.7947V68.6518C130.997 68.8232 130.894 68.9261 130.688 68.9261C130.688 68.1376 130.243 67.4519 129.386 66.9034L129.077 67.0748H128.803L128.22 66.6291H128.083V67.2119L128.357 67.6233V67.7947L128.22 68.069L127.226 67.9319H127.054L123.729 69.0632C122.152 70.5031 121.192 72.1487 120.815 74C120.815 75.4742 121.775 76.7426 123.729 77.7711C124.243 78.0454 124.929 78.1825 125.752 78.1825C127.809 78.1825 129.214 77.0855 129.934 74.8571V74.4114H130.243V74.8571H130.38L130.517 73.8286V72.8344H130.654C130.826 72.8344 131.168 73.8971 131.683 76.0227C131.683 76.1941 131.477 76.5712 131.1 77.1883L131.237 77.4626C130.654 79.4853 129.969 80.5138 129.214 80.5138C128.357 81.3023 127.02 81.6794 125.169 81.6794H124.723C121.055 81.6794 118.449 79.5538 116.907 75.3027C116.804 74.6514 116.77 74.1028 116.77 73.7257V72.1487C117.387 69.6117 118.518 67.7262 120.095 66.492C122.221 65.1207 124.175 64.4693 126.06 64.4693Z" fill="#787878"/>
<path d="M145.257 53.8758H145.566C145.566 54.1501 145.874 54.4929 146.457 54.9386V55.2471H146.629C146.971 55.2471 147.314 55.11 147.691 54.8014C147.897 54.8357 148 54.9386 148 55.11C147.794 55.9328 147.691 56.4813 147.691 56.7899H147.863C147.863 58.1612 146.046 61.7266 142.377 67.4862V67.6576C144.88 66.1149 146.491 65.3606 147.246 65.3606C147.451 65.4635 147.588 65.532 147.691 65.532V65.8406H147.383L147.52 66.1491C147.246 66.8691 147.04 67.2119 146.903 67.2119C147.006 67.6233 147.314 67.829 147.828 67.829V68.309C147.383 68.7204 147.143 69.1318 147.074 69.5432C145.052 71.2916 143.269 72.4572 141.726 73.04C142.446 74.2399 143.509 78.0111 144.949 84.3534V84.4906L144.64 84.662H144.503C144.297 83.2564 143.68 82.5364 142.686 82.5364C142.686 82.0222 142.137 81.4737 141.006 80.8566C140.732 79.2453 139.84 77.2226 138.263 74.7542H138.092C132.71 84.6963 129.693 89.9416 129.11 90.4558H128.938V90.2844C128.938 90.113 129.041 89.5645 129.247 88.6045C129.041 87.9532 128.938 87.5418 128.938 87.3703L129.384 86.479C129.384 86.3761 129.316 86.2047 129.213 86.0333C129.213 84.3191 129.658 82.9821 130.584 82.0565C133.807 74.2399 136.824 68.2404 139.601 64.0579C139.943 63.0979 141.795 59.7382 145.257 53.8758Z" fill="#787878"/>
</svg>
