<svg width="301" height="92" viewBox="0 0 301 92" fill="none" xmlns="http://www.w3.org/2000/svg">
<path d="M31.8176 35.832H87.4115L93.5049 1.33887H115.018L99.209 91.3361H77.6959L84.3056 53.7265H28.7117L22.102 91.3361H0.588867L16.3979 1.33887H37.911L31.8176 35.832Z" fill="white"/>
<path d="M159.117 71.0534L141.227 72.1204C133.017 72.6116 131.054 73.9243 130.394 77.5405L129.903 80.5807H177.829L175.942 91.336H114.39L116.692 78.3619C118.249 69.4104 122.684 61.7716 140.406 60.7893L158.703 59.8069C166.497 59.4004 169.451 56.6057 169.451 49.9493C169.451 46.3332 166.988 45.1052 159.354 45.1052H149.842C136.707 45.1052 135.81 47.1546 134.329 55.3693H120.704C122.845 43.3776 126.458 34.3414 144.84 34.3414H165.355C178.489 34.3414 183.491 37.2123 183.491 46.2485C183.491 48.2217 183.246 50.6014 182.755 53.2267C180.622 65.2184 171.347 70.3081 159.117 71.0534Z" fill="white"/>
<path d="M256.893 91.3358H217.37C197.287 91.3358 188.731 85.1113 188.731 70.3249C188.731 67.471 188.993 64.2274 189.637 60.6028L194.562 32.3342C198.971 7.69863 208.949 0.30542 233.441 0.30542H272.964C291.498 0.30542 300.951 4.97171 300.951 21.1809C300.951 24.4244 300.562 28.0575 299.783 32.3342L294.858 60.6028C290.838 83.0365 282.028 91.3358 256.893 91.3358ZM210.887 64.1004C210.887 71.3666 215.034 73.4329 225.664 73.4329H254.176C267.911 73.4329 271.542 70.452 273.743 58.257L278.016 34.265C278.406 31.9277 278.668 29.8529 278.668 28.1676C278.668 20.2578 274.132 18.1829 263.638 18.1829H235.904C222.431 18.1829 218.022 21.5535 215.821 34.3921L211.547 58.384C211.141 60.6028 210.887 62.4151 210.887 64.1004Z" fill="white"/>
</svg>
