<svg width="301" height="100" viewBox="0 0 301 100" fill="none" xmlns="http://www.w3.org/2000/svg">
<path d="M32.6249 44.2702V33.2568H60.9785V59.2373C57.4924 62.3436 53.4253 64.7357 49.0096 66.2806C43.9464 68.274 38.5679 69.3039 33.1229 69.3205C26.9143 69.47 20.7556 67.9916 15.294 65.0347C10.2973 62.244 6.29655 57.9416 3.87288 52.7588C1.3164 47.3434 0.00496601 41.4297 0.0547674 35.4329C-0.0614359 29.1371 1.39941 22.9078 4.32109 17.3263C7.12657 12.0936 11.4925 7.85766 16.8046 5.19981C21.6686 2.85758 27.0139 1.71138 32.4091 1.87749C40.4935 1.87749 46.8183 3.57188 51.3502 6.97725C55.932 10.3992 59.0694 15.4159 60.1319 21.0473L47.0673 23.4892C46.2705 20.4492 44.4278 17.7748 41.888 15.9143C39.1157 13.9707 35.7956 13.0073 32.4091 13.1235C27.2629 12.8744 22.2496 14.8677 18.6971 18.6054C15.3106 22.2931 13.6174 27.7251 13.6008 34.9179C13.6008 42.6755 15.3272 48.473 18.7635 52.3269C22.1666 56.1974 27.1301 58.3569 32.2763 58.1741C35.115 58.1409 37.937 57.5761 40.5765 56.513C43.133 55.5495 45.5401 54.2206 47.7147 52.576V44.2702H32.6249Z" fill="white"/>
<path d="M77.665 68.2413V3.04089H125.972V14.071H90.8126V28.5231H123.516V39.5033H90.8126V57.2445H127.217V68.2247L77.665 68.2413Z" fill="white"/>
<path d="M143.264 68.2408V3.5719H156.411V57.2439H189.131V68.2242H143.264V68.2408Z" fill="white"/>
<path d="M6.69443 99.255V83.2082H0.651855V81.0487H15.0777V83.2082H9.0517V99.255H6.69443Z" fill="white"/>
<path d="M18.8628 99.2555V80.9828H32.027V83.1423H21.2699V88.7072H31.3463V90.8501H21.2699V97.0462H32.442V99.1891L18.8628 99.2555Z" fill="white"/>
<path d="M50.0225 92.876L52.4295 93.4907C52.0643 95.2681 51.1015 96.8794 49.7071 98.0423C48.3292 99.1054 46.636 99.6536 44.8929 99.6037C43.2163 99.6702 41.5562 99.2549 40.112 98.4077C38.8503 97.5605 37.8709 96.3479 37.3065 94.9359C36.6591 93.391 36.3437 91.7298 36.3437 90.0521C36.2939 88.3245 36.6757 86.6135 37.4393 85.0686C38.1033 83.7065 39.1824 82.5769 40.527 81.8626C41.8882 81.1317 43.3989 80.7496 44.9427 80.7662C46.5862 80.7164 48.1964 81.1981 49.5244 82.145C50.8027 83.1251 51.7157 84.5038 52.1307 86.0653L49.7569 86.6301C49.458 85.5005 48.8106 84.4872 47.9142 83.7231C47.0344 83.1084 45.972 82.7928 44.8929 82.826C43.6479 82.7762 42.4194 83.1251 41.3736 83.8227C40.444 84.4872 39.7468 85.4341 39.3982 86.5304C38.6013 88.9889 38.6511 91.6468 39.5144 94.0887C39.8796 95.1518 40.61 96.0489 41.5562 96.6469C42.4859 97.2117 43.5483 97.5107 44.6439 97.5107C45.9221 97.5937 47.2004 97.1951 48.1964 96.3811C49.1758 95.4342 49.8233 94.205 50.0225 92.876Z" fill="white"/>
<path d="M56.7422 99.2555V80.9828H59.1493V88.458H68.6115V80.9828H71.0186V99.2555H68.6115V90.684H59.1493V99.2555H56.7422Z" fill="white"/>
<path d="M76.2808 99.2555V80.9828H78.7376L88.2995 95.2854V80.9828H90.607V99.2555H88.1335L78.5882 84.953V99.2555H76.2808Z" fill="white"/>
<path d="M95.1921 90.401C95.0427 87.8096 95.9225 85.2514 97.6324 83.2912C99.2592 81.5802 101.55 80.65 103.907 80.733C105.501 80.7164 107.078 81.1317 108.456 81.9291C109.784 82.7098 110.863 83.8726 111.544 85.2514C112.274 86.7796 112.639 88.4408 112.606 90.1352C112.639 91.8628 112.257 93.5738 111.477 95.1187C110.797 96.5306 109.684 97.6768 108.323 98.441C106.978 99.1885 105.451 99.5872 103.907 99.5706C102.281 99.6038 100.687 99.1719 99.309 98.3247C97.981 97.5439 96.9186 96.3811 96.238 95.0024C95.5407 93.5572 95.1755 91.9957 95.1921 90.401ZM97.6822 90.401C97.566 92.2947 98.1968 94.1552 99.4418 95.5838C100.587 96.8297 102.198 97.5107 103.891 97.4775C105.584 97.5273 107.227 96.8297 108.356 95.5672C109.618 94.0555 110.249 92.112 110.116 90.1352C110.149 88.8063 109.884 87.4773 109.369 86.2481C108.904 85.2015 108.14 84.3045 107.178 83.6899C106.182 83.0586 105.036 82.743 103.858 82.7763C102.231 82.7264 100.654 83.3244 99.4585 84.4374C98.064 86.0986 97.4166 88.2747 97.6822 90.4342V90.401Z" fill="white"/>
<path d="M116.874 99.2555V80.9828H119.281V97.0462H128.245V99.1891L116.874 99.2555Z" fill="white"/>
<path d="M131.645 90.4007C131.496 87.8093 132.376 85.2511 134.086 83.291C135.712 81.58 138.003 80.6497 140.36 80.7328C141.954 80.7162 143.531 81.1315 144.909 81.9288C146.237 82.7096 147.316 83.8724 147.997 85.2511C148.727 86.7794 149.092 88.4406 149.059 90.1349C149.092 91.8625 148.711 93.5735 147.93 95.1184C147.25 96.5304 146.137 97.6766 144.776 98.4407C143.415 99.1882 141.888 99.5869 140.344 99.5703C138.734 99.6035 137.14 99.1716 135.762 98.3244C134.434 97.5437 133.372 96.3809 132.691 95.0021C131.994 93.5569 131.629 91.9954 131.645 90.4007ZM134.135 90.4007C134.019 92.2944 134.65 94.1549 135.895 95.5835C137.04 96.8294 138.651 97.5105 140.344 97.4773C142.037 97.5271 143.681 96.8294 144.809 95.5669C146.071 94.0553 146.702 92.1117 146.569 90.1349C146.602 88.806 146.337 87.4771 145.822 86.2478C145.357 85.1847 144.594 84.3043 143.614 83.6896C142.618 83.0584 141.473 82.7428 140.294 82.776C138.667 82.7262 137.09 83.3242 135.895 84.4372C134.501 86.1149 133.87 88.2744 134.135 90.4339V90.4007Z" fill="white"/>
<path d="M161.945 92.1115V89.9852H169.648V96.7461C168.552 97.6432 167.324 98.3741 165.996 98.8724C164.767 99.3542 163.456 99.5867 162.128 99.5867C160.435 99.6033 158.758 99.2213 157.247 98.4405C155.82 97.7096 154.658 96.5468 153.927 95.1182C153.164 93.6232 152.782 91.9454 152.798 90.2676C152.782 88.54 153.164 86.8456 153.911 85.2841C154.575 83.8223 155.703 82.6263 157.114 81.8622C158.592 81.098 160.252 80.716 161.912 80.7492C163.124 80.7326 164.336 80.9319 165.481 81.3804C166.461 81.7459 167.324 82.3605 167.988 83.1579C168.652 84.0549 169.117 85.0682 169.366 86.148L167.191 86.746C166.992 85.9652 166.643 85.2177 166.178 84.5532C165.747 84.0051 165.166 83.5732 164.518 83.2908C163.721 82.9585 162.875 82.7924 162.012 82.809C161.032 82.7924 160.069 82.9585 159.156 83.3074C158.426 83.6064 157.762 84.0549 157.214 84.6363C156.733 85.1679 156.334 85.7659 156.069 86.4303C155.604 87.5932 155.355 88.839 155.371 90.1015C155.322 91.4969 155.62 92.8923 156.201 94.1713C156.716 95.2345 157.579 96.0817 158.642 96.5966C159.704 97.1282 160.866 97.394 162.045 97.394C163.091 97.394 164.136 97.1947 165.099 96.796C165.913 96.497 166.676 96.0651 167.357 95.5169V92.1946L161.945 92.1115Z" fill="white"/>
<path d="M179.603 99.2552V91.5475L172.581 81.049H175.519L179.105 86.5474C179.769 87.5773 180.383 88.5906 180.947 89.6205C181.495 88.6737 182.159 87.5939 182.939 86.4145L186.459 81.049H189.297L182.043 91.5475V99.2552H179.603Z" fill="white"/>
<path d="M255.224 16.5954C259.615 16.5954 263.175 13.033 263.175 8.63847C263.175 4.24397 259.615 0.681519 255.224 0.681519C250.832 0.681519 247.272 4.24397 247.272 8.63847C247.272 13.033 250.832 16.5954 255.224 16.5954Z" fill="white"/>
<path d="M223.414 89.0052C227.806 89.0052 231.366 85.4428 231.366 81.0483C231.366 76.6538 227.806 73.0913 223.414 73.0913C219.022 73.0913 215.462 76.6538 215.462 81.0483C215.462 85.4428 219.022 89.0052 223.414 89.0052Z" fill="white"/>
<path d="M286.642 89.0052C291.034 89.0052 294.594 85.4428 294.594 81.0483C294.594 76.6538 291.034 73.0913 286.642 73.0913C282.25 73.0913 278.69 76.6538 278.69 81.0483C278.69 85.4428 282.25 89.0052 286.642 89.0052Z" fill="white"/>
<path d="M255.22 67.2939C264.177 67.2939 271.439 60.0277 271.439 51.0644C271.439 42.101 264.177 34.8348 255.22 34.8348C246.263 34.8348 239.001 42.101 239.001 51.0644C239.001 60.0277 246.263 67.2939 255.22 67.2939Z" fill="white"/>
<path d="M244.579 11.0138C244.413 10.3161 244.33 9.60177 244.296 8.87086C244.28 8.67153 244.28 8.45557 244.296 8.23962C219.894 14.1035 204.87 38.6554 210.747 63.0578C211.677 66.9117 213.104 70.6327 214.997 74.1211C215.611 73.3902 216.325 72.7424 217.088 72.1942C206.182 51.2802 214.283 25.4824 235.183 14.5686C238.154 13.0238 241.325 11.8277 244.579 11.0138Z" fill="white"/>
<path d="M266.325 8.43945C266.325 8.58896 266.325 8.73846 266.325 8.88797C266.358 9.68532 266.292 10.4661 266.126 11.2468C288.869 17.4097 302.332 40.8486 296.173 63.6231C295.409 66.4637 294.347 69.2212 293.002 71.8459C293.766 72.4106 294.463 73.0917 295.077 73.8392C306.864 51.6794 298.464 24.1374 276.319 12.3432C273.148 10.6322 269.795 9.33648 266.325 8.43945Z" fill="white"/>
<path d="M278.512 88.0752C264.369 97.4607 246.025 97.5604 231.782 88.341C231.135 89.0553 230.404 89.6699 229.607 90.2015C245.046 100.6 265.249 100.517 280.587 89.9855C279.824 89.4373 279.127 88.8061 278.512 88.0752Z" fill="white"/>
</svg>
