<svg width="85" height="16" viewBox="0 0 85 16" fill="none" xmlns="http://www.w3.org/2000/svg">
<g clip-path="url(#clip0_396_6168)">
<path d="M13.9217 0V10.6946C13.9217 11.9092 13.8605 12.7609 13.7584 13.2496C13.6359 13.7382 13.3093 14.2408 12.7378 14.7574C12.1662 15.274 11.4109 15.6649 10.4923 15.9302C9.55331 16.1955 8.47142 16.3351 7.20581 16.3351C5.81772 16.3351 4.57253 16.1815 3.51105 15.8604C2.44957 15.5393 1.63305 15.1344 1.10231 14.6178C0.571566 14.1152 0.26537 13.5707 0.163305 13.0122C0.0408261 12.4538 0 11.281 0 9.46597V0H6.08309V12.007C6.08309 12.7051 6.14433 13.1518 6.2464 13.3473C6.34846 13.5428 6.57301 13.6405 6.92003 13.6405C7.30788 13.6405 7.55283 13.5288 7.6549 13.3194C7.75696 13.1099 7.8182 12.5934 7.8182 11.7976V0H13.9217Z" fill="white"/>
<path d="M29.8641 0V16H24.5363L21.3723 8.726V16H16.269V0H21.3519L24.7609 7.20419V0H29.8641Z" fill="white"/>
<path d="M32.314 0H42.6226V3.19721H38.3971V6.22688H42.1531V9.27051H38.3971V15.986H32.314V0Z" fill="white"/>
<path d="M44.0923 0H54.2376V3.19721H50.1754V6.22688H53.9722V9.27051H50.1754V12.7888H54.6458V15.986H44.0923V0Z" fill="white"/>
<path d="M66.8935 0L70.3637 16H64.1377L63.8315 13.1239H61.6473L61.2799 16H54.9927L58.1159 0H66.8935ZM63.6682 10.2897C63.362 8.47469 63.0558 6.24084 62.7496 3.57417C62.1372 6.63176 61.7494 8.87958 61.5861 10.2897H63.6682Z" fill="white"/>
<path d="M71.4048 0H75.7119C78.5902 0 80.5294 0.069808 81.5501 0.223386C82.5707 0.376963 83.3873 0.767888 84.0405 1.3822C84.6733 2.01047 84.9999 3.00175 84.9999 4.35602C84.9999 5.5986 84.7753 6.4363 84.3263 6.86911C83.8772 7.30192 82.979 7.55323 81.6521 7.637C82.8565 7.84642 83.673 8.11169 84.0813 8.46073C84.4896 8.80977 84.7549 9.11693 84.857 9.41012C84.9591 9.70332 84.9999 10.4852 84.9999 11.7836V16H79.3455V10.6806C79.3455 9.82897 79.2434 9.29843 79.0393 9.08901C78.8351 8.87958 78.3248 8.78185 77.4879 8.78185V16H71.4048V0ZM77.4879 2.73647V6.29668C78.1819 6.29668 78.6514 6.22688 78.9168 6.10122C79.1822 5.97557 79.3251 5.55672 79.3251 4.84468V3.9651C79.3251 3.46248 79.2026 3.1274 78.9372 2.95986C78.6923 2.82024 78.2023 2.73647 77.4879 2.73647Z" fill="white"/>
</g>
<defs>
<clipPath id="clip0_396_6168">
<rect width="85" height="16" fill="white"/>
</clipPath>
</defs>
</svg>
