<svg width="301" height="58" viewBox="0 0 301 58" fill="none" xmlns="http://www.w3.org/2000/svg">
<path d="M0.0483398 20.2872C0.0483398 18.7604 0.618598 17.4263 1.76682 16.285C2.90733 15.1438 4.24049 14.5654 5.76631 14.5654H38.109C39.6349 14.5654 40.968 15.1361 42.1085 16.285C43.2491 17.4263 43.827 18.7681 43.827 20.2872V51.7494C43.827 53.2762 43.2568 54.6103 42.1085 55.7515C40.968 56.8928 39.6272 57.4712 38.109 57.4712H5.76631C4.24049 57.4712 2.90733 56.9005 1.76682 55.7515C0.626304 54.6103 0.0483398 53.2762 0.0483398 51.7494V20.2872ZM26.6731 45.0482V26.9883H17.2022V45.0482H26.6731Z" fill="white"/>
<path d="M49.1309 14.5654H87.1839C88.7097 14.5654 90.0428 15.1361 91.1834 16.285C92.3239 17.4263 92.9018 18.7681 92.9018 20.2872V57.4712H75.7556V26.9883H66.2848V57.4712H49.1386V14.5654H49.1309Z" fill="white"/>
<path d="M98.2041 20.287C98.2041 18.7601 98.7744 17.4261 99.9226 16.2848C101.063 15.1435 102.396 14.5652 103.922 14.5652H136.265C137.791 14.5652 139.124 15.1358 140.264 16.2848C141.405 17.4261 141.983 18.7678 141.983 20.287V35.5708C141.983 37.0976 141.413 38.4317 140.264 39.573C139.124 40.7142 137.783 41.2926 136.265 41.2926H115.358V45.0557H141.983L136.265 57.4786H103.922C102.396 57.4786 101.063 56.908 99.9226 55.759C98.7821 54.6177 98.2041 53.2837 98.2041 51.7568V20.287ZM124.829 31.8077V26.9881H115.358V31.8077H124.829Z" fill="white"/>
<path d="M147.042 0.260376H189.017C190.489 0.260376 191.807 0.830998 192.978 1.97998C194.15 3.12126 194.735 4.46303 194.735 5.98216V31.7225C194.735 33.3034 194.15 34.6528 192.978 35.771C191.807 36.8891 190.489 37.4443 189.017 37.4443H164.196V57.4629H147.042V0.260376ZM177.589 27.9671V12.6833H164.196V27.9671H177.589Z" fill="white"/>
<path d="M198.332 0.260376H240.223C241.749 0.260376 243.082 0.830998 244.222 1.97998C245.363 3.12126 245.941 4.46303 245.941 5.98216V27.8823C245.941 29.4091 245.37 30.7432 244.222 31.8844C243.082 33.0257 241.741 33.6041 240.223 33.6041H236.878L247.821 57.4629H232.632L217.359 24.1191H228.794V12.6756H215.486V57.4552H198.34V0.260376H198.332Z" fill="white"/>
<path d="M252.718 5.98216C252.718 4.45532 253.304 3.12126 254.475 1.97998C255.647 0.838709 256.964 0.260376 258.436 0.260376H294.694C296.166 0.260376 297.483 0.830998 298.655 1.97998C299.826 3.12126 300.412 4.46303 300.412 5.98216V51.7488C300.412 53.3296 299.826 54.6791 298.655 55.7972C297.483 56.9154 296.166 57.4706 294.694 57.4706H258.436C256.964 57.4706 255.647 56.9154 254.475 55.7972C253.304 54.6791 252.718 53.3296 252.718 51.7488V5.98216ZM283.265 45.0477V12.6833H269.872V45.0477H283.265Z" fill="white"/>
</svg>
