<svg width="20" height="20" viewBox="0 0 20 20" fill="none" xmlns="http://www.w3.org/2000/svg">
<g clip-path="url(#clip0_314_291)">
<path d="M15.4827 12.453C14.3165 12.453 13.2725 12.985 12.5798 13.8189L8.07359 11.2605C8.21372 10.8661 8.29074 10.4421 8.29074 10.0003C8.29074 9.55848 8.21372 9.13448 8.07359 8.74014L12.5794 6.18108C13.2721 7.01526 14.3163 7.54744 15.4826 7.54744C17.5629 7.54744 19.2554 5.85434 19.2554 3.77315C19.2555 1.69257 17.5631 0 15.4827 0C13.4022 0 11.7095 1.69257 11.7095 3.77306C11.7095 4.21493 11.7864 4.63902 11.9267 5.03345L7.42055 7.5926C6.72791 6.75885 5.68397 6.22703 4.51803 6.22703C2.43719 6.22703 0.744263 7.9196 0.744263 10.0002C0.744263 12.0807 2.43719 13.7732 4.51803 13.7732C5.68397 13.7732 6.72782 13.2414 7.42046 12.4078L11.9267 14.9663C11.7864 15.3607 11.7094 15.7849 11.7094 16.2269C11.7094 18.3073 13.4021 19.9999 15.4827 19.9999C17.563 19.9999 19.2555 18.3072 19.2555 16.2269C19.2555 14.146 17.5631 12.453 15.4827 12.453ZM15.4827 1.32033C16.835 1.32033 17.9352 2.4206 17.9352 3.77306C17.9352 5.12622 16.835 6.22703 15.4827 6.22703C14.1302 6.22703 13.0298 5.12622 13.0298 3.77306C13.0298 2.4206 14.1302 1.32033 15.4827 1.32033ZM4.51812 12.453C3.16531 12.453 2.06468 11.3526 2.06468 10.0003C2.06468 8.64772 3.16531 7.54744 4.51812 7.54744C5.8704 7.54744 6.97049 8.64772 6.97049 10.0003C6.97049 11.3526 5.87031 12.453 4.51812 12.453ZM15.4827 18.6797C14.1302 18.6797 13.0298 17.5793 13.0298 16.2269C13.0298 14.874 14.1302 13.7733 15.4827 13.7733C16.835 13.7733 17.9352 14.874 17.9352 16.2269C17.9352 17.5793 16.835 18.6797 15.4827 18.6797Z" fill="#272727"/>
</g>
<defs>
<clipPath id="clip0_314_291">
<rect width="20" height="20" fill="white"/>
</clipPath>
</defs>
</svg>
