<svg width="21" height="20" viewBox="0 0 21 20" fill="none" xmlns="http://www.w3.org/2000/svg">
<path d="M1.44343 8.45486C7.08164 5.77377 10.8404 4.00605 12.7198 3.15205C18.0922 0.713403 19.2071 0.289865 19.9353 0.275516C20.0954 0.272712 20.452 0.315923 20.6846 0.52126C20.878 0.694436 20.9324 0.928636 20.9596 1.09307C20.9838 1.25734 21.017 1.63173 20.9898 1.92398C20.6997 5.26215 19.4398 13.3628 18.7992 17.1018C18.5303 18.6838 17.9955 19.2142 17.4788 19.266C16.3548 19.3788 15.5027 18.4558 14.4149 17.6777C12.7138 16.4595 11.7529 15.7015 10.1002 14.513C8.19054 13.1395 9.42938 12.3845 10.5171 11.1508C10.8012 10.8279 15.7505 5.91461 15.8441 5.46898C15.8562 5.41323 15.8683 5.20542 15.7535 5.09591C15.6417 4.98606 15.4755 5.02367 15.3546 5.05335C15.1824 5.09558 12.466 7.05758 7.19646 10.939C6.42596 11.5176 5.72798 11.7996 5.0995 11.7848C4.41059 11.7686 3.08111 11.3586 2.09306 11.0083C0.884445 10.5785 -0.0794292 10.3512 0.00517413 9.62124C0.0474758 9.24124 0.527902 8.85234 1.44343 8.45486V8.45486Z" fill="#272727"/>
</svg>
