<svg width="35" height="22" viewBox="0 0 35 22" fill="none" xmlns="http://www.w3.org/2000/svg">
<path d="M1.4 0C0.626955 0 0 0.62735 0 1.40127V20.5987C0 21.3726 0.62727 22 1.4 22H33.6C34.373 22 35 21.3727 35 20.5987V1.40127C35 0.627385 34.3727 0 33.6 0H1.4ZM20.9037 6.55642C21.7556 6.55642 22.4383 6.74475 22.8736 6.91988L22.5761 8.79299L22.3792 8.69336C21.9737 8.51824 21.4528 8.3497 20.7342 8.36165C19.8741 8.36165 19.4764 8.7457 19.4764 9.10502C19.4714 9.50989 19.941 9.7769 20.709 10.1768C21.9766 10.7937 22.5625 11.5417 22.5542 12.525C22.5372 14.3192 21.0379 15.4786 18.7283 15.4786C17.7429 15.4678 16.7936 15.259 16.2805 15.0177L16.5889 13.0822L16.8722 13.2201C17.5938 13.5429 18.0611 13.6734 18.9405 13.6734C19.572 13.6734 20.2498 13.4087 20.2552 12.8293C20.2593 12.451 19.9718 12.1812 19.1165 11.7576C18.2831 11.344 17.1782 10.6514 17.1905 9.40934C17.2035 7.72918 18.7327 6.55642 20.9037 6.55642ZM3.09529 6.83121H6.64234C7.11998 6.84929 7.50561 7.00322 7.63875 7.522L8.40329 11.4718C8.40339 11.4722 8.40315 11.4736 8.40329 11.474L8.63296 12.6575L10.7865 6.83121H13.1163L9.65342 15.3593L7.32592 15.3615L5.47312 8.47988C6.57555 9.06446 7.51411 9.74082 8.05766 10.6716C7.91752 10.3771 7.73287 10.0446 7.49658 9.71696C7.22141 9.33539 6.62714 8.84274 6.37875 8.63314C5.5132 7.90283 4.33773 7.313 3.06796 7.0009L3.09529 6.83121ZM14.0427 6.84105H16.321L14.8958 15.356H12.6175L14.0427 6.84105ZM26.9106 6.84105H28.6366L30.4435 15.356H28.3719C28.3719 15.356 28.1664 14.3778 28.0995 14.0795C27.7739 14.0795 25.4967 14.0763 25.2405 14.0763C25.1538 14.3068 24.7702 15.356 24.7702 15.356H22.4263L25.7414 7.54828C25.9761 6.99344 26.3762 6.84105 26.9106 6.84105ZM27.0802 9.13126C26.9681 9.44798 26.7729 9.95945 26.7859 9.93699C26.7859 9.93699 26.0846 11.8091 25.9011 12.2951L27.744 12.294C27.5728 11.482 27.4015 10.6701 27.23 9.85824L27.0802 9.13133V9.13126Z" fill="#306678"/>
</svg>
