<svg width="27" height="19" viewBox="0 0 27 19" fill="none" xmlns="http://www.w3.org/2000/svg">
<path d="M13.1589 0.275391H13.3044C14.6479 0.280294 21.4554 0.329328 23.2909 0.822931C23.8457 0.973575 24.3514 1.26721 24.7572 1.67449C25.1631 2.08177 25.4549 2.58843 25.6036 3.14384C25.7687 3.76493 25.8847 4.58706 25.9632 5.43534L25.9795 5.60532L26.0155 6.03028L26.0286 6.20026C26.1348 7.69414 26.1479 9.09323 26.1495 9.39887V9.52146C26.1479 9.83854 26.1332 11.3324 26.0155 12.8884L26.0024 13.06L25.9877 13.23C25.906 14.1649 25.785 15.0933 25.6036 15.7765C25.4554 16.3321 25.1637 16.839 24.7578 17.2464C24.3518 17.6537 23.846 17.9472 23.2909 18.0974C21.3949 18.6073 14.1886 18.6433 13.19 18.6449H12.9579C12.4528 18.6449 10.364 18.6351 8.17387 18.5599L7.89601 18.5501L7.75381 18.5436L7.47432 18.5322L7.19483 18.5207C5.3806 18.4406 3.65299 18.3115 2.85701 18.0958C2.3021 17.9457 1.79636 17.6525 1.39046 17.2454C0.984564 16.8384 0.692755 16.3318 0.544271 15.7765C0.362847 15.0949 0.241898 14.1649 0.160176 13.23L0.1471 13.0584L0.134025 12.8884C0.0533608 11.7809 0.00866235 10.6711 0 9.56068L0 9.35965C0.00326889 9.00824 0.0163445 7.79385 0.104605 6.4536L0.116046 6.28525L0.120949 6.20026L0.134025 6.03028L0.169982 5.60532L0.186327 5.43534C0.26478 4.58706 0.380826 3.7633 0.545905 3.14384C0.694139 2.58821 0.985837 2.08131 1.39175 1.67396C1.79767 1.26661 2.30354 0.973123 2.85865 0.822931C3.65462 0.610452 5.38223 0.479696 7.19647 0.397974L7.47432 0.386533L7.75545 0.376727L7.89601 0.371823L8.1755 0.360382C9.73102 0.310326 11.2872 0.282538 12.8435 0.277025H13.1589V0.275391ZM10.4605 5.52196V13.3967L17.2549 9.46098L10.4605 5.52196Z" fill="#272727"/>
</svg>
