<svg width="27" height="23" viewBox="0 0 27 23" xmlns="http://www.w3.org/2000/svg">
<path d="M6.91869 15.28L3.61464 2.34286H0V0.309326H5.19407L5.97298 3.35904L27 3.34399L24.7645 15.2799H6.91869V15.28ZM6.49219 5.39222L8.49812 13.2465H23.0765L24.5499 5.3793L6.49219 5.39222Z"/>
<path d="M9.70245 22.6909C7.90932 22.6909 6.45049 21.2321 6.45049 19.4389C6.45049 17.6458 7.90932 16.187 9.70245 16.187H21.9546C23.7477 16.187 25.2065 17.6458 25.2065 19.4389C25.2065 21.2321 23.7477 22.6909 21.9546 22.6909C20.1614 22.6909 18.7026 21.2321 18.7026 19.4389C18.7026 19.0083 18.787 18.597 18.9397 18.2205H12.7174C12.8701 18.597 12.9544 19.0083 12.9544 19.4389C12.9544 21.2321 11.4956 22.6909 9.70245 22.6909ZM20.7361 19.4389C20.7361 20.1108 21.2827 20.6574 21.9546 20.6574C22.6264 20.6574 23.173 20.1108 23.173 19.4389C23.173 18.7671 22.6264 18.2205 21.9546 18.2205C21.2827 18.2205 20.7361 18.7671 20.7361 19.4389ZM8.484 19.4389C8.484 20.1108 9.03058 20.6574 9.70242 20.6574C10.3743 20.6574 10.9208 20.1108 10.9208 19.4389C10.9208 18.7671 10.3743 18.2205 9.70242 18.2205C9.03058 18.2205 8.484 18.7671 8.484 19.4389Z" />
</svg>
