<svg xmlns="http://www.w3.org/2000/svg" version="1.1" xmlns:xlink="http://www.w3.org/1999/xlink" xmlns:svgjs="http://svgjs.com/svgjs" width="512" height="512" x="0" y="0" viewBox="0 0 512 512" style="enable-background:new 0 0 512 512" xml:space="preserve" class=""><g>
<g>
	<g>
		<path d="M437.02,74.98C388.667,26.629,324.38,0,256,0S123.332,26.629,74.98,74.98C26.629,123.332,0,187.62,0,256
			s26.629,132.668,74.98,181.02C123.332,485.371,187.62,512,256,512s132.667-26.629,181.02-74.98
			C485.371,388.668,512,324.38,512,256S485.371,123.332,437.02,74.98z M256,482C131.383,482,30,380.617,30,256S131.383,30,256,30
			s226,101.383,226,226S380.617,482,256,482z" data-original="#000000" class=""></path>
	</g>
</g>
<g>
	<g>
		<path d="M431.621,200.335L310.27,182.701L256,72.737L201.73,182.7L80.378,200.334l87.811,85.594L147.46,406.79L256,349.727
			l108.54,57.063l-20.73-120.861L431.621,200.335z M256,315.833l-68.696,36.116l13.12-76.494l-55.577-54.173l76.805-11.161
			L256,140.524l34.348,69.596l76.805,11.161l-55.576,54.173l13.119,76.495L256,315.833z" data-original="#000000" class=""></path>
	</g>
</g>
</g>
</svg>