<svg width="34" height="34" viewBox="0 0 34 34" fill="none" xmlns="http://www.w3.org/2000/svg">
<path d="M26.016 9.3996C23.8046 7.19102 20.2076 7.19102 18.0005 9.3996L11.5773 15.8242C10.9072 16.4943 10.5389 17.3825 10.5389 18.3317C10.5389 19.278 10.9086 20.1663 11.5759 20.8364C12.2658 21.5249 13.1739 21.8705 14.082 21.8705C14.9886 21.8705 15.8939 21.5277 16.5852 20.8364L19.5914 17.8316C20.1453 17.272 20.4216 16.5509 20.4216 15.8284C20.4216 15.1031 20.1453 14.3792 19.5914 13.8253L14.5821 18.8332C14.3086 19.1094 13.8581 19.1094 13.5791 18.8304C13.3991 18.6504 13.3722 18.4408 13.3722 18.3317C13.3722 18.2212 13.3991 18.0101 13.5791 17.8302L20.0036 11.4028C21.1058 10.2992 22.905 10.2992 24.0128 11.4028C25.1164 12.5064 25.1164 14.3055 24.0128 15.4091L17.5854 21.8365L13.9941 25.4278C12.8906 26.5314 11.0914 26.5314 9.98782 25.4278C8.88282 24.3242 8.88282 22.525 9.98782 21.4214L10.1224 21.2854C9.48348 20.4354 9.1279 19.3602 9.1279 18.275L7.98465 19.4183C5.77465 21.6269 5.77465 25.2238 7.98465 27.4309C9.08823 28.5345 10.5403 29.0884 11.991 29.0884C13.4416 29.0884 14.8937 28.5345 15.9973 27.4309L26.016 17.4123C28.226 15.2037 28.226 11.6096 26.016 9.3996Z" fill="white"/>
</svg>
