<svg width="36" height="22" viewBox="0 0 36 22" fill="none" xmlns="http://www.w3.org/2000/svg">
<path d="M1.67511 3.52798e-05C0.750275 3.52798e-05 0 0.729748 0 1.6301V20.37C0 21.2701 0.750383 22 1.67511 22H34.3249C35.2497 22 36 21.2703 36 20.3699V1.63006C36 0.729853 35.2496 0 34.3249 0H1.67508L1.67511 3.52798e-05ZM11.8046 2.64823C13.8595 2.64823 15.7468 3.34392 17.2282 4.506C15.9818 5.59125 15.0522 7.01708 14.5935 8.6332H15.3124C15.7357 7.29996 16.5048 6.11294 17.5185 5.1716C18.5322 6.11294 19.3012 7.29996 19.7246 8.6332H20.4547C19.9897 7.02559 19.0587 5.60827 17.8132 4.5301C19.2975 3.35328 21.1922 2.64819 23.256 2.64819C28.0184 2.64819 31.8791 6.40542 31.8791 11.0405C31.8791 15.6756 28.0184 19.4328 23.256 19.4328C21.1579 19.4328 19.2341 18.7041 17.739 17.4918C19.0764 16.3596 20.0623 14.8418 20.5132 13.1151H19.8101C19.4097 14.5643 18.6039 15.8533 17.5184 16.8613C16.433 15.8533 15.6283 14.5643 15.2279 13.1151H14.5586C15.0121 14.8168 15.9852 16.3134 17.3024 17.4349C15.8101 18.6322 13.8938 19.3518 11.8046 19.3518C7.04213 19.3518 3.1815 15.6127 3.1815 11C3.1815 6.38738 7.04213 2.64823 11.8046 2.64823ZM22.6091 8.54779C21.573 8.54779 20.565 9.42926 20.565 11.0843C20.565 12.1818 21.1094 12.906 22.1805 12.906C22.4833 12.9061 22.9657 12.7856 22.9657 12.7856L23.1255 11.8266C23.1255 11.8266 22.6852 12.0433 22.383 12.0433C21.7463 12.0433 21.4909 11.5668 21.4909 11.0548C21.4909 10.016 22.0386 9.44436 22.6485 9.44436C23.1058 9.44436 23.4731 9.69617 23.4731 9.69617L23.6194 8.76345C23.6194 8.76345 23.0756 8.54779 22.6091 8.54779H22.6091ZM31.32 8.62882L30.4189 8.63099L30.2254 9.78487C30.2254 9.78487 29.8866 9.33709 29.3569 9.33709C28.5332 9.33709 27.8471 10.2893 27.8471 11.3843C27.8471 12.0911 28.2122 12.7844 28.9609 12.7844C29.4993 12.7844 29.7979 12.4243 29.7979 12.4243L29.7585 12.7319H30.6337L31.32 8.62882ZM5.51023 8.64084L4.7925 12.7538H5.65761L6.20438 9.65242L6.28538 12.7538H6.90411L8.05838 9.65242L7.54649 12.7538H8.46561L9.17437 8.64084H7.75238L6.86699 11.1642L6.82088 8.64087H5.51026L5.51023 8.64084ZM14.5485 8.90795C14.5289 8.92705 14.0254 11.7528 14.0254 12.0969C14.0254 12.6065 14.3189 12.8341 14.7319 12.8304C15.0278 12.828 15.257 12.7556 15.363 12.7253C15.3741 12.7224 15.3956 12.7166 15.3956 12.7166L15.507 11.9809C15.4464 11.9809 15.3572 12.0061 15.2786 12.0061C14.9703 12.0061 14.9361 11.8465 14.9557 11.728L15.2044 10.2271H15.6735L15.7871 9.41371H15.345L15.435 8.90795H14.5485ZM25.0054 9.32178C24.4015 9.32178 23.9389 9.51555 23.9389 9.51555L23.8106 10.2709C23.8106 10.2709 24.1927 10.1166 24.7702 10.1166C25.0981 10.1166 25.3383 10.1531 25.3383 10.4187C25.3383 10.5801 25.3091 10.6399 25.3091 10.6399C25.3091 10.6399 25.0498 10.618 24.93 10.618C24.1685 10.618 23.3685 10.9427 23.3685 11.9196C23.3685 12.6893 23.8937 12.8655 24.219 12.8655C24.8403 12.8655 25.1082 12.4638 25.1224 12.4626L25.0931 12.7976H25.8682L26.2147 10.3804C26.2148 9.35475 25.3171 9.32175 25.0054 9.32175V9.32178ZM10.4647 9.32616C9.8587 9.32616 9.39372 9.51993 9.39372 9.51993L9.26549 10.2753C9.26549 10.2753 9.64889 10.1209 10.2285 10.1209C10.5576 10.1209 10.7989 10.1576 10.7989 10.4231C10.7989 10.5844 10.7696 10.6442 10.7696 10.6442C10.7696 10.6442 10.5096 10.6223 10.3894 10.6223C9.62499 10.6223 8.82226 10.9466 8.82226 11.9229C8.82226 12.6922 9.34851 12.8688 9.67499 12.8688C10.2985 12.8688 10.5674 12.4671 10.5818 12.4659L10.5525 12.8009H11.331L11.6786 10.3848C11.6786 9.35972 10.7776 9.32613 10.4647 9.32613V9.32616ZM13.2142 9.32616C12.5634 9.32616 11.9025 9.58179 11.9025 10.4549C11.9025 11.4441 13.0039 11.3441 13.0039 11.7608C13.0039 12.039 12.6965 12.0619 12.4594 12.0619C12.049 12.0619 11.6799 11.9239 11.6786 11.9306L11.5605 12.6859C11.5817 12.6923 11.8103 12.7921 12.5483 12.7921C12.7464 12.7921 13.8791 12.8411 13.8791 11.693C13.8791 10.6196 12.8306 10.8324 12.8306 10.4012C12.8306 10.1865 13.0008 10.1188 13.3132 10.1188C13.4373 10.1188 13.9151 10.1571 13.9151 10.1571L14.0254 9.39402C14.0254 9.39413 13.717 9.32616 13.2143 9.32616H13.2142ZM17.2822 9.32616C16.3779 9.32634 15.7084 10.2726 15.7084 11.3416C15.7084 12.5754 16.5472 12.8688 17.262 12.8688C17.9217 12.8688 18.2126 12.7253 18.2126 12.7253L18.3701 11.8835C18.3701 11.8835 17.8682 12.0981 17.415 12.0981C16.4492 12.0981 16.6185 11.3985 16.6185 11.3985H18.4466C18.4466 11.3985 18.5647 10.8332 18.5647 10.6026C18.5647 10.0274 18.2697 9.32616 17.2823 9.32616H17.2822ZM20.5571 9.36228C20.1497 9.36228 19.8472 9.89543 19.8472 9.89543L19.9282 9.40607H19.0822L18.5141 12.7845H19.449C19.7138 11.3418 19.7621 10.1704 20.394 10.3848C20.5046 9.82638 20.6119 9.61066 20.7326 9.37433C20.7326 9.37433 20.6759 9.36228 20.5571 9.36228H20.5571ZM28.1317 9.36228C27.7243 9.36228 27.4219 9.89543 27.4219 9.89543L27.5029 9.40607H26.6569L26.0887 12.7845H27.0225C27.2874 11.3418 27.3369 10.1704 27.9686 10.3848C28.0794 9.82638 28.1866 9.61066 28.3072 9.37433C28.3072 9.37433 28.2505 9.36228 28.1317 9.36228H28.1317ZM17.2777 10.0881C17.7913 10.0881 17.6974 10.6523 17.6974 10.6979H16.686C16.686 10.6396 16.7817 10.0881 17.2778 10.0881H17.2777ZM29.4986 10.1538C29.8255 10.1537 29.9936 10.3686 29.9936 10.8741C29.9936 11.3328 29.7559 11.9459 29.2635 11.9459C28.9367 11.9459 28.7831 11.6832 28.7831 11.2715C28.7831 10.5983 29.0996 10.1538 29.4986 10.1538H29.4986ZM25.0065 11.3033C25.1398 11.3034 25.1674 11.316 25.1899 11.3219C25.1866 11.3214 25.186 11.322 25.1989 11.3241C25.2157 11.4745 25.1054 12.1802 24.5722 12.1802C24.2973 12.1802 24.2269 11.9674 24.2269 11.8419C24.2269 11.5971 24.3578 11.3033 25.0065 11.3033ZM10.4659 11.3065C10.6173 11.3067 10.6338 11.3232 10.6594 11.3274C10.6763 11.4777 10.5656 12.1823 10.0305 12.1823C9.75448 12.1823 9.68287 11.9706 9.68287 11.8452C9.68287 11.6005 9.81463 11.3065 10.4659 11.3065Z" fill="#306678"/>
</svg>
