<svg width="35" height="22" viewBox="0 0 35 22" fill="none" xmlns="http://www.w3.org/2000/svg">
<path fill-rule="evenodd" clip-rule="evenodd" d="M11.3217 11.5767C11.3217 12.3052 10.7325 12.8594 9.98535 12.8594C9.42655 12.8594 9.013 12.5489 9.013 11.9648C9.013 11.2363 9.5906 10.6519 10.3319 10.6519C10.8976 10.6519 11.3231 10.9926 11.3217 11.5767ZM4.89322 8.68304H4.60784L4.58733 8.68405L4.57229 8.68607C4.52957 8.69345 4.4889 8.71393 4.45916 8.74548C4.4349 8.77133 4.41781 8.80457 4.41302 8.84418L4.15156 10.438L4.65022 10.4199C4.83102 10.4199 5.00054 10.4132 5.15434 10.3887C5.18783 10.3833 5.22064 10.377 5.25243 10.3699C5.61574 10.2883 5.8748 10.0809 5.95615 9.5723C6.09627 8.772 5.57985 8.68304 4.89322 8.68304ZM22.1492 8.68304H21.8758C21.7664 8.68304 21.6933 8.74313 21.6813 8.84418L21.4263 10.438L21.912 10.4199C22.7015 10.4199 23.2483 10.2407 23.2483 9.3457C23.2418 8.71292 22.6656 8.68304 22.1492 8.68304ZM35 2.86481L34.999 19.1352C34.999 19.16 34.9986 19.1852 34.9979 19.2101V20.625C34.9979 21.3843 34.3711 22 33.598 22H32.0823H29.3983H5.59967H2.91672H1.39992C0.626819 22 0 21.3843 0 20.625V19.1352V18.5625V18.5521L0.00102533 3.48953L0 3.4375V1.375C0 0.615662 0.626819 0 1.39992 0H2.91809H5.59967H29.3983H32.0833H33.598C34.3711 0 34.9979 0.615662 34.9979 1.375V2.75739C34.9993 2.79297 35 2.82889 35 2.86481ZM7.79798 9.02243C7.79798 7.76862 6.81366 7.35101 5.68922 7.35101H3.25918C3.18058 7.35135 3.10504 7.38022 3.04694 7.43192C2.9885 7.48361 2.95158 7.55444 2.94304 7.63132L1.94676 13.7242C1.93582 13.7953 1.96385 13.8668 2.01443 13.9125C2.04861 13.9434 2.0927 13.9628 2.14157 13.9628H3.29644C3.3395 13.9628 3.38154 13.9507 3.42084 13.9303C3.4663 13.9064 3.50766 13.8705 3.54183 13.8282C3.5579 13.8084 3.57225 13.7869 3.58456 13.7644C3.60916 13.7195 3.62591 13.6704 3.63104 13.6221L3.90446 12.0346C3.92531 11.8889 4.02408 11.8097 4.15669 11.7687C4.41576 11.6888 4.80504 11.754 4.99814 11.754C6.73608 11.754 7.79901 10.7402 7.79798 9.02243ZM12.9144 9.54779H11.7592C11.5394 9.54779 11.5182 9.84622 11.5066 10.0141L11.5045 10.0376C11.1522 9.53033 10.6416 9.44037 10.064 9.44037C8.57552 9.44037 7.43912 10.7227 7.43912 12.1377C7.43912 13.3008 8.18077 14.0595 9.36537 14.0595C9.91221 14.0595 10.5923 13.7671 10.9751 13.3492C10.9625 13.3928 10.9516 13.4371 10.9427 13.4818C10.9269 13.5603 10.9174 13.6399 10.914 13.7198C10.914 13.7372 10.915 13.754 10.917 13.7701C10.9191 13.7856 10.9218 13.8004 10.9256 13.8145C10.929 13.8275 10.9334 13.84 10.9386 13.8517C10.944 13.8638 10.9502 13.8749 10.9574 13.8853C10.9892 13.9309 11.0391 13.9585 11.1084 13.9585H12.1543C12.3183 13.9585 12.4581 13.7856 12.4889 13.6177L13.1089 9.78076C13.1276 9.66696 13.0357 9.54779 12.9144 9.54779ZM15.3752 15.3902L19.2455 9.86334C19.2762 9.83347 19.2762 9.80325 19.2762 9.76263C19.2762 9.72604 19.2643 9.68878 19.2441 9.65588C19.2089 9.59781 19.1477 9.55417 19.0814 9.55417H17.9146C17.89 9.55518 17.8657 9.55853 17.8421 9.56458C17.8134 9.57196 17.7857 9.5827 17.7598 9.5968C17.7122 9.62265 17.6716 9.65924 17.6412 9.70355L16.0314 12.0312L15.3629 9.79352C15.3502 9.75928 15.3325 9.72739 15.3102 9.69852C15.2884 9.67032 15.2624 9.64514 15.233 9.62399C15.1988 9.59949 15.1609 9.58136 15.1205 9.56995C15.0908 9.56122 15.0597 9.55618 15.0283 9.55518H13.8919C13.8502 9.55518 13.8105 9.57263 13.7781 9.60016C13.7295 9.64078 13.6974 9.70322 13.6974 9.76364C13.6974 9.80527 14.0966 10.9416 14.452 11.9493L14.8157 12.9806C14.9028 13.2283 14.965 13.4073 14.9855 13.4697L14.9531 13.5147C14.828 13.6869 14.5043 14.133 14.2227 14.5449C14.0826 14.75 13.953 14.9464 13.8635 15.0965C13.7873 15.2244 13.7401 15.3184 13.7401 15.356C13.7401 15.4087 13.762 15.4557 13.7962 15.4899C13.8321 15.5255 13.8816 15.5473 13.9346 15.5473H15.1018C15.1311 15.5453 15.1602 15.5399 15.1882 15.5309C15.2026 15.5262 15.2169 15.5208 15.2309 15.5141L15.2566 15.501C15.3041 15.4741 15.3444 15.4372 15.3752 15.3902ZM25.0543 9.02243C25.0543 7.76862 24.07 7.35101 22.9455 7.35101H20.5329C20.4885 7.35068 20.4447 7.35907 20.4041 7.37518C20.3887 7.38123 20.374 7.38828 20.36 7.39633C20.3432 7.40607 20.3272 7.41748 20.3121 7.4299C20.251 7.48126 20.2103 7.55276 20.1983 7.63132L19.214 13.7188C19.2017 13.838 19.2926 13.9575 19.4085 13.9575H20.6543C20.7756 13.9575 20.8665 13.8682 20.8969 13.7661L21.1703 12.0356C21.2206 11.6835 21.7274 11.7204 22.0689 11.7452C22.1441 11.7506 22.2114 11.7553 22.264 11.7553C23.99 11.7553 25.0529 10.7412 25.0543 9.02243ZM30.1693 9.54779H29.0145C28.8032 9.54779 28.7752 9.82306 28.7578 9.99326L28.753 10.0376C28.6013 9.80762 28.4123 9.66327 28.1959 9.57431C27.9351 9.46722 27.6347 9.44037 27.3128 9.44037C25.824 9.44037 24.6879 10.7227 24.6879 12.1377C24.6879 13.3008 25.4292 14.0595 26.6138 14.0595C27.1791 14.0595 27.8596 13.7671 28.2236 13.3492C28.2051 13.4385 28.1624 13.6298 28.1624 13.7198C28.1624 13.8574 28.2236 13.9585 28.3572 13.9585H29.4082C29.5722 13.9585 29.712 13.7856 29.7428 13.6177L30.3628 9.78076C30.3723 9.72235 30.3529 9.6626 30.3153 9.61829C30.2982 9.59814 30.2773 9.58102 30.2541 9.56894C30.2285 9.55551 30.1997 9.54779 30.1693 9.54779ZM33.0556 7.56049C33.0556 7.44098 32.9647 7.35202 32.8608 7.35202H31.7367C31.6458 7.35202 31.5539 7.42386 31.5419 7.51315L30.5576 13.7198L30.5402 13.75C30.5402 13.8574 30.6307 13.9585 30.7524 13.9585H31.7552C31.9073 13.9585 32.0594 13.7856 32.0713 13.6177L33.0556 7.57861V7.56049ZM27.5872 10.6519C26.8455 10.6519 26.2683 11.231 26.2683 11.9648C26.2683 12.5435 26.6935 12.8594 27.2526 12.8594C27.6231 12.8594 27.9573 12.7177 28.1966 12.4824C28.4287 12.2542 28.5715 11.9379 28.5715 11.5767C28.578 10.9926 28.1525 10.6519 27.5872 10.6519Z" fill="#306678"/>
</svg>
