<svg width="26" height="26" viewBox="0 0 26 26" fill="none" xmlns="http://www.w3.org/2000/svg">
<path d="M24.1719 4.67188H1.82812C0.818391 4.67188 0 5.49027 0 6.5V19.5C0 20.5097 0.818391 21.3281 1.82812 21.3281H24.1719C25.1816 21.3281 26 20.5097 26 19.5V6.5C26 5.49027 25.1816 4.67188 24.1719 4.67188ZM9.58181 6.88634C11.0941 6.88634 12.324 8.11667 12.324 9.62853C12.324 11.14 11.0941 12.3699 9.58181 12.3699C8.07036 12.3699 6.84003 11.14 6.84003 9.62853C6.84003 8.11667 8.07016 6.88634 9.58181 6.88634ZM7.87191 18.878C7.65497 18.878 7.45103 18.7935 7.29747 18.64C7.14391 18.4864 7.05941 18.2825 7.05941 18.0655C7.05941 17.8486 7.14391 17.6442 7.29747 17.4911L17.4657 7.32245C17.7728 7.01533 18.3077 7.01533 18.6146 7.32245C18.7681 7.47602 18.8526 7.67995 18.8526 7.89689C18.8526 8.11383 18.7681 8.31817 18.6146 8.47133L8.44634 18.64C8.29278 18.7933 8.08884 18.878 7.87191 18.878ZM16.292 19.0803C14.7802 19.0803 13.5503 17.8504 13.5503 16.339C13.5503 14.8267 14.7802 13.5968 16.292 13.5968C17.8039 13.5968 19.0342 14.8267 19.0342 16.339C19.0342 17.8504 17.8039 19.0803 16.292 19.0803Z" fill="#F08235"/>
<path d="M16.2918 15.2205C15.6753 15.2205 15.1738 15.722 15.1738 16.3385C15.1738 16.9549 15.6753 17.4565 16.2918 17.4565C16.9083 17.4565 17.4098 16.9549 17.4098 16.3385C17.4098 15.722 16.9083 15.2205 16.2918 15.2205Z" fill="#F08235"/>
<path d="M9.58236 8.51001C8.96587 8.51001 8.46436 9.01193 8.46436 9.62842C8.46436 10.2447 8.96587 10.746 9.58236 10.746C10.1988 10.746 10.7004 10.2445 10.7004 9.62842C10.7004 9.01193 10.1988 8.51001 9.58236 8.51001Z" fill="#F08235"/>
</svg>
