<svg width="34" height="34" viewBox="0 0 34 34" fill="none" xmlns="http://www.w3.org/2000/svg">
<path fill-rule="evenodd" clip-rule="evenodd" d="M6.83333 29.75C5.26853 29.75 4 28.4815 4 26.9167C4 25.8679 4 8.13207 4 7.08333C4 5.51853 5.26853 4.25 6.83333 4.25C7.88207 4.25 25.6179 4.25 26.6667 4.25C28.2315 4.25 29.5 5.51853 29.5 7.08333C29.5 8.13207 29.5 25.8679 29.5 26.9167C29.5 28.4815 28.2315 29.75 26.6667 29.75C25.6179 29.75 7.88207 29.75 6.83333 29.75ZM23.8333 7.08333V9.91667H26.6667V7.08333H23.8333ZM16.75 24.0833C20.662 24.0833 23.8333 20.912 23.8333 17C23.8333 13.088 20.662 9.91667 16.75 9.91667C12.838 9.91667 9.66667 13.088 9.66667 17C9.66667 20.912 12.838 24.0833 16.75 24.0833ZM16.75 21.25C19.0972 21.25 21 19.3472 21 17C21 14.6528 19.0972 12.75 16.75 12.75C14.4028 12.75 12.5 14.6528 12.5 17C12.5 19.3472 14.4028 21.25 16.75 21.25Z" fill="white"/>
</svg>
