<svg width="10" height="12" viewBox="0 0 10 12" fill="none" xmlns="http://www.w3.org/2000/svg">
<path d="M9.08317 4.25008C9.08317 1.99491 7.255 0.166748 4.99984 0.166748C2.74467 0.166748 0.916504 1.99491 0.916504 4.25008C0.916504 5.05917 1.15567 5.81167 1.56109 6.44633H1.55642C2.93309 8.60175 4.99984 11.8334 4.99984 11.8334L8.44325 6.44633H8.43917C8.84401 5.81167 9.08317 5.05917 9.08317 4.25008ZM4.99984 6.00008C4.03325 6.00008 3.24984 5.21666 3.24984 4.25008C3.24984 3.2835 4.03325 2.50008 4.99984 2.50008C5.96642 2.50008 6.74984 3.2835 6.74984 4.25008C6.74984 5.21666 5.96642 6.00008 4.99984 6.00008Z" fill="white"/>
</svg>
