<svg width="40" height="40" viewBox="0 0 40 40" fill="none" xmlns="http://www.w3.org/2000/svg">
<path d="M19.9999 3.33337C29.2047 3.33337 36.6666 10.7953 36.6666 20C36.6666 29.2048 29.2047 36.6667 19.9999 36.6667C10.7952 36.6667 3.33325 29.2048 3.33325 20C3.33325 10.7953 10.7952 3.33337 19.9999 3.33337ZM15.0879 14.3091C15.03 14.4248 14.9999 14.5524 14.9999 14.6817V25.3183C14.9999 25.7786 15.373 26.1517 15.8333 26.1517C15.9626 26.1517 16.0902 26.1216 16.2059 26.0637L26.8425 20.7454C27.2542 20.5396 27.421 20.039 27.2152 19.6274C27.1346 19.4661 27.0038 19.3353 26.8425 19.2547L16.2059 13.9364C15.7943 13.7306 15.2937 13.8974 15.0879 14.3091Z" fill="#306678"/>
</svg>
