<svg width="13" height="13" viewBox="0 0 13 13" fill="none" xmlns="http://www.w3.org/2000/svg">
<path d="M9.1322 11.2352C8.33461 11.6794 7.43412 11.9167 6.49998 11.9167C3.50844 11.9167 1.08331 9.49158 1.08331 6.50004C1.08331 3.5085 3.50844 1.08337 6.49998 1.08337C9.49152 1.08337 11.9166 3.5085 11.9166 6.50004C11.9166 7.43418 11.6794 8.33468 11.2351 9.13226L11.4263 11.4263L9.1322 11.2352ZM8.87877 10.127L10.2404 10.2404L10.1269 8.87883L10.217 8.72899C10.6183 8.06135 10.8333 7.29712 10.8333 6.50004C10.8333 4.10681 8.89321 2.16671 6.49998 2.16671C4.10675 2.16671 2.16665 4.10681 2.16665 6.50004C2.16665 8.89327 4.10675 10.8334 6.49998 10.8334C7.29706 10.8334 8.06129 10.6184 8.72893 10.217L8.87877 10.127ZM6.50016 9.20748C6.2009 9.20748 5.95831 8.96497 5.95831 8.66581C5.95831 8.36666 6.2009 8.12415 6.50016 8.12415C6.79941 8.12415 7.042 8.36666 7.042 8.66581C7.042 8.96497 6.79941 9.20748 6.50016 9.20748ZM7.04165 7.58337H5.95831V7.04171C5.95831 6.64233 6.16563 6.3378 6.48779 6.08223C6.5847 6.00534 6.61382 5.98604 6.78921 5.87486C6.94552 5.77576 7.04165 5.60484 7.04165 5.41671C7.04165 5.11755 6.79913 4.87504 6.49998 4.87504C6.20083 4.87504 5.95831 5.11755 5.95831 5.41671H4.87498C4.87498 4.51924 5.60252 3.79171 6.49998 3.79171C7.39744 3.79171 8.12498 4.51924 8.12498 5.41671C8.12498 5.9798 7.83576 6.49408 7.36925 6.78982C7.23217 6.87673 7.21534 6.88788 7.16108 6.93092C7.07214 7.00148 7.04165 7.04627 7.04165 7.04171V7.58337Z" fill="#818181"/>
</svg>
