<svg width="302" height="83" viewBox="0 0 302 83" fill="none" xmlns="http://www.w3.org/2000/svg">
<path d="M45.5751 17.5L45.8548 18.057C45.5751 18.057 45.0856 18.5444 44.3862 19.5191C44.7359 19.5887 44.9457 19.7976 44.9457 20.0761C44.8058 20.0761 44.2464 20.6331 43.1974 21.8167L43.4771 22.3736V22.6521L41.7288 24.6712L42.568 25.2978C43.547 24.6712 44.596 24.3927 45.5052 24.3927V24.6712C45.5052 25.1586 44.2464 26.551 41.6588 28.779L41.9386 29.336C38.0223 33.3741 35.5746 35.9502 34.6655 37.2034C35.2249 37.2034 35.5047 37.273 35.5047 37.4819C37.6726 36.9249 39.8405 36.6464 41.9386 36.6464H44.2464C46.4143 36.6464 47.743 38.1781 48.3724 41.3112C47.1136 44.5835 42.7778 48.6912 35.2249 53.5649C31.8681 55.7232 23.2663 63.4514 9.41945 76.8191C4.7339 80.3003 1.72675 82.2497 0.328081 82.6675L0.0483398 82.1104C6.06263 78.2115 9.1397 74.9392 9.1397 72.1543C11.4475 70.2745 12.7763 68.3251 13.2658 66.306C13.8952 65.9579 14.5246 64.8439 15.2939 62.8248C17.3919 61.2235 22.0774 56.7676 29.3505 49.4571L34.3857 45.976V45.419L33.7563 45.6974H32.008C28.3714 46.4633 24.595 47.1596 20.5389 47.7165C18.0912 47.7165 16.5527 46.2545 15.8533 43.3303C15.8533 42.8429 15.6435 42.2163 15.2939 41.5897C15.7834 39.8491 18.6507 37.5515 23.7558 34.6274C36.204 23.8357 43.4771 18.057 45.5751 17.5Z" fill="white"/>
<path d="M84.7413 17.0129L85.091 17.6396C85.091 17.9181 84.2518 18.2662 82.6433 18.8928C82.6433 19.589 81.4544 21.1903 79.0067 23.7664H77.1885C71.8036 24.8108 68.7964 25.6462 68.3069 26.2032C68.3069 27.3172 64.2508 34.9758 56.0685 49.0397C52.8516 55.5843 50.0542 60.4579 47.5366 63.6606L46.9072 63.9391H46.5576L45.9282 63.6606L46.2778 63.034V61.7808C46.2778 61.5719 46.068 60.806 45.6484 59.344C45.7184 58.9262 45.9282 58.7173 46.2778 58.7173L45.6484 54.1222C47.187 52.5209 49.7745 46.7421 53.2712 36.786L58.5162 27.3172H55.1594C52.2921 27.178 50.8935 26.6906 50.8935 25.7855L52.7117 23.3487C52.7117 23.1398 52.5019 22.374 52.1523 20.9119C53.6908 19.3105 56.1385 18.4751 59.4253 18.4751L71.1043 17.57V17.8484L71.7337 17.57H74.1813C76.5591 17.6396 80.1257 17.4307 84.7413 17.0129Z" fill="white"/>
<path d="M82.9919 22.3035L83.5513 22.5819L83.2716 23.139C84.3905 24.601 84.95 25.4365 84.95 25.6454C85.3696 25.6454 85.7193 25.5757 86.0689 25.3669C89.4957 25.5061 92.363 25.6454 94.7407 25.6454H95.5799C96.3492 25.6454 97.3982 25.5757 98.657 25.3669C98.8668 25.5061 99.5661 25.6454 100.895 25.6454L101.454 25.3669L102.014 25.6454L103.412 25.3669V25.6454C103.762 25.5061 104.042 25.3669 104.252 25.3669C105.371 25.5061 105.86 25.7846 105.86 26.2024V26.4809C104.741 26.4809 103.972 27.3163 103.622 28.9873C103.273 28.9873 102.573 29.7532 101.384 31.2152C100.545 31.2152 97.6779 31.8418 92.7126 33.1647L90.195 33.4432C90.0552 33.4432 89.4957 33.3736 88.5166 33.1647C86.9081 33.3736 85.8591 33.5128 85.5095 33.7217L85.7892 34.2787C82.6422 40.2663 81.1037 43.6082 81.1037 44.2348C75.7887 54.3998 72.7116 59.9001 71.9424 60.5963L71.3829 60.3178L71.6626 59.7608V58.9253C70.7535 57.9506 70.264 57.3936 70.264 57.324C70.4738 56.9759 70.5437 56.6278 70.5437 56.4885C70.3339 56.4885 69.8444 55.8619 69.145 54.5391C69.7744 54.0517 70.5437 51.2668 71.3829 46.1843C72.0123 44.3044 72.8515 42.912 73.9005 42.0069L73.6208 41.4499C74.8096 38.3168 75.9286 36.2977 76.9776 35.3926L76.6978 34.8357C78.8658 30.7279 80.754 26.6201 82.5723 22.6516L82.9919 22.3035Z" fill="white"/>
<path d="M120.754 45.0006C125.09 45.0006 127.258 45.3487 127.258 46.1146V46.3931H126.139C125.09 46.3931 124.111 47.1589 123.271 48.6906C122.502 48.6906 121.663 49.4565 120.754 50.9186C119.705 50.7793 118.935 50.6401 118.446 50.6401C111.592 52.5199 106.767 53.425 103.9 53.425H102.781L101.382 53.1465C101.382 53.4946 101.172 53.7035 100.823 53.7035H95.7175C94.3888 53.7035 93.6895 53.2162 93.6895 52.2414L94.5287 50.7793C94.3189 50.7793 94.2489 50.7097 94.2489 50.5008C94.5986 50.292 94.8783 50.2223 95.0881 50.2223C95.0881 49.9438 94.7385 49.3173 93.9692 48.2033C95.7175 46.9501 96.5567 46.1842 96.5567 45.9057C98.3051 45.5576 99.7737 45.3487 100.823 45.3487H106.837L108.306 45.0702V45.3487C108.515 45.3487 108.585 45.2791 108.585 45.0702C114.32 45.1399 118.446 45.0006 120.754 45.0006ZM104.739 33.9305L105.298 34.209C105.508 34.209 105.578 34.1394 105.578 33.9305L107.606 34.209H115.579C117.187 34.209 119.775 34.2786 123.271 34.4875L123.551 35.0445C123.271 35.0445 121.663 36.7154 118.726 40.127L117.607 39.8485C113.201 41.3802 109.914 42.146 107.606 42.146C107.396 42.146 107.117 42.0764 106.767 41.8675C105.718 42.0764 104.879 42.146 104.179 42.146H101.942C101.662 42.146 101.242 41.7979 100.823 41.0321C101.382 39.2915 101.662 38.2471 101.662 37.899C101.242 37.899 100.963 37.4117 100.823 36.4369C102.221 34.766 103.55 33.9305 104.739 33.9305ZM109.564 23.4174C113.061 23.6262 116.068 23.6959 118.446 23.6959H119.285C120.054 23.6959 121.103 23.6262 122.432 23.4174C122.642 23.6262 123.411 23.6959 124.74 23.6959L125.299 23.4174L125.859 23.6959L127.258 23.4174V23.6959C127.607 23.487 127.957 23.4174 128.097 23.4174C129.216 23.6262 129.845 23.9047 129.845 24.2528V24.5314C128.656 24.5314 127.887 25.3668 127.537 27.0378C127.188 27.0378 126.488 27.8036 125.299 29.3353C124.39 29.3353 121.453 30.0316 116.418 31.3544L113.9 31.6329C113.76 31.6329 113.131 31.5633 112.152 31.3544C112.012 31.3544 111.453 31.424 110.404 31.6329C107.187 31.424 105.578 30.867 105.578 29.8923C105.788 29.8923 106.277 29.1265 107.047 27.5948V27.0378L106.487 26.2023V25.6453C107.257 25.1579 107.606 24.6706 107.606 24.1832C107.746 24.3225 108.445 24.044 109.564 23.4174Z" fill="white"/>
<path d="M153.201 45.0006C157.536 45.0006 159.704 45.3487 159.704 46.1146V46.3931H158.585C157.536 46.3931 156.557 47.1589 155.718 48.6906C154.949 48.6906 154.11 49.4565 153.201 50.9186C152.152 50.7793 151.382 50.6401 150.893 50.6401C144.039 52.5199 139.214 53.425 136.347 53.425H135.228L133.829 53.1465C133.829 53.4946 133.619 53.7035 133.269 53.7035H128.164C126.836 53.7035 126.136 53.2162 126.136 52.2414L126.975 50.7793C126.766 50.7793 126.696 50.7097 126.696 50.5008C127.045 50.292 127.325 50.2223 127.535 50.2223C127.535 49.9438 127.185 49.3173 126.416 48.2033C128.164 46.9501 129.004 46.1842 129.004 45.9057C130.752 45.5576 132.22 45.3487 133.269 45.3487H139.284L140.752 45.0702V45.3487C140.962 45.3487 141.032 45.2791 141.032 45.0702C146.837 45.1399 150.893 45.0006 153.201 45.0006ZM137.186 33.9305L137.745 34.209C137.955 34.209 138.025 34.1394 138.025 33.9305L140.053 34.209H148.025C149.634 34.209 152.221 34.2786 155.718 34.4875L155.998 35.0445C155.718 35.0445 154.11 36.7154 151.172 40.127L150.054 39.8485C145.648 41.3802 142.361 42.146 140.053 42.146C139.843 42.146 139.563 42.0764 139.214 41.8675C138.165 42.0764 137.326 42.146 136.626 42.146H134.388C134.109 42.146 133.689 41.7979 133.269 41.0321C133.829 39.2915 134.109 38.2471 134.109 37.899C133.689 37.899 133.409 37.4117 133.269 36.4369C134.668 34.766 135.997 33.9305 137.186 33.9305ZM142.081 23.4174C145.578 23.6262 148.585 23.6959 150.963 23.6959H151.802C152.571 23.6959 153.62 23.6262 154.949 23.4174C155.159 23.6262 155.928 23.6959 157.257 23.6959L157.816 23.4174L158.376 23.6959L159.774 23.4174V23.6959C160.124 23.487 160.474 23.4174 160.613 23.4174C161.732 23.6262 162.362 23.9047 162.362 24.2528V24.5314C161.173 24.5314 160.404 25.3668 160.054 27.0378C159.704 27.0378 159.005 27.8036 157.816 29.3353C156.907 29.3353 153.97 30.0316 148.935 31.3544L146.417 31.6329C146.277 31.6329 145.648 31.5633 144.669 31.3544C144.529 31.3544 143.969 31.424 142.92 31.6329C139.703 31.424 138.095 30.867 138.095 29.8923C138.305 29.8923 138.794 29.1265 139.563 27.5948V27.0378L139.004 26.2023V25.6453C139.773 25.1579 140.123 24.6706 140.123 24.1832C140.263 24.3225 140.892 24.044 142.081 23.4174Z" fill="white"/>
<path d="M196.982 17.0129L197.331 17.6396C197.331 17.9181 196.492 18.2662 194.884 18.8928C194.884 19.589 193.695 21.1903 191.247 23.7664H189.429C184.044 24.8108 181.037 25.6462 180.547 26.2032C180.547 27.3172 176.491 34.9758 168.309 49.0397C165.092 55.5843 162.295 60.4579 159.777 63.6606L159.008 63.9391H158.658L158.029 63.6606L158.378 63.034V61.7808C158.378 61.5719 158.169 60.806 157.749 59.344C157.819 58.9262 158.029 58.7173 158.378 58.7173L157.749 54.1222C159.288 52.5209 161.875 46.7421 165.372 36.786L170.617 27.3172H167.26C164.393 27.178 162.994 26.6906 162.994 25.7855L164.812 23.3487C164.812 23.1398 164.603 22.374 164.253 20.9119C165.791 19.3105 168.239 18.4751 171.526 18.4751L183.205 17.57V17.8484L183.834 17.57H186.282C188.73 17.6396 192.296 17.4307 196.982 17.0129Z" fill="white"/>
<path d="M222.159 0.929443H222.788C222.788 1.48643 223.417 2.18265 224.606 3.08775V3.71438H224.956C225.655 3.71438 226.355 3.43589 227.124 2.80928C227.543 2.8789 227.753 3.08775 227.753 3.43587C227.334 5.10683 227.124 6.22082 227.124 6.84742H227.473C227.473 9.63236 223.767 16.8732 216.284 28.5699V28.918C221.389 25.785 224.676 24.2533 226.215 24.2533C226.634 24.4621 226.914 24.6014 227.124 24.6014V25.228H226.494L226.774 25.8546C226.215 27.3167 225.795 28.0129 225.515 28.0129C225.725 28.8484 226.355 29.2661 227.404 29.2661V30.2408C226.494 31.0763 226.005 31.9118 225.865 32.7473C221.739 36.2981 218.102 38.6653 214.955 39.8489C216.424 42.2857 218.592 49.9443 221.529 62.8246V63.1031L220.9 63.4512H220.62C220.2 60.5966 218.942 59.1345 216.913 59.1345C216.913 58.0902 215.795 56.9762 213.487 55.723C212.927 52.4507 211.109 48.3429 207.892 43.3301H207.542C196.563 63.5208 190.409 74.1732 189.22 75.2175H188.87V74.8694C188.87 74.5213 189.08 73.4073 189.5 71.4579C189.08 70.135 188.87 69.2995 188.87 68.9514L189.779 67.1412C189.779 66.9323 189.639 66.5842 189.43 66.2361C189.43 62.7549 190.339 60.0396 192.227 58.1598C198.801 42.2857 204.955 30.1016 210.619 21.6076C211.319 19.6581 215.165 12.835 222.159 0.929443Z" fill="white"/>
<path d="M229.779 33.3737C230.129 33.3737 231.178 34.2092 232.996 35.9498H234.605C234.605 36.4371 234.954 37.3422 235.584 38.5954C235.024 40.5449 232.087 46.1148 226.842 55.3747C226.842 55.6532 226.213 57.0457 224.884 59.5521H223.905V58.5773C223.905 58.09 223.066 56.2102 221.317 52.7986C221.947 51.2669 222.926 47.5073 224.255 41.45C226.772 36.9245 228.66 34.2092 229.779 33.3737ZM237.612 15.6198C237.612 16.5945 238.661 18.3351 240.829 20.8415L240.479 22.4429V22.791C240.479 23.4176 240.619 23.7657 240.829 23.7657C240.829 29.1963 239.29 32.8167 236.283 34.7662C235.304 33.8611 233.556 32.5382 231.038 30.8673C231.038 29.7533 230.828 29.2659 230.409 29.2659L236.913 15.6894H237.612V15.6198Z" fill="white"/>
<path d="M257.197 22.4431C262.652 22.4431 266.009 24.671 267.268 29.1965V30.9371C267.268 31.2852 267.058 31.4941 266.638 31.4941C266.638 29.8928 265.729 28.5003 263.981 27.3864L263.351 27.7345H262.792L261.603 26.8294H261.323V28.013L261.883 28.8484V29.1965L261.603 29.7536L259.575 29.4751H259.225L252.442 31.7726C249.225 34.6968 247.267 38.0387 246.497 41.7984C246.497 44.7922 248.455 47.3683 252.442 49.457C253.491 50.0139 254.889 50.2924 256.568 50.2924C260.764 50.2924 263.631 48.0645 265.1 43.539V42.6339H265.729V43.539H266.009L266.288 41.4503V39.4312H266.568C266.918 39.4312 267.617 41.5895 268.666 45.9061C268.666 46.2543 268.247 47.0201 267.477 48.2733L267.757 48.8303C266.568 52.9381 265.17 55.0268 263.631 55.0268C261.883 56.6282 259.155 57.394 255.379 57.394H254.47C246.987 57.394 241.672 53.0774 238.525 44.4441C238.315 43.1212 238.245 42.0073 238.245 41.2414V38.0387C239.504 32.8866 241.812 29.0573 245.029 26.5509C249.365 23.7659 253.351 22.4431 257.197 22.4431Z" fill="white"/>
<path d="M296.357 0.929443H296.986C296.986 1.48643 297.616 2.18265 298.804 3.08775V3.71438H299.154C299.853 3.71438 300.553 3.43589 301.322 2.80928C301.742 2.8789 301.951 3.08775 301.951 3.43587C301.532 5.10683 301.322 6.22082 301.322 6.84742H301.672C301.672 9.63236 297.965 16.8732 290.482 28.5699V28.918C295.587 25.785 298.874 24.2533 300.413 24.2533C300.832 24.4621 301.112 24.6014 301.322 24.6014V25.228H300.693L300.972 25.8546C300.413 27.3167 299.993 28.0129 299.714 28.0129C299.923 28.8484 300.553 29.2661 301.602 29.2661V30.2408C300.693 31.0763 300.203 31.9118 300.063 32.7473C295.937 36.2981 292.301 38.6653 289.154 39.8489C290.622 42.2857 292.79 49.9443 295.727 62.8246V63.1031L295.098 63.4512H294.818C294.399 60.5966 293.14 59.1345 291.112 59.1345C291.112 58.0902 289.993 56.9762 287.685 55.723C287.126 52.4507 285.307 48.3429 282.09 43.3301H281.741C270.761 63.5208 264.607 74.1732 263.418 75.2175H263.068V74.8694C263.068 74.5213 263.278 73.4073 263.698 71.4579C263.278 70.135 263.068 69.2995 263.068 68.9514L263.977 67.1412C263.977 66.9323 263.838 66.5842 263.628 66.2361C263.628 62.7549 264.537 60.0396 266.425 58.1598C272.999 42.2857 279.153 30.1016 284.818 21.6076C285.517 19.6581 289.293 12.835 296.357 0.929443Z" fill="white"/>
</svg>
