<svg width="79" height="23" viewBox="0 0 79 23" fill="none" xmlns="http://www.w3.org/2000/svg">
<path d="M8.21386 8.97624H22.8363L24.439 0.261108H30.0975L25.9393 23.0001H20.2809L22.0194 13.4975H7.39693L5.65844 23.0001H0L4.15813 0.261108H9.81657L8.21386 8.97624Z" fill="white"/>
<path d="M41.6969 17.8754L36.9912 18.145C34.832 18.2691 34.3156 18.6007 34.1419 19.5144L34.0128 20.2826H46.6186L46.1222 23H29.9326L30.5381 19.7219C30.9477 17.4602 32.1141 15.5302 36.7753 15.282L41.5878 15.0338C43.638 14.9311 44.4148 14.225 44.4148 12.5431C44.4148 11.6295 43.7671 11.3192 41.7592 11.3192H39.2572C35.8025 11.3192 35.5666 11.837 35.177 13.9126H31.5932C32.1564 10.8827 33.1069 8.59961 37.9417 8.59961H43.3375C46.7922 8.59961 48.1077 9.32498 48.1077 11.6081C48.1077 12.1066 48.0432 12.7079 47.9141 13.3712C47.3531 16.4011 44.9135 17.6871 41.6969 17.8754Z" fill="white"/>
<path d="M67.4139 23H57.0186C51.7363 23 49.4858 21.4273 49.4858 17.6913C49.4858 16.9702 49.5548 16.1507 49.724 15.2349L51.0195 8.09247C52.1793 1.86799 54.8037 0 61.2457 0H71.641C76.5159 0 79.0023 1.179 79.0023 5.27445C79.0023 6.09397 78.8999 7.01191 78.6951 8.09247L77.3996 15.2349C76.3423 20.9031 74.025 23 67.4139 23ZM55.3135 16.1186C55.3135 17.9545 56.4042 18.4766 59.2 18.4766H66.6993C70.3121 18.4766 71.267 17.7234 71.8458 14.6422L72.9699 8.58033C73.0723 7.98976 73.1413 7.46554 73.1413 7.03973C73.1413 5.04122 71.9482 4.51697 69.188 4.51697H61.8934C58.3497 4.51697 57.19 5.36859 56.6112 8.61243L55.4871 14.6743C55.3802 15.2349 55.3135 15.6928 55.3135 16.1186Z" fill="white"/>
</svg>
