<svg width="67" height="32" viewBox="0 0 67 32" fill="none" xmlns="http://www.w3.org/2000/svg">
<path d="M12.8493 4.33479C11.1689 4.26587 9.9492 4.88495 9.06028 5.99633C8.08114 5.6111 7.02743 6.17602 6.48252 6.89233C6.86865 7.48679 7.06231 8.11695 7.02382 8.79141L5.91597 9.95202L5.7608 11.1914C4.82376 12.352 4.40035 13.5631 4.26563 14.8037C4.26443 15.2529 4.47012 15.5348 4.82015 15.6997C3.68585 21.0326 8.73069 20.8948 9.08554 23.5053C9.66051 26.2671 10.8826 27.7428 12.8481 27.7379" stroke="white" stroke-width="3" stroke-miterlimit="10"/>
<path d="M12.8494 5.09294V7.30833C11.8498 7.31202 11.2712 6.79879 10.9356 5.98279C10.7877 6.01848 10.6024 6.03202 10.3955 6.00617C10.339 5.99879 10.3137 5.92617 10.3546 5.88556C11.1184 5.13356 11.9364 5.0154 12.8494 5.09294Z" fill="white" stroke="white" stroke-miterlimit="10"/>
<path d="M12.8495 8.67329V8.2376C11.7958 8.05298 10.9874 7.44252 10.3343 6.56252H9.55L9.35634 6.91821C9.03518 6.96006 8.70679 6.76068 8.3772 6.47021L7.48828 7.09052C7.7457 7.91514 7.90087 8.77668 7.95259 9.67514L7.96582 7.30837C8.2076 7.09791 8.56365 7.08806 8.95819 7.14345C10.2585 7.45975 11.2773 8.52806 12.8495 8.67329Z" fill="white" stroke="white" stroke-miterlimit="10"/>
<path d="M7.43751 9.63696C6.93351 10.0357 6.72661 10.8357 6.73984 11.9348C6.73984 11.9816 6.723 12.0271 6.69173 12.0603C6.1348 12.6511 5.69334 13.3551 5.33729 14.144C5.04259 14.8271 6.56663 14.6191 7.83686 14.816C7.92227 14.3446 8.09187 13.9422 8.31681 13.5853C8.34929 13.5336 8.32282 13.4671 8.26509 13.4523C8.1472 13.424 8.03654 13.365 7.93309 13.2837C7.86212 13.2283 7.76108 13.2443 7.71658 13.3231L7.60351 13.5225C7.58426 13.5557 7.54938 13.5754 7.51209 13.5742L7.08988 13.5557C7.0153 13.552 6.94674 13.5065 6.91667 13.4376C6.84329 13.2677 6.8481 13.0708 6.91065 12.8554C6.92509 12.805 6.95395 12.7619 6.98884 12.7237C7.45796 12.208 7.63598 11.3699 7.77913 10.4911C7.79115 10.4148 7.78634 10.336 7.76349 10.261L7.59148 9.68496C7.57103 9.6185 7.49164 9.59388 7.43751 9.63696Z" fill="white" stroke="white" stroke-miterlimit="10"/>
<path d="M12.8229 26.9748C10.2199 26.6314 10.7095 23.0856 8.9184 21.1729C7.16582 19.2874 5.37835 18.9932 5.88957 15.7145C8.29531 15.9483 7.46052 18.8739 9.80732 20.5108C9.87348 20.5576 9.93122 20.6179 9.96971 20.6892C11.335 23.2136 11.1834 25.8228 12.8217 25.9459L12.8229 26.9748Z" fill="white" stroke="white" stroke-miterlimit="10"/>
<path d="M11.057 10.416C11.0847 10.4111 11.0967 10.448 11.0715 10.4603C10.4628 10.7655 9.80243 10.8467 9.04943 10.5317C8.65248 10.432 8.49731 9.52244 8.48047 8.1489C8.48047 8.11936 8.51415 8.10213 8.5358 8.12182L8.83411 8.38028C8.85937 8.40244 8.87261 8.43813 8.86779 8.47136C8.66331 9.98767 9.33812 10.7335 11.057 10.416Z" fill="white" stroke="white" stroke-miterlimit="10"/>
<path d="M9.54886 9.07696C9.87844 9.45481 10.2453 9.76373 10.6687 9.9705C10.7012 9.9865 10.6868 10.037 10.6507 10.032L9.82311 9.92865C9.75575 9.92004 9.69922 9.87081 9.68117 9.80435L9.49112 9.10896C9.4815 9.07327 9.5248 9.04988 9.54886 9.07696Z" stroke="white" stroke-miterlimit="10"/>
<path d="M8.52361 11.2271L8.2265 12.2819C8.20846 12.3446 8.27943 12.3939 8.32995 12.3545L9.46666 11.4769C9.54365 11.4179 9.51478 11.2935 9.42095 11.2751L8.67999 11.1299C8.61022 11.1163 8.54286 11.1582 8.52361 11.2271Z" fill="white" stroke="white" stroke-miterlimit="10"/>
<path d="M12.2695 9.42274L12.3044 9.44613C12.3994 9.51013 12.4572 9.61843 12.4572 9.73536V9.7772C12.4572 9.81536 12.4873 9.84736 12.5257 9.84736H12.6063C12.6593 9.84736 12.7026 9.80305 12.7026 9.7489V9.62582C12.7026 9.57782 12.6785 9.53228 12.6388 9.50643L12.3682 9.33167L12.2695 9.42274Z" fill="white" stroke="white" stroke-miterlimit="10"/>
<path d="M11.982 10.5071C11.3746 10.7791 10.9427 11.1926 10.6865 11.7465" stroke="white" stroke-width="2" stroke-miterlimit="10"/>
<path d="M12.8494 12.5293V10.917C12.444 10.6302 11.9015 11.1668 11.8245 11.4905L12.2696 11.5496C12.2347 11.6665 12.1469 11.7552 12.035 11.797C11.703 11.9225 11.3735 12.2056 11.335 12.6142C11.3338 12.9982 12.1313 12.4998 12.8494 12.5293Z" fill="white" stroke="white" stroke-miterlimit="10"/>
<path d="M9.82389 12.1637C8.53081 14.5884 7.67316 16.5108 8.7389 16.8751C9.70601 16.9785 11.046 15.8204 12.8491 15.5299V14.8173C11.6222 15.2677 10.4951 15.557 9.62783 15.424C9.10458 15.2788 9.45942 13.4351 9.84675 12.1724C9.85036 12.1576 9.83111 12.1502 9.82389 12.1637Z" fill="white" stroke="white" stroke-miterlimit="10"/>
<path d="M11.0882 14.4677C10.3533 14.6548 10.073 14.2819 10.1367 13.4831C10.1403 13.4351 10.079 13.4142 10.0537 13.4548C9.80955 13.8449 9.75061 14.2523 9.90699 14.6831C9.94668 14.7914 10.0453 14.8689 10.1584 14.8812C10.7658 14.9514 11.0581 14.8209 11.1748 14.5797C11.2049 14.5206 11.152 14.4517 11.0882 14.4677Z" fill="white" stroke="white" stroke-miterlimit="10"/>
<path d="M12.8493 13.6222V14.4727C12.1805 14.3656 11.7607 14.0874 11.5286 13.6825C11.5153 13.6579 11.5358 13.6283 11.5622 13.632L12.1637 13.728C12.237 13.7391 12.3104 13.7379 12.3826 13.7219L12.8493 13.6222Z" fill="white" stroke="white" stroke-miterlimit="10"/>
<path d="M12.8491 16.1686L12.8239 18.0357C12.8239 18.0492 12.8046 18.0529 12.7998 18.0393C12.6855 17.3772 12.5063 16.8369 12.2729 16.4C12.2333 16.3261 12.2814 16.2363 12.3632 16.2264L12.8491 16.1686Z" fill="white" stroke="white" stroke-miterlimit="10"/>
<path d="M11.8727 16.4259V18.453C11.8727 18.5121 11.7957 18.533 11.7681 18.4813C11.5059 17.7896 11.2617 17.2936 11.05 17.1828C10.9766 17.0499 11.0247 16.8813 11.157 16.8111L11.8727 16.4259Z" fill="white" stroke="white" stroke-miterlimit="10"/>
<path d="M10.6839 17.019V19.136C10.6839 19.1741 10.6322 19.184 10.6178 19.1483C10.3519 18.496 10.0717 17.9483 9.76372 17.6024C9.70237 17.5335 9.72523 17.4252 9.80943 17.3895L10.6839 17.019Z" fill="white" stroke="white" stroke-miterlimit="10"/>
<path d="M9.15644 17.4253C9.27312 18.1231 9.47881 18.7471 9.79036 19.2838C9.82765 19.3465 9.75908 19.4204 9.69533 19.3871C9.11073 19.0758 8.66808 18.533 8.3445 17.7958C8.29759 17.6899 8.35894 17.5668 8.47081 17.5471L9.15644 17.4253Z" fill="white" stroke="white" stroke-miterlimit="10"/>
<path d="M10.5075 20.9957C10.3331 20.693 10.4822 20.3803 11.0091 20.208C11.2316 20.1354 11.3218 20.245 11.139 20.3299C10.9116 20.437 10.8118 20.7213 10.7396 21.024C10.7168 21.1225 10.5568 21.0819 10.5075 20.9957Z" fill="white" stroke="white" stroke-miterlimit="10"/>
<path d="M10.9214 22.0382C10.7096 21.6702 10.8901 21.2936 11.53 21.0843C11.7995 20.9957 11.9089 21.1286 11.6864 21.2332C11.4097 21.3625 11.2894 21.7071 11.2016 22.0751C11.1752 22.192 10.9815 22.1428 10.9214 22.0382Z" fill="white" stroke="white" stroke-miterlimit="10"/>
<path d="M11.4096 23.2296C11.1894 22.848 11.3771 22.4554 12.0423 22.2376C12.3226 22.1465 12.4356 22.2843 12.2059 22.3914C11.9184 22.5256 11.7933 22.8849 11.7031 23.2665C11.673 23.3883 11.4721 23.3379 11.4096 23.2296Z" fill="white" stroke="white" stroke-miterlimit="10"/>
<path d="M12.3283 23.3305V24.4665C12.3283 24.581 12.4185 24.6733 12.5303 24.6733H12.8491V25.4844C12.1971 25.3896 11.8495 25.0376 11.7376 24.485C11.6703 23.9779 11.8243 23.573 12.1707 23.2579C12.2308 23.2038 12.3283 23.2481 12.3283 23.3305Z" fill="white" stroke="white" stroke-miterlimit="10"/>
<path d="M26.017 23.9695C26.017 24.5098 25.9147 25.0255 25.7114 25.5178C25.5082 26.0102 25.2291 26.4323 24.8742 26.7868C24.5194 27.1412 24.1056 27.4231 23.6341 27.6311C23.1626 27.8391 22.6622 27.9437 22.1341 27.9437H14.3647V4.12708H22.1329C22.661 4.12708 23.1614 4.23169 23.6329 4.43969C24.1044 4.64769 24.5182 4.93323 24.873 5.29754C25.2279 5.66061 25.507 6.08154 25.7102 6.56031C25.9135 7.03908 26.0158 7.55231 26.0158 8.10246L26.017 23.9695ZM18.2488 23.9695H22.1329V8.10123H18.2488V23.9695Z" fill="white"/>
<path d="M29.5234 27.9433V4.12671H33.4075V27.9433H29.5234Z" fill="white"/>
<path d="M48.5912 4.12671L42.7717 16.0479L48.5912 27.9433H44.7071L40.823 19.995V27.9433H36.939V4.12671H40.823V12.075L44.7071 4.12671H48.5912Z" fill="white"/>
<path d="M61.6483 23.9692C61.6483 24.5095 61.5461 25.0252 61.3428 25.5175C61.1395 26.0098 60.8604 26.432 60.5044 26.7864C60.1495 27.1409 59.7358 27.4227 59.2642 27.6307C58.7927 27.8387 58.2923 27.9433 57.7642 27.9433H53.8802C53.3521 27.9433 52.8517 27.8387 52.3802 27.6307C51.9087 27.4227 51.4949 27.1409 51.14 26.7864C50.7852 26.432 50.5061 26.0086 50.3016 25.5175C50.0983 25.0252 49.9961 24.5095 49.9961 23.9692V8.10087C49.9961 7.55195 50.0983 7.03749 50.3016 6.55872C50.5049 6.07995 50.784 5.65903 51.14 5.29595C51.4949 4.93287 51.9087 4.64733 52.3802 4.4381C52.8517 4.2301 53.3521 4.12549 53.8802 4.12549H57.7642C58.2923 4.12549 58.7927 4.2301 59.2642 4.4381C59.7358 4.6461 60.1495 4.93164 60.5044 5.29595C60.8592 5.65903 61.1383 6.07995 61.3428 6.55872C61.5461 7.03749 61.6483 7.55072 61.6483 8.10087V23.9692ZM57.7642 23.8104V7.94087H53.8802V23.8104H57.7642Z" fill="white"/>
</svg>
