<svg width="304" height="124" viewBox="0 0 304 124" fill="none" xmlns="http://www.w3.org/2000/svg">
<path d="M47.2093 1.96328C38.3683 1.61045 31.951 4.77962 27.2742 10.469C22.1227 8.49694 16.5789 11.3889 13.712 15.0558C15.7435 18.099 16.7624 21.3248 16.5599 24.7775L10.7312 30.7189L9.91483 37.0636C4.98484 43.005 2.75717 49.2047 2.04837 55.5556C2.04204 57.8553 3.12423 59.2981 4.96586 60.1424C-1.00202 87.4426 25.5402 86.737 27.4071 100.1C30.4322 114.239 36.862 121.793 47.203 121.768" stroke="white" stroke-width="3" stroke-miterlimit="10"/>
<path d="M47.2114 5.84471V17.1856C41.9523 17.2045 38.9083 14.5772 37.1426 10.4C36.3642 10.5827 35.3896 10.652 34.3011 10.5197C34.0037 10.4819 33.8708 10.1101 34.086 9.90221C38.1046 6.05263 42.408 5.44778 47.2114 5.84471Z" fill="white" stroke="white" stroke-miterlimit="10"/>
<path d="M47.2073 24.1736V21.9432C41.6635 20.9982 37.4107 17.8731 33.9743 13.3683H29.8481L28.8292 15.1891C27.1395 15.4033 25.4118 14.3827 23.6778 12.8958L19.001 16.0712C20.3553 20.2925 21.1717 24.7028 21.4438 29.3022L21.5134 17.1864C22.7854 16.109 24.6587 16.0586 26.7345 16.3421C33.5756 17.9613 38.9359 23.4301 47.2073 24.1736Z" fill="white" stroke="white" stroke-miterlimit="10"/>
<path d="M18.7389 29.1069C16.0873 31.1483 14.9988 35.2436 15.0684 40.8699C15.0684 41.1093 14.9798 41.3424 14.8152 41.5125C11.8851 44.5367 9.56255 48.1406 7.6893 52.1792C6.13881 55.676 14.1571 54.6112 20.84 55.6193C21.2893 53.2062 22.1817 51.1459 23.3651 49.3188C23.536 49.0542 23.3967 48.714 23.093 48.6384C22.4728 48.4934 21.8906 48.191 21.3463 47.7752C20.9729 47.4917 20.4413 47.5736 20.2072 47.9768L19.6123 48.9975C19.511 49.1676 19.3275 49.2684 19.1313 49.2621L16.91 49.1676C16.5176 49.1487 16.1569 48.9156 15.9987 48.5628C15.6126 47.6933 15.638 46.6852 15.967 45.5826C16.043 45.3243 16.1949 45.1038 16.3784 44.9085C18.8465 42.2686 19.7831 37.978 20.5362 33.4794C20.5995 33.0888 20.5742 32.6856 20.454 32.3012L19.549 29.3526C19.4414 29.0124 19.0237 28.8864 18.7389 29.1069Z" fill="white" stroke="white" stroke-miterlimit="10"/>
<path d="M47.0679 117.862C33.3729 116.104 35.9486 97.9528 26.5254 88.1618C17.3048 78.5095 7.90054 77.0037 10.5902 60.2192C23.2473 61.4163 18.8552 76.3925 31.2022 84.7722C31.5503 85.0116 31.8541 85.3203 32.0566 85.6857C39.2395 98.608 38.4421 111.965 47.0616 112.595L47.0679 117.862Z" fill="white" stroke="white" stroke-miterlimit="10"/>
<path d="M37.7823 33.0952C37.9279 33.07 37.9911 33.259 37.8583 33.322C34.656 34.8845 31.1816 35.3003 27.22 33.6874C25.1315 33.1771 24.3152 28.521 24.2266 21.4897C24.2266 21.3385 24.4038 21.2503 24.5177 21.3511L26.0872 22.6742C26.2201 22.7876 26.2897 22.9703 26.2644 23.1404C25.1885 30.9026 28.7388 34.7207 37.7823 33.0952Z" fill="white" stroke="white" stroke-miterlimit="10"/>
<path d="M29.8442 26.24C31.5782 28.1742 33.5084 29.7556 35.7361 30.8141C35.9069 30.896 35.831 31.1543 35.6411 31.1291L31.2871 30.5999C30.9327 30.5558 30.6353 30.3038 30.5403 29.9635L29.5404 26.4038C29.4898 26.2211 29.7176 26.1014 29.8442 26.24Z" stroke="white" stroke-miterlimit="10"/>
<path d="M24.4528 37.247L22.8896 42.6466C22.7947 42.9679 23.1681 43.2199 23.4339 43.0183L29.4143 38.526C29.8194 38.2236 29.6675 37.5873 29.1739 37.4928L25.2755 36.7493C24.9084 36.68 24.554 36.8942 24.4528 37.247Z" fill="white" stroke="white" stroke-miterlimit="10"/>
<path d="M44.1602 28.0108L44.3437 28.1305C44.8436 28.4581 45.1474 29.0126 45.1474 29.6111V29.8253C45.1474 30.0206 45.3056 30.1845 45.5081 30.1845H45.9322C46.2106 30.1845 46.4384 29.9576 46.4384 29.6804V29.0504C46.4384 28.8046 46.3119 28.5715 46.103 28.4392L44.6791 27.5446L44.1602 28.0108Z" fill="white" stroke="white" stroke-miterlimit="10"/>
<path d="M42.6474 33.5618C39.4515 34.9542 37.1795 37.0711 35.8315 39.9063" stroke="white" stroke-width="2" stroke-miterlimit="10"/>
<path d="M47.2049 43.913V35.6594C45.0722 34.1914 42.2181 36.9384 41.813 38.5954L44.1546 38.8978C43.9711 39.4964 43.5091 39.95 42.9205 40.1642C41.1738 40.8069 39.4398 42.256 39.2373 44.3477C39.231 46.3135 43.4268 43.7618 47.2049 43.913Z" fill="white" stroke="white" stroke-miterlimit="10"/>
<path d="M31.2946 42.0421C24.4915 54.454 19.9792 64.2953 25.5863 66.1603C30.6744 66.6895 37.7244 60.7608 47.2109 59.2739V55.6259C40.7558 57.9318 34.826 59.4125 30.2631 58.732C27.5102 57.9886 29.3771 48.5505 31.4149 42.0862C31.4339 42.0106 31.3326 41.9728 31.2946 42.0421Z" fill="white" stroke="white" stroke-miterlimit="10"/>
<path d="M37.948 53.836C34.0812 54.7937 32.6067 52.8847 32.9421 48.7957C32.9611 48.5499 32.6383 48.4428 32.5054 48.6507C31.2207 50.648 30.9106 52.7335 31.7333 54.9386C31.9422 55.4931 32.4611 55.89 33.056 55.953C36.2519 56.3121 37.7898 55.6443 38.4036 54.4094C38.5618 54.107 38.2834 53.7541 37.948 53.836Z" fill="white" stroke="white" stroke-miterlimit="10"/>
<path d="M47.2073 49.5076V53.8612C43.6887 53.313 41.48 51.8891 40.2586 49.8163C40.189 49.6903 40.2966 49.5391 40.4358 49.558L43.6001 50.0494C43.9861 50.1061 44.3721 50.0998 44.7519 50.0179L47.2073 49.5076Z" fill="white" stroke="white" stroke-miterlimit="10"/>
<path d="M47.2084 62.5439L47.0755 72.1018C47.0755 72.1711 46.9743 72.19 46.9489 72.1207C46.3477 68.731 45.4048 65.9651 44.177 63.7284C43.9682 63.3504 44.2213 62.8905 44.6517 62.8401L47.2084 62.5439Z" fill="white" stroke="white" stroke-miterlimit="10"/>
<path d="M42.069 63.8606V74.2375C42.069 74.5399 41.664 74.647 41.5184 74.3824C40.1388 70.8415 38.8541 68.3024 37.7403 67.7354C37.3542 67.0549 37.6074 66.1918 38.3035 65.8326L42.069 63.8606Z" fill="white" stroke="white" stroke-miterlimit="10"/>
<path d="M35.8184 66.8979V77.7348C35.8184 77.9301 35.5463 77.9805 35.4704 77.7978C34.0717 74.4585 32.5972 71.6548 30.9771 69.8844C30.6543 69.5315 30.7746 68.9771 31.2176 68.7944L35.8184 66.8979Z" fill="white" stroke="white" stroke-miterlimit="10"/>
<path d="M27.7787 68.9769C28.3926 72.5493 29.4748 75.7436 31.1139 78.4906C31.31 78.812 30.9493 79.19 30.6139 79.0199C27.5382 77.4259 25.2093 74.6473 23.5069 70.8734C23.2601 70.3315 23.5829 69.7015 24.1714 69.6007L27.7787 68.9769Z" fill="white" stroke="white" stroke-miterlimit="10"/>
<path d="M34.8861 87.2544C33.9685 85.7045 34.7532 84.1042 37.5251 83.2221C38.6959 82.8504 39.1705 83.4111 38.2086 83.8458C37.0125 84.394 36.4872 85.8494 36.1075 87.3993C35.9873 87.9034 35.1456 87.6954 34.8861 87.2544Z" fill="white" stroke="white" stroke-miterlimit="10"/>
<path d="M37.0614 92.5911C35.9476 90.7073 36.8969 88.7794 40.2637 87.7083C41.6813 87.2546 42.2572 87.9351 41.0864 88.4706C39.6308 89.1322 38.998 90.8963 38.536 92.7802C38.3968 93.3787 37.3779 93.1267 37.0614 92.5911Z" fill="white" stroke="white" stroke-miterlimit="10"/>
<path d="M39.6338 98.6896C38.4757 96.7364 39.4629 94.7266 42.9626 93.6114C44.4371 93.1451 45.032 93.8508 43.8233 94.3989C42.3108 95.0857 41.6526 96.9254 41.1779 98.8786C41.0197 99.5023 39.9629 99.244 39.6338 98.6896Z" fill="white" stroke="white" stroke-miterlimit="10"/>
<path d="M44.4656 99.207V105.022C44.4656 105.608 44.9402 106.081 45.5288 106.081H47.2059V110.233C43.7758 109.748 41.9468 107.946 41.3583 105.117C41.0039 102.521 41.8139 100.448 43.6366 98.8353C43.953 98.558 44.4656 98.7849 44.4656 99.207Z" fill="white" stroke="white" stroke-miterlimit="10"/>
<path d="M116.489 102.475C116.489 105.241 115.951 107.881 114.882 110.401C113.812 112.921 112.344 115.083 110.477 116.897C108.61 118.712 106.433 120.154 103.952 121.219C101.472 122.284 98.8388 122.82 96.0606 122.82H55.1841V0.897949H96.0542C98.8325 0.897949 101.465 1.4335 103.946 2.49829C106.427 3.56308 108.604 5.0248 110.471 6.88976C112.338 8.74842 113.806 10.9032 114.876 13.3541C115.945 15.805 116.483 18.4323 116.483 21.2487L116.489 102.475ZM75.6192 102.475H96.0542V21.2424H75.6192V102.475Z" fill="white"/>
<path d="M134.936 122.82V0.898193H155.371V122.82H134.936Z" fill="white"/>
<path d="M235.256 0.898193L204.638 61.9252L235.256 122.82H214.821L194.386 82.131V122.82H173.951V0.898193H194.386V41.5871L214.821 0.898193H235.256Z" fill="white"/>
<path d="M303.952 102.475C303.952 105.241 303.414 107.881 302.344 110.402C301.275 112.922 299.806 115.083 297.933 116.897C296.066 118.712 293.889 120.155 291.408 121.22C288.928 122.284 286.295 122.82 283.517 122.82H263.082C260.303 122.82 257.671 122.284 255.19 121.22C252.709 120.155 250.532 118.712 248.665 116.897C246.798 115.083 245.33 112.915 244.254 110.402C243.184 107.881 242.646 105.241 242.646 102.475V21.2427C242.646 18.4327 243.184 15.799 244.254 13.3481C245.323 10.8972 246.792 8.74243 248.665 6.88378C250.532 5.02512 252.709 3.5634 255.19 2.4923C257.671 1.42751 260.303 0.891968 263.082 0.891968H283.517C286.295 0.891968 288.928 1.42751 291.408 2.4923C293.889 3.55709 296.066 5.01882 297.933 6.88378C299.8 8.74243 301.268 10.8972 302.344 13.3481C303.414 15.799 303.952 18.4264 303.952 21.2427V102.475ZM283.517 101.663V20.4236H263.082V101.663H283.517Z" fill="white"/>
</svg>
