<svg width="148" height="148" viewBox="0 0 148 148" fill="none" xmlns="http://www.w3.org/2000/svg">
<path d="M15.3876 69.0814H42.7808L45.7832 52.0967H56.3835L48.5938 96.4121H37.9935L41.2503 77.8928H13.8571L10.6003 96.4121H0L7.78969 52.0967H18.39L15.3876 69.0814Z" fill="#787878"/>
<path d="M78.113 86.4247L69.2975 86.9502C65.2525 87.192 64.2851 87.8384 63.9598 89.619L63.718 91.1161H87.3331L86.4031 96.412H56.0742L57.2085 90.0235C57.9758 85.6157 60.1609 81.8543 68.893 81.3706L77.9087 80.8869C81.7493 80.6867 83.2047 79.3106 83.2047 76.0329C83.2047 74.2523 81.9912 73.6476 78.2298 73.6476H73.5426C67.0707 73.6476 66.6287 74.6568 65.8989 78.7018H59.1851C60.2401 72.7969 62.0207 68.3475 71.0781 68.3475H81.1864C87.6583 68.3475 90.1228 69.7611 90.1228 74.2106C90.1228 75.1822 90.0019 76.354 89.7601 77.6467C88.7092 83.5515 84.1388 86.0578 78.113 86.4247Z" fill="#787878"/>
<path d="M126.29 96.412H106.816C96.92 96.412 92.7041 93.347 92.7041 86.066C92.7041 84.6607 92.8334 83.0636 93.1503 81.2788L95.5773 67.3591C97.7499 55.2284 102.666 51.5879 114.735 51.5879H134.209C143.341 51.5879 147.999 53.8856 147.999 61.8671C147.999 63.4643 147.807 65.2532 147.424 67.3591L144.997 81.2788C143.016 92.3253 138.675 96.412 126.29 96.412ZM103.621 83.001C103.621 86.579 105.665 87.5964 110.902 87.5964H124.951C131.719 87.5964 133.508 86.1286 134.592 80.1237L136.698 68.3099C136.89 67.1589 137.019 66.1373 137.019 65.3074C137.019 61.4126 134.784 60.3909 129.613 60.3909H115.948C109.309 60.3909 107.137 62.0506 106.053 68.3724L103.947 80.1862C103.746 81.2788 103.621 82.1712 103.621 83.001Z" fill="#787878"/>
</svg>
