<svg width="301" height="69" viewBox="0 0 301 69" fill="none" xmlns="http://www.w3.org/2000/svg">
<path d="M41.0034 0.0949707V13.714H13.7018V27.4148H34.1821V41.0338H13.7018V54.7346H41.0034V68.3101H0.0483398V0.0949707H41.0034Z" fill="white"/>
<path d="M60.903 0.26416V54.6532H88.2045V68.2287H47.2495V0.26416H60.903Z" fill="white"/>
<path d="M94.4507 0.26416H108.104V68.2287H94.4507V0.26416Z" fill="white"/>
<path d="M161.453 0.26416V13.7961H144.768V68.2287H131.071V13.7961H114.347V0.26416H161.453Z" fill="white"/>
<path d="M208.647 0.0949707V13.714H181.345V27.4148H201.826V41.0338H181.345V54.7346H208.647V68.3101H167.692V0.0949707H208.647Z" fill="white"/>
<path d="M243.1 45.0912V68.2327H238.473V51.2089L236.143 51.8953V47.0633L243.1 45.0912Z" fill="white"/>
<path d="M250.011 68.2329L254.012 61.26C251.9 61.1074 250.12 60.2521 248.683 58.6996C247.224 57.147 246.5 55.3057 246.5 53.1811C246.5 50.9585 247.289 49.0518 248.873 47.4502C250.436 45.8704 252.341 45.0751 254.589 45.0751C256.827 45.0751 258.738 45.865 260.316 47.4502C261.906 49.0409 262.701 50.9531 262.701 53.1811C262.701 54.4777 262.401 55.7088 261.803 56.8855C261.775 56.94 261.737 57.0217 261.688 57.1143L261.547 57.3704C261.443 57.5883 261.367 57.7353 261.318 57.8116L255.319 68.2166L250.011 68.2329ZM252.139 55.6108C252.825 56.2972 253.637 56.6404 254.584 56.6404C255.537 56.6404 256.353 56.2972 257.039 55.6108C257.725 54.9244 258.068 54.1127 258.068 53.1648C258.068 52.2223 257.725 51.3997 257.039 50.7079C256.353 50.0215 255.537 49.6783 254.584 49.6783C253.631 49.6783 252.815 50.0215 252.129 50.7079C251.454 51.4052 251.116 52.2223 251.116 53.1648C251.111 54.1127 251.454 54.9244 252.139 55.6108Z" fill="white"/>
<path d="M268.898 68.2329L272.899 61.26C270.787 61.1074 269.006 60.2521 267.569 58.6996C266.11 57.147 265.386 55.3057 265.386 53.1811C265.386 50.9585 266.176 49.0518 267.76 47.4502C269.322 45.8704 271.228 45.0751 273.476 45.0751C275.713 45.0751 277.624 45.865 279.203 47.4502C280.793 49.0409 281.588 50.9531 281.588 53.1811C281.588 54.4777 281.288 55.7088 280.689 56.8855C280.662 56.94 280.624 57.0217 280.575 57.1143L280.433 57.3704C280.33 57.5883 280.254 57.7353 280.205 57.8116L274.205 68.2166L268.898 68.2329ZM271.026 55.6108C271.712 56.2972 272.523 56.6404 273.471 56.6404C274.423 56.6404 275.24 56.2972 275.926 55.6108C276.612 54.9244 276.955 54.1127 276.955 53.1648C276.955 52.2223 276.612 51.3997 275.926 50.7079C275.24 50.0215 274.423 49.6783 273.471 49.6783C272.518 49.6783 271.701 50.0215 271.015 50.7079C270.34 51.4052 270.003 52.2223 270.003 53.1648C269.997 54.1127 270.34 54.9244 271.026 55.6108Z" fill="white"/>
<path d="M294.515 62.6278C295.229 61.9523 295.588 61.1351 295.588 60.1818C295.588 59.2394 295.234 58.4222 294.532 57.7358C294.162 57.3708 293.84 57.1202 293.574 56.9786C293.203 56.7716 292.762 56.6627 292.262 56.6627V56.6463C291.167 56.6463 290.345 56.7552 289.806 56.9732C289.257 57.1911 288.527 57.6977 287.623 58.4876L285.054 57.1584L286.224 45.1791H298.522V49.7823H290.068L289.812 52.5007C290.525 52.2828 291.347 52.1738 292.267 52.1738C294.363 52.1738 296.241 52.9583 297.912 54.5326C299.578 56.1124 300.411 57.9919 300.411 60.1655C300.411 62.4045 299.589 64.3057 297.94 65.8692C296.29 67.4435 294.309 68.228 291.995 68.228C290.253 68.228 288.658 67.7431 287.21 66.768C285.86 65.8746 284.88 64.736 284.281 63.3632L288.881 61.8924C289.594 63.0364 290.634 63.6084 291.995 63.6084C292.964 63.6193 293.808 63.2869 294.515 62.6278Z" fill="white"/>
</svg>
