<svg width="104" height="23" viewBox="0 0 104 23" fill="none" xmlns="http://www.w3.org/2000/svg">
<g clip-path="url(#clip0_396_6140)">
<path d="M14.181 0V4.59743H4.72762V9.22244H11.819V13.8199H4.72762V18.4449H14.181V23.0276H0V0H14.181Z" fill="white"/>
<path d="M21.0709 0.0570068V18.4173H30.5242V23H16.3433V0.0570068H21.0709Z" fill="white"/>
<path d="M32.686 0.0570068H37.4137V23H32.686V0.0570068Z" fill="white"/>
<path d="M55.8867 0.0570068V4.62501H50.1091V23H45.3664V4.62501H39.5757V0.0570068H55.8867Z" fill="white"/>
<path d="M72.2298 0V4.59743H62.7764V9.22244H69.8679V13.8199H62.7764V18.4449H72.2298V23.0276H58.0488V0H72.2298Z" fill="white"/>
<path d="M84.16 15.1898V23.0018H82.5578V17.255L81.751 17.4867V15.8555L84.16 15.1898Z" fill="white"/>
<path d="M86.5542 23.0018L87.9397 20.6479C87.2083 20.5964 86.5919 20.3077 86.0943 19.7836C85.5891 19.2595 85.3384 18.6379 85.3384 17.9207C85.3384 17.1704 85.6117 16.5268 86.1602 15.9861C86.7012 15.4528 87.361 15.1843 88.1395 15.1843C88.9143 15.1843 89.5759 15.451 90.1225 15.9861C90.673 16.5231 90.9482 17.1686 90.9482 17.9207C90.9482 18.3584 90.8445 18.774 90.6372 19.1712C90.6277 19.1896 90.6145 19.2172 90.5976 19.2484L90.5486 19.3349C90.5127 19.4084 90.4864 19.4581 90.4694 19.4838L88.3921 22.9963L86.5542 23.0018ZM87.2913 18.7409C87.5288 18.9726 87.8096 19.0885 88.1376 19.0885C88.4675 19.0885 88.7503 18.9726 88.9878 18.7409C89.2253 18.5092 89.344 18.2352 89.344 17.9152C89.344 17.5971 89.2253 17.3194 88.9878 17.0858C88.7503 16.8541 88.4675 16.7383 88.1376 16.7383C87.8077 16.7383 87.525 16.8541 87.2875 17.0858C87.0537 17.3212 86.9369 17.5971 86.9369 17.9152C86.935 18.2352 87.0537 18.5092 87.2913 18.7409Z" fill="white"/>
<path d="M93.0933 23.0018L94.4788 20.6479C93.7474 20.5964 93.131 20.3077 92.6333 19.7836C92.1282 19.2595 91.8774 18.6379 91.8774 17.9207C91.8774 17.1704 92.1508 16.5268 92.6993 15.9861C93.2403 15.4528 93.9001 15.1843 94.6786 15.1843C95.4533 15.1843 96.115 15.451 96.6616 15.9861C97.212 16.5231 97.4872 17.1686 97.4872 17.9207C97.4872 18.3584 97.3836 18.774 97.1762 19.1712C97.1668 19.1896 97.1536 19.2172 97.1366 19.2484L97.0876 19.3349C97.0518 19.4084 97.0254 19.4581 97.0085 19.4838L94.9312 22.9963L93.0933 23.0018ZM93.8303 18.7409C94.0678 18.9726 94.3487 19.0885 94.6767 19.0885C95.0066 19.0885 95.2893 18.9726 95.5268 18.7409C95.7643 18.5092 95.8831 18.2352 95.8831 17.9152C95.8831 17.5971 95.7643 17.3194 95.5268 17.0858C95.2893 16.8541 95.0066 16.7383 94.6767 16.7383C94.3468 16.7383 94.0641 16.8541 93.8265 17.0858C93.5928 17.3212 93.4759 17.5971 93.4759 17.9152C93.4741 18.2352 93.5928 18.5092 93.8303 18.7409Z" fill="white"/>
<path d="M101.962 21.1095C102.209 20.8814 102.334 20.6056 102.334 20.2838C102.334 19.9656 102.211 19.6898 101.968 19.4581C101.84 19.3349 101.729 19.2503 101.636 19.2024C101.508 19.1326 101.355 19.0958 101.182 19.0958V19.0903C100.803 19.0903 100.518 19.127 100.332 19.2006C100.141 19.2742 99.8888 19.4452 99.5759 19.7118L98.6861 19.2631L99.0914 15.2192H103.35V16.7732H100.422L100.334 17.6908C100.581 17.6173 100.865 17.5805 101.184 17.5805C101.91 17.5805 102.56 17.8453 103.139 18.3767C103.715 18.91 104.004 19.5445 104.004 20.2782C104.004 21.0341 103.719 21.6759 103.148 22.2037C102.577 22.7351 101.891 22.9999 101.09 22.9999C100.486 22.9999 99.934 22.8362 99.4326 22.5071C98.9651 22.2055 98.6258 21.8211 98.4185 21.3577L100.011 20.8612C100.258 21.2474 100.618 21.4405 101.09 21.4405C101.425 21.4442 101.717 21.332 101.962 21.1095Z" fill="white"/>
</g>
<defs>
<clipPath id="clip0_396_6140">
<rect width="104" height="23" fill="white"/>
</clipPath>
</defs>
</svg>
