<svg width="148" height="148" viewBox="0 0 148 148" fill="none" xmlns="http://www.w3.org/2000/svg">
<g clip-path="url(#clip0_865_1860)">
<path d="M0 69.774C0 69.0222 0.280987 68.3653 0.846757 67.8033C1.40873 67.2413 2.06563 66.9565 2.81746 66.9565H18.7539C19.5058 66.9565 20.1627 67.2375 20.7246 67.8033C21.2866 68.3653 21.5714 69.026 21.5714 69.774V85.2662C21.5714 86.018 21.2904 86.6749 20.7246 87.2369C20.1627 87.7989 19.502 88.0837 18.7539 88.0837H2.81746C2.06563 88.0837 1.40873 87.8027 0.846757 87.2369C0.284785 86.6749 0 86.018 0 85.2662V69.774ZM13.119 81.9665V73.0737H8.45237V81.9665H13.119Z" fill="#787878"/>
<path d="M24.1846 66.9565H42.9347C43.6865 66.9565 44.3434 67.2375 44.9054 67.8033C45.4674 68.3653 45.7522 69.026 45.7522 69.774V88.0837H37.3036V73.0737H32.6369V88.0837H24.1884V66.9565H24.1846Z" fill="#787878"/>
<path d="M48.3652 69.7739C48.3652 69.022 48.6462 68.3651 49.212 67.8032C49.774 67.2412 50.4309 66.9564 51.1827 66.9564H67.1192C67.871 66.9564 68.5279 67.2374 69.0899 67.8032C69.6518 68.3651 69.9366 69.0258 69.9366 69.7739V77.2997C69.9366 78.0516 69.6556 78.7085 69.0899 79.2705C68.5279 79.8324 67.8672 80.1172 67.1192 80.1172H56.8176V81.9702H69.9366L67.1192 88.0873H51.1827C50.4309 88.0873 49.774 87.8064 49.212 87.2406C48.65 86.6786 48.3652 86.0217 48.3652 85.2699V69.7739ZM61.4843 75.4468V73.0736H56.8176V75.4468H61.4843Z" fill="#787878"/>
<path d="M72.4297 59.9127H93.1126C93.8378 59.9127 94.4871 60.1936 95.0643 60.7594C95.6414 61.3214 95.93 61.9821 95.93 62.7301V75.4049C95.93 76.1833 95.6414 76.8478 95.0643 77.3984C94.4871 77.9489 93.8378 78.2223 93.1126 78.2223H80.8821V88.0796H72.4297V59.9127ZM87.4814 73.5557V66.0298H80.8821V73.5557H87.4814Z" fill="#787878"/>
<path d="M97.7021 59.9127H118.343C119.095 59.9127 119.752 60.1936 120.314 60.7594C120.876 61.3214 121.161 61.9821 121.161 62.7301V73.5139C121.161 74.2657 120.88 74.9226 120.314 75.4846C119.752 76.0466 119.091 76.3314 118.343 76.3314H116.695L122.087 88.0796H114.603L107.077 71.6609H112.712V66.026H106.155V88.0758H97.7059V59.9127H97.7021Z" fill="#787878"/>
<path d="M124.5 62.7301C124.5 61.9783 124.789 61.3214 125.366 60.7594C125.943 60.1974 126.592 59.9127 127.317 59.9127H145.183C145.908 59.9127 146.557 60.1936 147.135 60.7594C147.712 61.3214 148 61.9821 148 62.7301V85.266C148 86.0444 147.712 86.7089 147.135 87.2594C146.557 87.81 145.908 88.0834 145.183 88.0834H127.317C126.592 88.0834 125.943 87.81 125.366 87.2594C124.789 86.7089 124.5 86.0444 124.5 85.266V62.7301ZM139.552 81.9663V66.0298H132.952V81.9663H139.552Z" fill="#787878"/>
</g>
<defs>
<clipPath id="clip0_865_1860">
<rect width="148" height="148" fill="white"/>
</clipPath>
</defs>
</svg>
