<svg width="112" height="30" viewBox="0 0 112 30" fill="none" xmlns="http://www.w3.org/2000/svg">
<path d="M16.8454 6.07141L16.9492 6.27549C16.8454 6.27549 16.6637 6.45407 16.4041 6.81121C16.5339 6.83672 16.6118 6.91325 16.6118 7.01529C16.5599 7.01529 16.3522 7.21937 15.9629 7.65305L16.0667 7.85713V7.95917L15.4178 8.69896L15.7293 8.92856C16.0927 8.69897 16.482 8.59693 16.8194 8.59693V8.69896C16.8194 8.87753 16.3522 9.38774 15.3919 10.2041L15.4957 10.4081C14.0422 11.8877 13.1337 12.8316 12.7963 13.2908C13.0039 13.2908 13.1077 13.3163 13.1077 13.3928C13.9124 13.1888 14.717 13.0867 15.4957 13.0867H16.3522C17.1569 13.0867 17.65 13.6479 17.8836 14.7959C17.4164 15.9949 15.8072 17.5 13.0039 19.2857C11.758 20.0765 8.56544 22.9081 3.42616 27.8061C1.68711 29.0816 0.571005 29.7959 0.0518853 29.949L-0.0519409 29.7449C2.18027 28.3163 3.32234 27.1173 3.32234 26.0969C4.17888 25.4081 4.67205 24.6939 4.85374 23.9541C5.08734 23.8265 5.32095 23.4184 5.60646 22.6786C6.38514 22.0918 8.12419 20.4592 10.8236 17.7806L12.6924 16.5051V16.301L12.4588 16.403H11.8099C10.4602 16.6837 9.05861 16.9388 7.55316 17.1428C6.6447 17.1428 6.07367 16.6071 5.81411 15.5357C5.81411 15.3571 5.73624 15.1275 5.60646 14.898C5.78815 14.2602 6.85235 13.4184 8.74713 12.3469C13.3673 8.39285 16.0667 6.27549 16.8454 6.07141Z" fill="black"/>
<path d="M31.3807 5.89282L31.5105 6.12242C31.5105 6.22446 31.199 6.35201 30.602 6.5816C30.602 6.8367 30.1608 7.42344 29.2523 8.36732H28.5775C26.5789 8.74997 25.4628 9.05609 25.2811 9.26017C25.2811 9.66834 23.7756 12.4745 20.7388 17.6275C19.5448 20.0255 18.5066 21.8112 17.5721 22.9847L17.3385 23.0867H17.2088L16.9752 22.9847L17.1049 22.7551V22.2959C17.1049 22.2194 17.0271 21.9388 16.8713 21.403C16.8973 21.25 16.9752 21.1734 17.1049 21.1734L16.8713 19.4898C17.4424 18.903 18.4027 16.7857 19.7005 13.1377L21.6472 9.66834H20.4013C19.3372 9.61732 18.818 9.43875 18.818 9.10712L19.4929 8.21426C19.4929 8.13773 19.415 7.85712 19.2852 7.3214C19.8563 6.73467 20.7647 6.42855 21.9847 6.42855L26.3193 6.09692V6.19895L26.5529 6.09692H27.4614C28.3439 6.12243 29.6676 6.04588 31.3807 5.89282Z" fill="black"/>
<path d="M30.7318 7.83167L30.9395 7.9337L30.8356 8.13779C31.2509 8.6735 31.4586 8.97962 31.4586 9.05615C31.6143 9.05615 31.7441 9.03064 31.8739 8.9541C33.1457 9.00513 34.2099 9.05615 35.0924 9.05615H35.4039C35.6894 9.05615 36.0787 9.03064 36.5459 8.9541C36.6238 9.00513 36.8834 9.05615 37.3765 9.05615L37.5842 8.9541L37.7918 9.05615L38.311 8.9541V9.05615C38.4407 9.00513 38.5446 8.9541 38.6224 8.9541C39.0377 9.00513 39.2194 9.10717 39.2194 9.26023V9.36228C38.8041 9.36228 38.5186 9.66839 38.3888 10.2806C38.259 10.2806 37.9995 10.5613 37.5582 11.097C37.2468 11.097 36.1826 11.3266 34.3397 11.8113L33.4053 11.9133C33.3534 11.9133 33.1457 11.8878 32.7823 11.8113C32.1853 11.8878 31.796 11.9388 31.6662 12.0153L31.77 12.2194C30.602 14.4133 30.031 15.6378 30.031 15.8674C28.0583 19.5919 26.9163 21.6072 26.6308 21.8623L26.4231 21.7602L26.5269 21.5562V21.25C26.1895 20.8929 26.0078 20.6888 26.0078 20.6633C26.0857 20.5357 26.1116 20.4082 26.1116 20.3572C26.0338 20.3572 25.8521 20.1276 25.5925 19.6429C25.8261 19.4643 26.1116 18.4439 26.4231 16.5817C26.6567 15.8929 26.9682 15.3827 27.3575 15.051L27.2537 14.847C27.695 13.699 28.1103 12.9592 28.4996 12.6276L28.3958 12.4235C29.2004 10.9184 29.9012 9.4133 30.5761 7.95922L30.7318 7.83167Z" fill="black"/>
<path d="M44.7481 16.1479C46.3574 16.1479 47.162 16.2755 47.162 16.5561V16.6581H46.7467C46.3574 16.6581 45.994 16.9387 45.6825 17.4999C45.397 17.4999 45.0855 17.7806 44.7481 18.3163C44.3587 18.2653 44.0732 18.2142 43.8915 18.2142C41.3479 18.903 39.5569 19.2347 38.4927 19.2347H38.0774L37.5583 19.1326C37.5583 19.2602 37.4804 19.3367 37.3506 19.3367H35.4558C34.9627 19.3367 34.7031 19.1581 34.7031 18.801L35.0146 18.2653C34.9367 18.2653 34.9108 18.2398 34.9108 18.1632C35.0406 18.0867 35.1444 18.0612 35.2222 18.0612C35.2222 17.9591 35.0925 17.7296 34.8069 17.3214C35.4558 16.8622 35.7673 16.5816 35.7673 16.4795C36.4162 16.352 36.9613 16.2755 37.3506 16.2755H39.5828L40.1279 16.1734V16.2755C40.2058 16.2755 40.2317 16.25 40.2317 16.1734C42.3601 16.1989 43.8915 16.1479 44.7481 16.1479ZM38.8042 12.0918L39.0118 12.1938C39.0897 12.1938 39.1156 12.1683 39.1156 12.0918L39.8684 12.1938H42.8273C43.4243 12.1938 44.3847 12.2193 45.6825 12.2959L45.7863 12.5C45.6825 12.5 45.0855 13.1122 43.9954 14.3622L43.5801 14.2602C41.9448 14.8214 40.7249 15.102 39.8684 15.102C39.7905 15.102 39.6867 15.0765 39.5569 14.9999C39.1676 15.0765 38.8561 15.102 38.5965 15.102H37.7659C37.6621 15.102 37.5064 14.9744 37.3506 14.6938C37.5583 14.0561 37.6621 13.6734 37.6621 13.5459C37.5064 13.5459 37.4025 13.3673 37.3506 13.0102C37.8698 12.3979 38.3629 12.0918 38.8042 12.0918ZM40.5951 8.23975C41.8929 8.31628 43.009 8.34179 43.8915 8.34179H44.203C44.4885 8.34179 44.8779 8.31628 45.371 8.23975C45.4489 8.31628 45.7344 8.34179 46.2276 8.34179L46.4352 8.23975L46.6429 8.34179L47.162 8.23975V8.34179C47.2918 8.26526 47.4215 8.23975 47.4735 8.23975C47.8888 8.31628 48.1224 8.41832 48.1224 8.54587V8.64792C47.6811 8.64792 47.3956 8.95403 47.2658 9.56628C47.136 9.56628 46.8765 9.84689 46.4352 10.4081C46.0978 10.4081 45.0076 10.6632 43.1388 11.1479L42.2044 11.2499C42.1525 11.2499 41.9189 11.2244 41.5555 11.1479C41.5036 11.1479 41.2959 11.1734 40.9066 11.2499C39.7126 11.1734 39.1156 10.9693 39.1156 10.6122C39.1935 10.6122 39.3752 10.3316 39.6607 9.77036V9.56628L39.4531 9.26015V9.05608C39.7386 8.8775 39.8684 8.69894 39.8684 8.52037C39.9203 8.57139 40.1798 8.46934 40.5951 8.23975Z" fill="black"/>
<path d="M56.7916 16.1479C58.4009 16.1479 59.2055 16.2755 59.2055 16.5561V16.6581H58.7902C58.4009 16.6581 58.0375 16.9387 57.726 17.4999C57.4405 17.4999 57.129 17.7806 56.7916 18.3163C56.4023 18.2653 56.1167 18.2142 55.9351 18.2142C53.3914 18.903 51.6004 19.2347 50.5362 19.2347H50.1209L49.6018 19.1326C49.6018 19.2602 49.5239 19.3367 49.3942 19.3367H47.4994C47.0062 19.3367 46.7466 19.1581 46.7466 18.801L47.0581 18.2653C46.9802 18.2653 46.9543 18.2398 46.9543 18.1632C47.0841 18.0867 47.1879 18.0612 47.2658 18.0612C47.2658 17.9591 47.136 17.7296 46.8505 17.3214C47.4994 16.8622 47.8108 16.5816 47.8108 16.4795C48.4597 16.352 49.0048 16.2755 49.3942 16.2755H51.6264L52.1714 16.1734V16.2755C52.2493 16.2755 52.2753 16.25 52.2753 16.1734C54.4296 16.1989 55.9351 16.1479 56.7916 16.1479ZM50.8477 12.0918L51.0553 12.1938C51.1332 12.1938 51.1592 12.1683 51.1592 12.0918L51.9119 12.1938H54.8709C55.4678 12.1938 56.4282 12.2193 57.726 12.2959L57.8298 12.5C57.726 12.5 57.129 13.1122 56.0389 14.3622L55.6236 14.2602C53.9884 14.8214 52.7684 15.102 51.9119 15.102C51.834 15.102 51.7302 15.0765 51.6004 14.9999C51.2111 15.0765 50.8996 15.102 50.64 15.102H49.8094C49.7056 15.102 49.5499 14.9744 49.3942 14.6938C49.6018 14.0561 49.7056 13.6734 49.7056 13.5459C49.5499 13.5459 49.4461 13.3673 49.3942 13.0102C49.9133 12.3979 50.4064 12.0918 50.8477 12.0918ZM52.6646 8.23975C53.9624 8.31628 55.0785 8.34179 55.961 8.34179H56.2725C56.558 8.34179 56.9473 8.31628 57.4405 8.23975C57.5184 8.31628 57.8039 8.34179 58.297 8.34179L58.5047 8.23975L58.7123 8.34179L59.2315 8.23975V8.34179C59.3612 8.26526 59.491 8.23975 59.5429 8.23975C59.9582 8.31628 60.1918 8.41832 60.1918 8.54587V8.64792C59.7506 8.64792 59.4651 8.95403 59.3353 9.56628C59.2055 9.56628 58.9459 9.84689 58.5047 10.4081C58.1673 10.4081 57.0771 10.6632 55.2083 11.1479L54.2739 11.2499C54.222 11.2499 53.9884 11.2244 53.625 11.1479C53.5731 11.1479 53.3654 11.1734 52.9761 11.2499C51.7821 11.1734 51.1851 10.9693 51.1851 10.6122C51.263 10.6122 51.4447 10.3316 51.7302 9.77036V9.56628L51.5225 9.26015V9.05608C51.8081 8.8775 51.9378 8.69894 51.9378 8.52037C51.9897 8.57139 52.2234 8.46934 52.6646 8.23975Z" fill="black"/>
<path d="M73.0401 5.89282L73.1698 6.12242C73.1698 6.22446 72.8584 6.35201 72.2614 6.5816C72.2614 6.8367 71.8201 7.42344 70.9117 8.36732H70.2368C68.2382 8.74997 67.1221 9.05609 66.9404 9.26017C66.9404 9.66834 65.435 12.4745 62.3981 17.6275C61.2041 20.0255 60.1659 21.8112 59.2315 22.9847L58.946 23.0867H58.8162L58.5826 22.9847L58.7124 22.7551V22.2959C58.7124 22.2194 58.6345 21.9388 58.4788 21.403C58.5047 21.25 58.5826 21.1734 58.7124 21.1734L58.4788 19.4898C59.0498 18.903 60.0102 16.7857 61.308 13.1377L63.2547 9.66834H62.0088C60.9446 9.61732 60.4255 9.43875 60.4255 9.10712L61.1003 8.21426C61.1003 8.13773 61.0224 7.85712 60.8927 7.3214C61.4637 6.73467 62.3722 6.42855 63.5921 6.42855L67.9267 6.09692V6.19895L68.1603 6.09692H69.0688C69.9773 6.12243 71.301 6.04588 73.0401 5.89282Z" fill="black"/>
<path d="M82.3842 0H82.6178C82.6178 0.204082 82.8514 0.459177 83.2927 0.79081V1.02041H83.4225C83.682 1.02041 83.9416 0.91837 84.2271 0.688779C84.3828 0.714289 84.4607 0.79081 84.4607 0.918361C84.305 1.53061 84.2271 1.93878 84.2271 2.16837H84.3569C84.3569 3.18878 82.9812 5.84184 80.2039 10.1276V10.2551C82.0987 9.10715 83.3186 8.54592 83.8897 8.54592C84.0454 8.62245 84.1492 8.67347 84.2271 8.67347V8.90307H83.9935L84.0973 9.13265C83.8897 9.66836 83.7339 9.92348 83.6301 9.92348C83.708 10.2296 83.9416 10.3827 84.3309 10.3827V10.7398C83.9935 11.0459 83.8118 11.352 83.7599 11.6582C82.2285 12.9592 80.8788 13.8265 79.7108 14.2602C80.2558 15.1531 81.0605 17.9592 82.1506 22.6786V22.7806L81.917 22.9082H81.8132C81.6575 21.8622 81.1902 21.3265 80.4375 21.3265C80.4375 20.9439 80.0222 20.5357 79.1657 20.0765C78.958 18.8776 78.2832 17.3725 77.0892 15.5357H76.9594C72.8843 22.9337 70.6002 26.8367 70.159 27.2194H70.0292V27.0918C70.0292 26.9643 70.107 26.5561 70.2628 25.8418C70.107 25.3571 70.0292 25.051 70.0292 24.9235L70.3666 24.2602C70.3666 24.1837 70.3147 24.0561 70.2368 23.9286C70.2368 22.6531 70.5743 21.6582 71.2751 20.9694C73.7149 15.1531 75.999 10.6888 78.1015 7.57653C78.361 6.86225 79.7886 4.36225 82.3842 0Z" fill="black"/>
<path d="M85.2134 11.8878C85.3432 11.8878 85.7325 12.1939 86.4074 12.8317H87.0044C87.0044 13.0102 87.1342 13.3419 87.3678 13.8011C87.1601 14.5153 86.07 16.5562 84.1233 19.949C84.1233 20.0511 83.8897 20.5613 83.3965 21.4796H83.0331V21.1225C83.0331 20.9439 82.7217 20.2551 82.0728 19.0051C82.3064 18.4439 82.6697 17.0664 83.1629 14.847C84.0973 13.1888 84.7981 12.1939 85.2134 11.8878ZM88.1205 5.38269C88.1205 5.73983 88.5098 6.37759 89.3145 7.29596L89.1847 7.8827V8.01025C89.1847 8.23985 89.2366 8.36739 89.3145 8.36739C89.3145 10.3572 88.7434 11.6837 87.6273 12.398C87.2639 12.0664 86.615 11.5817 85.6806 10.9694C85.6806 10.5613 85.6028 10.3827 85.447 10.3827L87.8609 5.40821H88.1205V5.38269Z" fill="black"/>
<path d="M95.3881 7.88269C97.4127 7.88269 98.6586 8.699 99.1258 10.3572V10.9949C99.1258 11.1225 99.0479 11.199 98.8922 11.199C98.8922 10.6123 98.5548 10.1021 97.9059 9.69391L97.6723 9.82146H97.4646L97.0234 9.48983H96.9195V9.92351L97.1272 10.2296V10.3572L97.0234 10.5613L96.2706 10.4592H96.1409L93.6231 11.301C92.4292 12.3725 91.7024 13.597 91.4169 14.9745C91.4169 16.0715 92.1436 17.0153 93.6231 17.7806C94.0125 17.9847 94.5316 18.0868 95.1545 18.0868C96.7119 18.0868 97.7761 17.2704 98.3212 15.6123V15.2806H98.5548V15.6123H98.6586L98.7624 14.847V14.1072H98.8662C98.996 14.1072 99.2556 14.898 99.6449 16.4796C99.6449 16.6072 99.4892 16.8878 99.2037 17.347L99.3075 17.551C98.8662 19.0562 98.3471 19.8215 97.7761 19.8215C97.1272 20.4082 96.1149 20.6888 94.7133 20.6888H94.3758C91.5986 20.6888 89.6259 19.1072 88.4579 15.9439C88.38 15.4592 88.3541 15.0511 88.3541 14.7704V13.597C88.8213 11.7092 89.6778 10.3062 90.8718 9.38778C92.4811 8.36737 93.9606 7.88269 95.3881 7.88269Z" fill="black"/>
<path d="M109.924 0H110.157C110.157 0.204082 110.391 0.459177 110.832 0.79081V1.02041H110.962C111.221 1.02041 111.481 0.91837 111.766 0.688779C111.922 0.714289 112 0.79081 112 0.918361C111.844 1.53061 111.766 1.93878 111.766 2.16837H111.896C111.896 3.18878 110.521 5.84184 107.743 10.1276V10.2551C109.638 9.10715 110.858 8.54592 111.429 8.54592C111.585 8.62245 111.689 8.67347 111.766 8.67347V8.90307H111.533L111.637 9.13265C111.429 9.66836 111.273 9.92348 111.169 9.92348C111.247 10.2296 111.481 10.3827 111.87 10.3827V10.7398C111.533 11.0459 111.351 11.352 111.299 11.6582C109.768 12.9592 108.418 13.8265 107.25 14.2602C107.795 15.1531 108.6 17.9592 109.69 22.6786V22.7806L109.456 22.9082H109.352C109.197 21.8622 108.73 21.3265 107.977 21.3265C107.977 20.9439 107.562 20.5357 106.705 20.0765C106.497 18.8776 105.822 17.3725 104.629 15.5357H104.499C100.424 22.9337 98.1395 26.8367 97.6983 27.2194H97.5685V27.0918C97.5685 26.9643 97.6463 26.5561 97.8021 25.8418C97.6463 25.3571 97.5685 25.051 97.5685 24.9235L97.9059 24.2602C97.9059 24.1837 97.854 24.0561 97.7761 23.9286C97.7761 22.6531 98.1136 21.6582 98.8144 20.9694C101.254 15.1531 103.538 10.6888 105.641 7.57653C105.9 6.86225 107.302 4.36225 109.924 0Z" fill="black"/>
</svg>
