<svg width="32" height="32" viewBox="0 0 32 32" fill="none" xmlns="http://www.w3.org/2000/svg">
<path d="M16 5.0904C11.5179 5.0904 7.84976 7.26832 5.16296 9.67795C1.36417 13.0849 1.3642 18.9151 5.16304 22.322C7.84984 24.7315 11.518 26.9093 16 26.9093C20.4821 26.9093 24.1502 24.7315 26.837 22.322C30.6359 18.9151 30.6359 13.0849 26.8371 9.67795C24.1503 7.26832 20.4821 5.0904 16 5.0904ZM15.9998 22.5091C12.4107 22.5091 9.49069 19.5891 9.49069 16C9.49069 12.4109 12.4107 9.49093 15.9998 9.49093C19.5888 9.49093 22.5088 12.4109 22.5088 16C22.5088 19.5891 19.5888 22.5091 15.9998 22.5091Z" fill="url(#paint0_linear_819_1441)"/>
<path d="M16.0001 19.9979C18.1222 19.9979 19.8425 18.2776 19.8425 16.1555C19.8425 14.0334 18.1222 12.3131 16.0001 12.3131C13.878 12.3131 12.1577 14.0334 12.1577 16.1555C12.1577 18.2776 13.878 19.9979 16.0001 19.9979Z" fill="#306678"/>
<defs>
<linearGradient id="paint0_linear_819_1441" x1="6.74734" y1="26.9094" x2="29.0754" y2="26.9094" gradientUnits="userSpaceOnUse">
<stop stop-color="#306678"/>
<stop offset="0.878125" stop-color="#BF722D"/>
</linearGradient>
</defs>
</svg>
