<svg width="20" height="21" viewBox="0 0 20 21" fill="none" xmlns="http://www.w3.org/2000/svg">
<path d="M0.0628474 4.38257C1.10883 7.39034 3.3108 10.8066 6.41284 13.9087C9.51489 17.0107 12.9312 19.2127 15.939 20.2587C16.3475 20.4001 16.7986 20.2991 17.1062 19.9938L19.1869 17.913L19.6717 17.4282C20.1094 16.9905 20.1094 16.279 19.6717 15.8413L16.4507 12.6225C16.013 12.1848 15.3015 12.1848 14.8638 12.6225L13.9907 13.4957C13.5373 13.9491 12.8145 13.994 12.3072 13.5989C11.3039 12.8178 10.3095 11.9402 9.34657 10.9772C8.38363 10.0143 7.50599 9.0199 6.72487 8.01656C6.32979 7.50928 6.37469 6.78876 6.82812 6.33311L7.70127 5.45996C8.13897 5.02226 8.13897 4.31072 7.70127 3.87302L4.48026 0.652004C4.04256 0.214306 3.33102 0.214306 2.89332 0.652004L2.40849 1.13684L0.327734 3.21759C0.0224444 3.52288 -0.0785629 3.97405 0.0628474 4.38257Z" fill="white"/>
</svg>
