<svg width="148" height="148" viewBox="0 0 148 148" fill="none" xmlns="http://www.w3.org/2000/svg">
<path d="M16.0517 71.1067V65.6835H30.0226V78.4765C28.3048 80.0061 26.3008 81.184 24.125 81.9447C21.6302 82.9263 18.98 83.4334 16.2971 83.4416C13.2379 83.5152 10.2032 82.7872 7.51211 81.3312C5.05002 79.9571 3.07872 77.8385 1.88449 75.2865C0.624822 72.6199 -0.0213719 69.7079 0.00316711 66.7551C-0.0540906 63.655 0.665721 60.5876 2.10534 57.8392C3.48771 55.2626 5.63896 53.1768 8.25646 51.8681C10.6531 50.7147 13.287 50.1503 15.9453 50.2321C19.9288 50.2321 23.0453 51.0665 25.2784 52.7433C27.5359 54.4283 29.0819 56.8986 29.6054 59.6715L23.168 60.8739C22.7754 59.377 21.8674 58.0601 20.6159 57.144C19.2499 56.1869 17.614 55.7125 15.9453 55.7698C13.4096 55.6471 10.9394 56.6286 9.18894 58.4691C7.52029 60.285 6.68596 62.9597 6.67778 66.5015C6.67778 70.3214 7.52847 73.1761 9.22166 75.0738C10.8985 76.9797 13.3442 78.043 15.8799 77.953C17.2786 77.9367 18.6692 77.6586 19.9697 77.1351C21.2294 76.6607 22.4155 76.0063 23.487 75.1965V71.1067H16.0517Z" fill="#787878"/>
<path d="M38.2451 82.9102V50.805H62.048V56.2363H44.7234V63.3526H60.8374V68.7594H44.7234V77.4953H62.6614V82.902L38.2451 82.9102Z" fill="#787878"/>
<path d="M70.5674 82.9099V51.0665H77.0457V77.495H93.1678V82.9018H70.5674V82.9099Z" fill="#787878"/>
<path d="M3.27428 98.1816V90.28H0.296875V89.2167H7.40501V90.28H4.43579V98.1816H3.27428Z" fill="#787878"/>
<path d="M9.27051 98.1818V89.1842H15.757V90.2476H10.4566V92.9877H15.4216V94.0429H10.4566V97.0939H15.9615V98.1491L9.27051 98.1818Z" fill="#787878"/>
<path d="M24.624 95.0405L25.8101 95.3432C25.6301 96.2184 25.1557 97.0118 24.4686 97.5844C23.7897 98.1079 22.9554 98.3778 22.0965 98.3533C21.2703 98.386 20.4524 98.1815 19.7407 97.7643C19.1191 97.3472 18.6365 96.7501 18.3584 96.0548C18.0394 95.2941 17.884 94.4761 17.884 93.65C17.8594 92.7993 18.0476 91.9568 18.4238 91.1961C18.751 90.5253 19.2827 89.9691 19.9452 89.6174C20.616 89.2575 21.3603 89.0694 22.121 89.0775C22.9308 89.053 23.7242 89.2902 24.3786 89.7564C25.0085 90.239 25.4583 90.918 25.6628 91.6868L24.4931 91.965C24.3459 91.4087 24.0269 90.9098 23.5852 90.5335C23.1517 90.2309 22.6282 90.0755 22.0965 90.0918C21.483 90.0673 20.8777 90.239 20.3624 90.5826C19.9043 90.9098 19.5608 91.376 19.389 91.9159C18.9964 93.1265 19.0209 94.4352 19.4463 95.6376C19.6262 96.1611 19.9861 96.6028 20.4524 96.8973C20.9104 97.1754 21.4339 97.3226 21.9738 97.3226C22.6036 97.3635 23.2335 97.1672 23.7243 96.7664C24.2069 96.3002 24.5259 95.6949 24.624 95.0405Z" fill="#787878"/>
<path d="M27.9346 98.1818V89.1842H29.1206V92.8651H33.783V89.1842H34.9691V98.1818H33.783V93.9611H29.1206V98.1818H27.9346Z" fill="#787878"/>
<path d="M37.5625 98.1818V89.1842H38.7731L43.4846 96.2269V89.1842H44.6216V98.1818H43.4028L38.6995 91.1391V98.1818H37.5625Z" fill="#787878"/>
<path d="M46.8801 93.8218C46.8065 92.5458 47.24 91.2861 48.0825 90.3209C48.8841 89.4784 50.0129 89.0203 51.1744 89.0612C51.9597 89.0531 52.7368 89.2576 53.4157 89.6502C54.0701 90.0346 54.6017 90.6072 54.9371 91.2861C55.297 92.0386 55.477 92.8566 55.4606 93.6909C55.477 94.5416 55.2888 95.3841 54.9044 96.1448C54.569 96.8401 54.021 97.4045 53.3502 97.7808C52.6877 98.1489 51.9352 98.3452 51.1744 98.337C50.3728 98.3533 49.5876 98.1407 48.9087 97.7235C48.2543 97.3391 47.7308 96.7665 47.3954 96.0876C47.0519 95.3759 46.8719 94.6071 46.8801 93.8218ZM48.1071 93.8218C48.0498 94.7543 48.3606 95.6704 48.9741 96.3739C49.5385 96.9873 50.3319 97.3227 51.1663 97.3063C52.0006 97.3309 52.8104 96.9873 53.3666 96.3657C53.9883 95.6213 54.2991 94.6643 54.2337 93.6909C54.25 93.0366 54.1191 92.3822 53.8656 91.7769C53.6365 91.2616 53.2603 90.8199 52.7858 90.5172C52.2951 90.2064 51.7307 90.051 51.1499 90.0673C50.3483 90.0428 49.5712 90.3373 48.9823 90.8853C48.2952 91.7033 47.9762 92.7748 48.1071 93.8382V93.8218Z" fill="#787878"/>
<path d="M57.5635 98.1818V89.1842H58.7495V97.0939H63.1666V98.1491L57.5635 98.1818Z" fill="#787878"/>
<path d="M64.842 93.8217C64.7684 92.5457 65.2019 91.286 66.0444 90.3208C66.8461 89.4783 67.9749 89.0202 69.1364 89.0611C69.9216 89.0529 70.6987 89.2574 71.3776 89.6501C72.032 90.0345 72.5637 90.6071 72.899 91.286C73.2589 92.0385 73.4389 92.8565 73.4225 93.6908C73.4389 94.5415 73.2507 95.384 72.8663 96.1447C72.5309 96.84 71.9829 97.4044 71.3122 97.7806C70.6414 98.1487 69.8889 98.345 69.1282 98.3369C68.3348 98.3532 67.5495 98.1406 66.8706 97.7234C66.2162 97.3389 65.6927 96.7664 65.3574 96.0875C65.0138 95.3758 64.8339 94.6069 64.842 93.8217ZM66.069 93.8217C66.0117 94.7542 66.3226 95.6703 66.936 96.3737C67.5004 96.9872 68.2939 97.3226 69.1282 97.3062C69.9625 97.3308 70.7723 96.9872 71.3285 96.3656C71.9502 95.6212 72.261 94.6642 72.1956 93.6908C72.2119 93.0364 72.081 92.3821 71.8275 91.7768C71.5984 91.2533 71.2222 90.8197 70.7396 90.5171C70.2488 90.2063 69.6844 90.0509 69.1036 90.0672C68.302 90.0427 67.525 90.3371 66.936 90.8852C66.2489 91.7113 65.9381 92.7747 66.069 93.838V93.8217Z" fill="#787878"/>
<path d="M79.7719 94.6641V93.6171H83.5673V96.9462C83.0274 97.3879 82.4221 97.7479 81.7677 97.9932C81.1624 98.2305 80.5162 98.345 79.8619 98.345C79.0275 98.3531 78.2014 98.165 77.4571 97.7806C76.7536 97.4207 76.181 96.8481 75.8211 96.1446C75.4449 95.4085 75.2567 94.5823 75.2649 93.7562C75.2567 92.9055 75.4449 92.0712 75.8129 91.3023C76.1401 90.5825 76.6963 89.9935 77.3916 89.6173C78.1196 89.241 78.9376 89.0529 79.7555 89.0692C80.3527 89.061 80.9498 89.1592 81.5142 89.38C81.9968 89.56 82.4221 89.8626 82.7493 90.2553C83.0765 90.697 83.3055 91.1959 83.4282 91.7276L82.3567 92.0221C82.2585 91.6376 82.0867 91.2695 81.8577 90.9424C81.645 90.6724 81.3588 90.4598 81.0397 90.3207C80.6471 90.1571 80.23 90.0753 79.8046 90.0835C79.322 90.0753 78.8476 90.1571 78.3977 90.3289C78.0378 90.4761 77.7106 90.697 77.4407 90.9833C77.2035 91.245 77.0072 91.5395 76.8763 91.8667C76.6473 92.4392 76.5246 93.0527 76.5327 93.6744C76.5082 94.3615 76.6554 95.0486 76.9417 95.6784C77.1953 96.2019 77.6206 96.6191 78.1441 96.8726C78.6676 97.1344 79.2402 97.2652 79.821 97.2652C80.3363 97.2652 80.8516 97.1671 81.326 96.9708C81.7268 96.8235 82.1031 96.6109 82.4385 96.3409V94.705L79.7719 94.6641Z" fill="#787878"/>
<path d="M88.4727 98.1817V94.3863L85.0127 89.2168H86.4605L88.2273 91.9243C88.5545 92.4314 88.8571 92.9304 89.1353 93.4375C89.4052 92.9713 89.7324 92.4396 90.1168 91.8588L91.8509 89.2168H93.2496L89.6751 94.3863V98.1817H88.4727Z" fill="#787878"/>
<path d="M125.734 57.4794C127.898 57.4794 129.653 55.7252 129.653 53.5613C129.653 51.3974 127.898 49.6432 125.734 49.6432C123.571 49.6432 121.816 51.3974 121.816 53.5613C121.816 55.7252 123.571 57.4794 125.734 57.4794Z" fill="#787878"/>
<path d="M110.061 93.1345C112.225 93.1345 113.979 91.3804 113.979 89.2165C113.979 87.0526 112.225 85.2984 110.061 85.2984C107.897 85.2984 106.143 87.0526 106.143 89.2165C106.143 91.3804 107.897 93.1345 110.061 93.1345Z" fill="#787878"/>
<path d="M141.215 93.1345C143.379 93.1345 145.133 91.3804 145.133 89.2165C145.133 87.0526 143.379 85.2984 141.215 85.2984C139.051 85.2984 137.297 87.0526 137.297 89.2165C137.297 91.3804 139.051 93.1345 141.215 93.1345Z" fill="#787878"/>
<path d="M125.733 82.4437C130.146 82.4437 133.724 78.8658 133.724 74.4522C133.724 70.0386 130.146 66.4606 125.733 66.4606C121.319 66.4606 117.741 70.0386 117.741 74.4522C117.741 78.8658 121.319 82.4437 125.733 82.4437Z" fill="#787878"/>
<path d="M120.489 54.7309C120.407 54.3874 120.366 54.0357 120.35 53.6758C120.342 53.5776 120.342 53.4713 120.35 53.3649C108.326 56.2524 100.923 68.3419 103.819 80.3578C104.277 82.2555 104.98 84.0878 105.913 85.8055C106.215 85.4456 106.567 85.1266 106.943 84.8567C101.569 74.5585 105.561 61.8554 115.859 56.4814C117.323 55.7207 118.886 55.1317 120.489 54.7309Z" fill="#787878"/>
<path d="M131.205 53.4633C131.205 53.5369 131.205 53.6106 131.205 53.6842C131.221 54.0768 131.188 54.4612 131.106 54.8457C142.313 57.8803 148.946 69.4219 145.912 80.6362C145.535 82.0349 145.012 83.3927 144.349 84.6851C144.726 84.9632 145.069 85.2986 145.372 85.6667C151.179 74.755 147.04 61.1931 136.129 55.3855C134.566 54.543 132.914 53.905 131.205 53.4633Z" fill="#787878"/>
<path d="M137.21 92.6766C130.241 97.2981 121.202 97.3472 114.184 92.8074C113.865 93.1592 113.505 93.4618 113.112 93.7236C120.719 98.844 130.674 98.8031 138.232 93.6172C137.856 93.3473 137.512 93.0365 137.21 92.6766Z" fill="#787878"/>
</svg>
