<svg width="148" height="148" viewBox="0 0 148 148" fill="none" xmlns="http://www.w3.org/2000/svg">
<g clip-path="url(#clip0_865_1863)">
<path d="M20.1801 57.2052V63.9113H6.72758V70.6577H16.819V77.3638H6.72758V84.1102H20.1801V90.7948H0V57.2052H20.1801Z" fill="black"/>
<path d="M29.9854 57.2885V84.0701H43.4379V90.7548H23.2578V57.2885H29.9854Z" fill="black"/>
<path d="M46.5156 57.2885H53.2432V90.7548H46.5156V57.2885Z" fill="black"/>
<path d="M79.5306 57.2885V63.9517H71.3089V90.7548H64.5598V63.9517H56.3193V57.2885H79.5306Z" fill="black"/>
<path d="M102.785 57.2052V63.9113H89.3321V70.6577H99.4235V77.3638H89.3321V84.1102H102.785V90.7948H82.6045V57.2052H102.785Z" fill="black"/>
<path d="M119.761 79.3619V90.7569H117.481V82.3743L116.333 82.7123V80.3329L119.761 79.3619Z" fill="black"/>
<path d="M123.167 90.7569L125.138 87.3233C124.098 87.2482 123.22 86.8271 122.512 86.0626C121.793 85.2981 121.437 84.3914 121.437 83.3452C121.437 82.2508 121.825 81.3119 122.606 80.5233C123.376 79.7454 124.315 79.3538 125.423 79.3538C126.525 79.3538 127.467 79.7427 128.245 80.5233C129.028 81.3066 129.419 82.2481 129.419 83.3452C129.419 83.9837 129.272 84.5899 128.977 85.1693C128.963 85.1961 128.945 85.2364 128.921 85.282L128.851 85.4081C128.8 85.5153 128.762 85.5878 128.738 85.6253L125.782 90.7488L123.167 90.7569ZM124.216 84.5416C124.554 84.8796 124.953 85.0486 125.42 85.0486C125.889 85.0486 126.292 84.8796 126.63 84.5416C126.968 84.2036 127.137 83.8039 127.137 83.3372C127.137 82.8731 126.968 82.4681 126.63 82.1274C126.292 81.7894 125.889 81.6204 125.42 81.6204C124.951 81.6204 124.548 81.7894 124.21 82.1274C123.878 82.4708 123.711 82.8731 123.711 83.3372C123.709 83.8039 123.878 84.2036 124.216 84.5416Z" fill="black"/>
<path d="M132.472 90.7569L134.444 87.3233C133.403 87.2482 132.526 86.8271 131.818 86.0626C131.099 85.2981 130.742 84.3914 130.742 83.3452C130.742 82.2508 131.131 81.3119 131.912 80.5233C132.682 79.7454 133.62 79.3538 134.728 79.3538C135.831 79.3538 136.772 79.7427 137.55 80.5233C138.334 81.3066 138.725 82.2481 138.725 83.3452C138.725 83.9837 138.578 84.5899 138.283 85.1693C138.269 85.1961 138.25 85.2364 138.226 85.282L138.156 85.4081C138.106 85.5153 138.068 85.5878 138.044 85.6253L135.088 90.7488L132.472 90.7569ZM133.521 84.5416C133.859 84.8796 134.259 85.0486 134.726 85.0486C135.195 85.0486 135.597 84.8796 135.935 84.5416C136.273 84.2036 136.442 83.8039 136.442 83.3372C136.442 82.8731 136.273 82.4681 135.935 82.1274C135.597 81.7894 135.195 81.6204 134.726 81.6204C134.256 81.6204 133.854 81.7894 133.516 82.1274C133.183 82.4708 133.017 82.8731 133.017 83.3372C133.014 83.8039 133.183 84.2036 133.521 84.5416Z" fill="black"/>
<path d="M145.095 87.9968C145.446 87.6642 145.623 87.2619 145.623 86.7924C145.623 86.3284 145.449 85.926 145.103 85.588C144.92 85.4083 144.762 85.2849 144.631 85.2151C144.448 85.1132 144.231 85.0596 143.984 85.0596V85.0515C143.445 85.0515 143.04 85.1052 142.774 85.2125C142.504 85.3198 142.144 85.5692 141.699 85.9582L140.433 85.3037L141.009 79.405H147.069V81.6716H142.903L142.777 83.0102C143.129 82.9029 143.534 82.8492 143.987 82.8492C145.02 82.8492 145.945 83.2355 146.769 84.0107C147.589 84.7886 148 85.7141 148 86.7844C148 87.8869 147.595 88.8231 146.782 89.5929C145.969 90.3682 144.993 90.7544 143.853 90.7544C142.994 90.7544 142.208 90.5157 141.495 90.0355C140.83 89.5956 140.347 89.0349 140.052 88.359L142.318 87.6347C142.67 88.198 143.182 88.4797 143.853 88.4797C144.33 88.4851 144.746 88.3214 145.095 87.9968Z" fill="black"/>
</g>
<defs>
<clipPath id="clip0_865_1863">
<rect width="148" height="148" fill="white"/>
</clipPath>
</defs>
</svg>
