<svg width="178" height="15" viewBox="0 0 178 15" fill="none" xmlns="http://www.w3.org/2000/svg">
<g clip-path="url(#clip0_396_6156)">
<path d="M13.6685 15.0067C9.05489 15.0067 5.63445 14.4083 3.40718 13.2048C1.13572 11.9879 0 10.0919 0 7.5168C0 4.9619 1.1313 3.06587 3.3895 1.82876C5.60351 0.611814 8.9886 0 13.5448 0C18.1142 0 21.5037 0.611814 23.7177 1.82876C25.9803 3.06587 27.1072 4.9619 27.1072 7.5168C27.1116 12.5056 22.6306 15.0067 13.6685 15.0067ZM13.4431 12.5728C21.2209 12.5728 25.1142 10.8852 25.1142 7.5168C25.1142 5.6813 24.1508 4.37695 22.2285 3.60376C20.4431 2.87762 17.5574 2.52129 13.5669 2.52129C9.57635 2.52129 6.68621 2.88435 4.88761 3.60376C2.96085 4.37695 2.00188 5.68803 2.00188 7.5168C1.99746 10.8852 5.81121 12.5728 13.4431 12.5728Z" fill="white"/>
<path d="M34.5005 14.4755V0.531128H37.9077L55.4385 11.9072V0.531128H57.4051V14.4755H54.5194L36.467 2.67591V14.4755H34.5005Z" fill="white"/>
<path d="M65.1475 13.2048V10.6634C68.3735 11.9341 72.0944 12.5661 76.3059 12.5661C79.6114 12.5661 81.9359 12.4316 83.2705 12.1627C84.7774 11.84 85.5331 11.2752 85.5331 10.4751C85.5331 9.54726 84.4637 8.96234 82.3292 8.73374C81.715 8.65979 80.3229 8.62615 78.1531 8.62615H74.167C70.941 8.62615 68.7314 8.39758 67.5338 7.94038C66.0711 7.39578 65.3419 6.3133 65.3419 4.69295C65.3419 2.9852 66.2567 1.76824 68.0906 1.02867C69.8053 0.342874 72.5761 0 76.4031 0C80.2655 0 83.8362 0.51096 87.1152 1.53292V3.96681L86.417 3.77857C83.1689 2.91125 79.7794 2.48091 76.2529 2.48091C70.287 2.48091 67.304 3.20707 67.304 4.65261C67.304 5.30478 67.8741 5.73508 69.0098 5.95023C69.8937 6.11159 71.6083 6.18553 74.1626 6.18553H77.994C81.3703 6.18553 83.7478 6.46122 85.131 7.00582C86.7086 7.62437 87.4997 8.7539 87.4997 10.3944C87.4997 12.2097 86.5849 13.4536 84.7509 14.1259C83.1733 14.7109 80.4025 15 76.4385 15C72.0149 15.0067 68.2541 14.4016 65.1475 13.2048Z" fill="white"/>
<path d="M95.2334 14.4755V0.531128H117.617V3.01881H97.1646V6.19226H117.617V8.62614H97.1646V12.0417H117.617V14.4755H95.2334Z" fill="white"/>
<path d="M125.456 14.4755V0.531128H142.081C143.888 0.531128 145.095 0.752988 145.7 1.19001C146.756 1.96321 147.282 3.22051 147.282 4.94843C147.282 7.36215 146.341 8.82784 144.463 9.33882L148.723 14.4688H145.753L141.878 9.73552H127.418V14.4688H125.456V14.4755ZM127.423 7.30164H141.962C143.097 7.30164 143.933 7.1268 144.467 6.77046C145.002 6.41412 145.267 5.82248 145.267 4.98877C145.267 4.2223 145.042 3.69115 144.587 3.38859C144.193 3.13982 143.491 3.01881 142.483 3.01881H127.423V7.30164Z" fill="white"/>
<path d="M155.648 13.2048V10.6634C158.874 11.9341 162.595 12.5661 166.806 12.5661C170.112 12.5661 172.436 12.4316 173.771 12.1627C175.278 11.84 176.034 11.2752 176.034 10.4751C176.034 9.54726 174.964 8.96234 172.83 8.73374C172.215 8.65979 170.823 8.62615 168.654 8.62615H164.667C161.441 8.62615 159.232 8.39758 158.034 7.94038C156.572 7.39578 155.842 6.3133 155.842 4.69295C155.842 2.9852 156.757 1.76824 158.591 1.02867C160.306 0.342874 163.077 0 166.904 0C170.766 0 174.337 0.51096 177.616 1.53292V3.96681L176.917 3.77857C173.669 2.91125 170.28 2.48091 166.753 2.48091C160.787 2.48091 157.805 3.20707 157.805 4.65261C157.805 5.30478 158.375 5.73508 159.51 5.95023C160.394 6.11159 162.109 6.18553 164.663 6.18553H168.494C171.871 6.18553 174.248 6.46122 175.631 7.00582C177.209 7.62437 178 8.7539 178 10.3944C178 12.2097 177.085 13.4536 175.251 14.1259C173.674 14.7109 170.903 15 166.939 15C162.52 15.0067 158.755 14.4016 155.648 13.2048Z" fill="white"/>
</g>
<defs>
<clipPath id="clip0_396_6156">
<rect width="178" height="15" fill="white"/>
</clipPath>
</defs>
</svg>
