<svg width="148" height="148" viewBox="0 0 148 148" fill="none" xmlns="http://www.w3.org/2000/svg">
<g clip-path="url(#clip0_865_1859)">
<path d="M22.139 44.5084C17.8049 44.3346 14.659 45.8951 12.3663 48.6966C9.84093 47.7256 7.1232 49.1496 5.7178 50.9552C6.71368 52.4537 7.21317 54.0421 7.11389 55.7423L4.25655 58.6679L3.85634 61.792C1.43954 64.7176 0.347486 67.7704 1.3532e-05 70.8976C-0.0030889 72.03 0.527427 72.7405 1.43023 73.1562C-1.49536 86.5991 11.5162 86.2516 12.4315 92.8318C13.9144 99.7937 17.0665 103.514 22.1359 103.501" stroke="black" stroke-width="3" stroke-miterlimit="10"/>
<path d="M22.1397 46.4196V52.0039C19.5616 52.0132 18.0693 50.7195 17.2037 48.6626C16.8221 48.7526 16.3444 48.7867 15.8108 48.7216C15.6649 48.703 15.5998 48.5199 15.7053 48.4176C17.6753 46.522 19.7849 46.2242 22.1397 46.4196Z" fill="black" stroke="black" stroke-miterlimit="10"/>
<path d="M22.1379 55.4448V54.3466C19.4202 53.8812 17.3354 52.3424 15.6508 50.1242H13.6281L13.1286 51.0208C12.3002 51.1263 11.4533 50.6237 10.6032 49.8915L8.31055 51.4552C8.97446 53.5338 9.37467 55.7054 9.50807 57.9702L9.5422 52.0043C10.1658 51.4738 11.0841 51.4489 12.1017 51.5886C15.4554 52.3859 18.0831 55.0788 22.1379 55.4448Z" fill="black" stroke="black" stroke-miterlimit="10"/>
<path d="M8.18215 57.874C6.88224 58.8792 6.34863 60.8958 6.38275 63.6662C6.38275 63.7841 6.33932 63.8989 6.25866 63.9827C4.82225 65.4718 3.68366 67.2464 2.76535 69.235C2.00527 70.9568 5.93601 70.4325 9.21214 70.9289C9.43241 69.7407 9.86985 68.7262 10.45 67.8265C10.5338 67.6962 10.4655 67.5287 10.3166 67.4915C10.0126 67.4201 9.72714 67.2712 9.46033 67.0664C9.27729 66.9268 9.01669 66.9672 8.9019 67.1657L8.61028 67.6683C8.56064 67.7521 8.47067 67.8017 8.37449 67.7986L7.28555 67.7521C7.0932 67.7428 6.91637 67.628 6.83881 67.4542C6.64956 67.0261 6.66197 66.5297 6.82329 65.9868C6.86052 65.8596 6.93498 65.751 7.02495 65.6548C8.23489 64.3549 8.69404 62.2422 9.06323 60.0271C9.09425 59.8347 9.08184 59.6362 9.0229 59.4469L8.57925 57.995C8.52651 57.8275 8.32175 57.7654 8.18215 57.874Z" fill="black" stroke="black" stroke-miterlimit="10"/>
<path d="M22.0702 101.578C15.3566 100.712 16.6193 91.7743 11.9998 86.9532C7.47962 82.2003 2.86946 81.4588 4.18798 73.194C10.3928 73.7835 8.23971 81.1579 14.2925 85.2841C14.4631 85.402 14.612 85.554 14.7113 85.7339C18.2325 92.097 17.8416 98.674 22.0671 98.9843L22.0702 101.578Z" fill="black" stroke="black" stroke-miterlimit="10"/>
<path d="M17.5174 59.838C17.5888 59.8256 17.6198 59.9186 17.5546 59.9497C15.9848 60.7191 14.2816 60.9238 12.3395 60.1296C11.3157 59.8783 10.9155 57.5856 10.8721 54.1234C10.8721 54.0489 10.9589 54.0055 11.0148 54.0551L11.7842 54.7066C11.8493 54.7624 11.8835 54.8524 11.871 54.9362C11.3436 58.7583 13.0841 60.6384 17.5174 59.838Z" fill="black" stroke="black" stroke-miterlimit="10"/>
<path d="M13.6261 56.4624C14.4761 57.4148 15.4224 58.1935 16.5144 58.7147C16.5982 58.755 16.561 58.8822 16.4679 58.8698L14.3334 58.6092C14.1597 58.5875 14.0139 58.4634 13.9674 58.2959L13.4772 56.543C13.4524 56.4531 13.564 56.3941 13.6261 56.4624Z" stroke="black" stroke-miterlimit="10"/>
<path d="M10.9837 61.8823L10.2174 64.5411C10.1708 64.6993 10.3539 64.8234 10.4842 64.7241L13.4159 62.5121C13.6145 62.3632 13.54 62.0499 13.298 62.0033L11.387 61.6373C11.207 61.6031 11.0333 61.7086 10.9837 61.8823Z" fill="black" stroke="black" stroke-miterlimit="10"/>
<path d="M20.6445 57.3343L20.7345 57.3933C20.9796 57.5546 21.1285 57.8276 21.1285 58.1223V58.2278C21.1285 58.324 21.2061 58.4046 21.3053 58.4046H21.5132C21.6497 58.4046 21.7614 58.293 21.7614 58.1564V57.8462C21.7614 57.7252 21.6993 57.6104 21.597 57.5453L20.8989 57.1047L20.6445 57.3343Z" fill="black" stroke="black" stroke-miterlimit="10"/>
<path d="M19.9028 60.0677C18.3361 60.7533 17.2223 61.7957 16.5615 63.1918" stroke="black" stroke-width="2" stroke-miterlimit="10"/>
<path d="M22.1374 65.1647V61.1006C21.0919 60.3777 19.6927 61.7304 19.4941 62.5463L20.642 62.6952C20.552 62.9899 20.3256 63.2133 20.037 63.3188C19.1808 63.6352 18.3307 64.3488 18.2314 65.3788C18.2283 66.3467 20.2852 65.0903 22.1374 65.1647Z" fill="#070707" stroke="black" stroke-miterlimit="10"/>
<path d="M14.337 64.2434C11.0019 70.3551 8.78994 75.2011 11.5387 76.1194C14.033 76.38 17.4891 73.4606 22.1396 72.7285V70.9322C18.9751 72.0677 16.0682 72.7967 13.8313 72.4617C12.4818 72.0956 13.397 67.4482 14.396 64.2651C14.4053 64.2279 14.3556 64.2093 14.337 64.2434Z" fill="black" stroke="black" stroke-miterlimit="10"/>
<path d="M17.5992 70.0509C15.7036 70.5225 14.9808 69.5824 15.1452 67.569C15.1545 67.448 14.9963 67.3953 14.9311 67.4976C14.3014 68.4811 14.1493 69.508 14.5526 70.5938C14.655 70.8668 14.9094 71.0623 15.201 71.0933C16.7678 71.2702 17.5216 70.9413 17.8226 70.3332C17.9001 70.1843 17.7636 70.0106 17.5992 70.0509Z" fill="black" stroke="black" stroke-miterlimit="10"/>
<path d="M22.1378 67.9196V70.0633C20.4129 69.7934 19.3301 69.0923 18.7314 68.0716C18.6973 68.0095 18.75 67.9351 18.8182 67.9444L20.3694 68.1864C20.5587 68.2143 20.7479 68.2112 20.9341 68.1708L22.1378 67.9196Z" fill="black" stroke="black" stroke-miterlimit="10"/>
<path d="M22.1388 74.3387L22.0736 79.0451C22.0736 79.0792 22.024 79.0885 22.0116 79.0544C21.7169 77.3853 21.2546 76.0233 20.6527 74.922C20.5504 74.7359 20.6744 74.5094 20.8854 74.4846L22.1388 74.3387Z" fill="black" stroke="black" stroke-miterlimit="10"/>
<path d="M19.6188 74.9871V80.0967C19.6188 80.2456 19.4203 80.2984 19.3489 80.1681C18.6726 78.4245 18.0428 77.1743 17.4968 76.895C17.3075 76.56 17.4316 76.1349 17.7729 75.9581L19.6188 74.9871Z" fill="black" stroke="black" stroke-miterlimit="10"/>
<path d="M16.5547 76.4827V81.8189C16.5547 81.915 16.4213 81.9399 16.384 81.8499C15.6984 80.2056 14.9756 78.825 14.1813 77.9533C14.0231 77.7795 14.0821 77.5065 14.2992 77.4165L16.5547 76.4827Z" fill="black" stroke="black" stroke-miterlimit="10"/>
<path d="M12.6136 77.5064C12.9146 79.2655 13.4451 80.8384 14.2486 82.191C14.3448 82.3493 14.1679 82.5354 14.0035 82.4516C12.4957 81.6667 11.354 80.2986 10.5195 78.4402C10.3985 78.1734 10.5567 77.8632 10.8453 77.8135L12.6136 77.5064Z" fill="black" stroke="black" stroke-miterlimit="10"/>
<path d="M16.0982 86.5064C15.6483 85.7432 16.033 84.9552 17.3919 84.5208C17.9658 84.3378 18.1985 84.6139 17.7269 84.828C17.1406 85.0979 16.8831 85.8145 16.6969 86.5777C16.638 86.8259 16.2254 86.7235 16.0982 86.5064Z" fill="black" stroke="black" stroke-miterlimit="10"/>
<path d="M17.1641 89.1342C16.6181 88.2066 17.0834 87.2573 18.7339 86.7298C19.4288 86.5065 19.7111 86.8415 19.1372 87.1052C18.4236 87.431 18.1134 88.2997 17.8869 89.2273C17.8187 89.522 17.3192 89.3979 17.1641 89.1342Z" fill="black" stroke="black" stroke-miterlimit="10"/>
<path d="M18.4257 92.1372C17.8579 91.1754 18.3419 90.1858 20.0575 89.6366C20.7804 89.407 21.072 89.7545 20.4794 90.0244C19.738 90.3626 19.4153 91.2685 19.1826 92.2302C19.1051 92.5374 18.587 92.4102 18.4257 92.1372Z" fill="black" stroke="black" stroke-miterlimit="10"/>
<path d="M20.7937 92.3919V95.2554C20.7937 95.544 21.0263 95.7766 21.3149 95.7766H22.137V97.8211C20.4555 97.5822 19.5589 96.695 19.2704 95.302C19.0967 94.0238 19.4938 93.0031 20.3873 92.2089C20.5424 92.0724 20.7937 92.1841 20.7937 92.3919Z" fill="black" stroke="black" stroke-miterlimit="10"/>
<path d="M56.1021 94.0014C56.1021 95.3633 55.8384 96.6633 55.3141 97.9042C54.7898 99.1452 54.07 100.209 53.1548 101.103C52.2396 101.996 51.1723 102.707 49.9562 103.231C48.74 103.755 47.4494 104.019 46.0874 104.019H26.0488V43.9839H46.0843C47.4463 43.9839 48.7369 44.2477 49.9531 44.772C51.1692 45.2963 52.2365 46.016 53.1517 46.9344C54.0669 47.8496 54.7867 48.9106 55.311 50.1175C55.8353 51.3243 56.099 52.618 56.099 54.0048L56.1021 94.0014ZM36.0666 94.0014H46.0843V54.0017H36.0666V94.0014Z" fill="black"/>
<path d="M65.1445 104.019V43.9839H75.1623V104.019H65.1445Z" fill="black"/>
<path d="M114.325 43.9839L99.3152 74.034L114.325 104.019H104.307L94.2892 83.9836V104.019H84.2715V43.9839H94.2892V64.0194L104.307 43.9839H114.325Z" fill="black"/>
<path d="M148.001 94.0013C148.001 95.3633 147.737 96.6632 147.213 97.9042C146.688 99.1452 145.968 100.209 145.05 101.103C144.135 101.996 143.068 102.707 141.852 103.231C140.635 103.755 139.345 104.019 137.983 104.019H127.965C126.603 104.019 125.312 103.755 124.096 103.231C122.88 102.707 121.813 101.996 120.898 101.103C119.982 100.209 119.263 99.1421 118.735 97.9042C118.211 96.6632 117.947 95.3633 117.947 94.0013V54.0017C117.947 52.618 118.211 51.3212 118.735 50.1143C119.26 48.9075 119.979 47.8465 120.898 46.9312C121.813 46.016 122.88 45.2963 124.096 44.7689C125.312 44.2445 126.603 43.9808 127.965 43.9808H137.983C139.345 43.9808 140.635 44.2445 141.852 44.7689C143.068 45.2932 144.135 46.0129 145.05 46.9312C145.965 47.8465 146.685 48.9075 147.213 50.1143C147.737 51.3212 148.001 52.6149 148.001 54.0017V94.0013ZM137.983 93.6011V53.5984H127.965V93.6011H137.983Z" fill="black"/>
</g>
<defs>
<clipPath id="clip0_865_1859">
<rect width="148" height="148" fill="white"/>
</clipPath>
</defs>
</svg>
