<svg width="14" height="18" viewBox="0 0 14 18" fill="none" xmlns="http://www.w3.org/2000/svg">
<path fill-rule="evenodd" clip-rule="evenodd" d="M7 17.25C2.5 15.2453 0.25 13.2453 0.25 11.25V3.75C0.25 3 0.625 3 1.75 2.25C1.87135 2.1691 4.42241 0.75 7 0.75C9.24644 0.75 11.125 1.5 12.25 2.25C13.375 3 13.75 3 13.75 3.75C13.7698 3.96849 13.75 10.125 13.75 11.25C13.75 13.25 11.5 15.25 7 17.25ZM12.25 11.25C12.25 11.0773 12.2504 10.7879 12.2514 10.316C12.2518 10.0883 12.2528 9.64695 12.2544 8.85107C12.2554 8.37714 12.2561 7.97044 12.2568 7.58234C12.2595 5.90823 12.2588 4.47136 12.2572 4.02696C12.0091 3.87287 11.622 3.63414 11.4179 3.49808C10.3107 2.75994 8.69513 2.25 7 2.25C5.37857 2.25 3.27148 3.03846 2.58205 3.49808C2.37992 3.63283 1.99828 3.86829 1.75 4.0225V11.25C1.75 12.3813 3.42183 13.9266 7.00069 15.6015C10.5791 13.9303 12.25 12.3857 12.25 11.25ZM6.25 9.43934L9.46967 6.21967L10.5303 7.28033L6.25 11.5607L3.46967 8.78033L4.53033 7.71967L6.25 9.43934Z" fill="#272727"/>
</svg>
